<svg width="135" height="40" viewBox="0 0 135 40" fill="none" xmlns="http://www.w3.org/2000/svg">
<path d="M124.249 -0.000358281H10.7566C10.3429 -0.000358281 9.9342 -0.000358281 9.5216 0.00164172C9.17621 0.00364172 8.83358 0.00945172 8.48488 0.0143417C7.72733 0.0222435 6.97157 0.081318 6.22416 0.191052C5.4778 0.303174 4.75482 0.514557 4.07967 0.818052C3.40534 1.12411 2.7892 1.52181 2.25357 1.99671C1.71514 2.47028 1.26632 3.01766 0.924356 3.6178C0.581453 4.21675 0.343683 4.85858 0.219258 5.52112C0.0936495 6.18283 0.0260586 6.85216 0.0170916 7.52312C0.00662229 7.82972 0.00551669 8.13734 0 8.44398V31.5582C0.00551669 31.8687 0.00662229 32.1695 0.0170916 32.4801C0.0260614 33.1511 0.0936522 33.8204 0.219258 34.482C0.343339 35.145 0.581124 35.7872 0.924356 36.3863C1.26616 36.9845 1.71505 37.5297 2.25357 38.0006C2.78717 38.4777 3.40371 38.8756 4.07967 39.1793C4.75481 39.4836 5.47772 39.6963 6.22416 39.8101C6.9717 39.919 7.72738 39.9781 8.48488 39.9869C8.83358 39.9937 9.17621 39.9976 9.5216 39.9976C9.93419 39.9996 10.343 39.9996 10.7566 39.9996H124.249C124.655 39.9996 125.067 39.9996 125.472 39.9976C125.816 39.9976 126.169 39.9937 126.512 39.9869C127.268 39.9786 128.023 39.9195 128.769 39.8101C129.518 39.6955 130.243 39.4829 130.921 39.1793C131.597 38.8754 132.213 38.4775 132.746 38.0006C133.283 37.5279 133.733 36.9831 134.079 36.3863C134.42 35.7867 134.655 35.1446 134.777 34.482C134.903 33.8203 134.973 33.1511 134.987 32.4801C134.991 32.1695 134.991 31.8687 134.991 31.5582C135 31.1949 135 30.8336 135 30.4644V9.53577C135 9.16956 135 8.80628 134.991 8.44398C134.991 8.13734 134.991 7.82972 134.987 7.52308C134.973 6.85206 134.903 6.18288 134.777 5.52108C134.655 4.85892 134.419 4.21714 134.079 3.61776C133.383 2.41484 132.278 1.43567 130.921 0.817962C130.243 0.515209 129.518 0.303882 128.769 0.190962C128.023 0.0807445 127.269 0.0216495 126.512 0.0142017C126.169 0.00932172 125.816 0.00346172 125.472 0.00151172C125.067 -0.000488281 124.655 -0.000488281 124.249 -0.000488281V-0.000358281Z" fill="#A6A6A6"/>
<path d="M9.43001 39.1276C9.08569 39.1276 8.74969 39.1237 8.40807 39.1169C7.70037 39.1088 6.99433 39.0542 6.29574 38.9538C5.64433 38.8545 5.0133 38.6698 4.42345 38.4058C3.839 38.1439 3.30594 37.8006 2.84469 37.389C2.37676 36.9822 1.98718 36.5103 1.6914 35.9922C1.39236 35.4707 1.18541 34.9116 1.07775 34.3346C0.961494 33.7146 0.898592 33.0877 0.889592 32.4592C0.882427 32.2483 0.873047 31.5459 0.873047 31.5459V8.44055C0.873047 8.44055 0.883037 7.749 0.889648 7.54582C0.898266 6.91838 0.960802 6.29242 1.07671 5.67336C1.18457 5.09476 1.39168 4.53414 1.69088 4.01092C1.98557 3.49312 2.37299 3.02094 2.8381 2.61267C3.30269 2.20053 3.83745 1.85544 4.42289 1.58999C5.01139 1.32682 5.64123 1.14342 6.29132 1.04594C6.99221 0.944481 7.7007 0.889629 8.41085 0.881841L9.43056 0.869629H125.57L126.602 0.882332C127.306 0.889732 128.008 0.944094 128.702 1.04496C129.359 1.14366 129.995 1.32834 130.59 1.59292C131.763 2.12788 132.718 2.97423 133.32 4.01336C133.614 4.53297 133.818 5.08902 133.924 5.66262C134.042 6.28675 134.107 6.91763 134.121 7.55023C134.124 7.83349 134.124 8.13775 134.124 8.44055C134.133 8.81563 134.133 9.17264 134.133 9.53257V30.4656C134.133 30.829 134.133 31.1836 134.124 31.541C134.124 31.8663 134.124 32.1643 134.12 32.4709C134.107 33.0922 134.042 33.7119 133.927 34.3248C133.821 34.906 133.615 35.4694 133.316 35.9952C133.018 36.5077 132.631 36.9754 132.169 37.3812C131.707 37.795 131.173 38.1404 130.587 38.4039C129.994 38.6699 129.358 38.8553 128.702 38.9538C128.004 39.0548 127.297 39.1093 126.59 39.1169C126.259 39.1237 125.912 39.1276 125.576 39.1276L124.35 39.1296L9.43001 39.1276Z" fill="#303030"/>
<path d="M32.7973 20.3003C32.8081 19.4657 33.0298 18.6473 33.4418 17.9213C33.8538 17.1954 34.4428 16.5854 35.1539 16.1483C34.7021 15.5031 34.1062 14.9722 33.4134 14.5976C32.7205 14.2231 31.9499 14.0152 31.1627 13.9906C29.4835 13.8143 27.8555 14.9954 26.9998 14.9954C26.1275 14.9954 24.81 14.0081 23.3913 14.0373C22.4736 14.0669 21.5793 14.3338 20.7954 14.8118C20.0115 15.2899 19.3649 15.9629 18.9184 16.7651C16.9844 20.1136 18.427 25.0346 20.2796 27.7412C21.2065 29.0666 22.2898 30.547 23.7072 30.4945C25.0943 30.437 25.6123 29.61 27.2866 29.61C28.9454 29.61 29.4314 30.4945 30.8776 30.4611C32.366 30.437 33.3038 29.1299 34.1981 27.792C34.8641 26.8476 35.3766 25.8039 35.7166 24.6995C34.8518 24.3338 34.1139 23.7216 33.5948 22.9393C33.0757 22.157 32.7983 21.2392 32.7973 20.3003Z" fill="white"/>
<path d="M30.0656 12.2103C30.8772 11.2361 31.277 9.98396 31.1802 8.71973C29.9403 8.84995 28.7951 9.44251 27.9726 10.3793C27.5704 10.837 27.2624 11.3694 27.0662 11.9462C26.87 12.523 26.7893 13.1328 26.8289 13.7407C27.449 13.7471 28.0625 13.6127 28.6232 13.3476C29.1838 13.0825 29.6771 12.6937 30.0656 12.2103Z" fill="white"/>
<path d="M50.3308 27.1392H45.5974L44.4607 30.4956H42.4558L46.9392 18.0776H49.0222L53.5056 30.4956H51.4665L50.3308 27.1392ZM46.0876 25.5904H49.8396L47.99 20.1431H47.9383L46.0876 25.5904Z" fill="white"/>
<path d="M63.1883 25.9695C63.1883 28.7829 61.6824 30.5905 59.4099 30.5905C58.8343 30.6207 58.2618 30.4881 57.758 30.2079C57.2542 29.9278 56.8395 29.5114 56.5613 29.0065H56.5183V33.4909H54.6599V21.4421H56.4588V22.948H56.493C56.7839 22.4455 57.2056 22.0313 57.7133 21.7495C58.2209 21.4676 58.7954 21.3287 59.3758 21.3474C61.6736 21.3474 63.1883 23.1638 63.1883 25.9695ZM61.2781 25.9695C61.2781 24.1365 60.3308 22.9314 58.8855 22.9314C57.4656 22.9314 56.5105 24.1618 56.5105 25.9695C56.5105 27.7937 57.4656 29.0154 58.8855 29.0154C60.3308 29.0154 61.2781 27.8191 61.2781 25.9695Z" fill="white"/>
<path d="M73.1531 25.9694C73.1531 28.7829 71.6472 30.5905 69.3748 30.5905C68.7991 30.6206 68.2266 30.488 67.7228 30.2079C67.219 29.9278 66.8043 29.5114 66.5262 29.0065H66.4832V33.4909H64.6248V21.4421H66.4236V22.948H66.4578C66.7487 22.4455 67.1704 22.0313 67.6781 21.7495C68.1857 21.4676 68.7603 21.3287 69.3406 21.3474C71.6385 21.3474 73.1531 23.1638 73.1531 25.9694ZM71.2429 25.9694C71.2429 24.1364 70.2957 22.9314 68.8504 22.9314C67.4304 22.9314 66.4754 24.1618 66.4754 25.9694C66.4754 27.7937 67.4304 29.0153 68.8504 29.0153C70.2957 29.0153 71.243 27.8191 71.243 25.9694H71.2429Z" fill="white"/>
<path d="M79.739 27.0357C79.8767 28.2671 81.073 29.0757 82.7078 29.0757C84.2742 29.0757 85.4012 28.2671 85.4012 27.1567C85.4012 26.1929 84.7215 25.6157 83.1121 25.2202L81.5027 24.8325C79.2225 24.2817 78.1638 23.2153 78.1638 21.4849C78.1638 19.3423 80.031 17.8706 82.6824 17.8706C85.3064 17.8706 87.1053 19.3423 87.1658 21.4849H85.2898C85.1775 20.2456 84.1531 19.4976 82.656 19.4976C81.1589 19.4976 80.1345 20.2544 80.1345 21.356C80.1345 22.2339 80.7888 22.7505 82.3894 23.146L83.7576 23.4819C86.3054 24.0844 87.364 25.1079 87.364 26.9243C87.364 29.2475 85.5134 30.7026 82.5701 30.7026C79.8162 30.7026 77.9568 29.2817 77.8367 27.0356L79.739 27.0357Z" fill="white"/>
<path d="M91.3747 19.2993V21.4419H93.0964V22.9136H91.3747V27.9048C91.3747 28.6802 91.7195 29.0415 92.4763 29.0415C92.6807 29.0379 92.8848 29.0236 93.0876 28.9985V30.4614C92.7474 30.525 92.4015 30.5538 92.0554 30.5473C90.2224 30.5473 89.5076 29.8589 89.5076 28.103V22.9136H88.1912V21.4419H89.5075V19.2993H91.3747Z" fill="white"/>
<path d="M94.0935 25.9692C94.0935 23.1206 95.7712 21.3306 98.3875 21.3306C101.012 21.3306 102.682 23.1206 102.682 25.9692C102.682 28.8257 101.021 30.6079 98.3875 30.6079C95.7546 30.6079 94.0935 28.8257 94.0935 25.9692ZM100.789 25.9692C100.789 24.0151 99.8933 22.8618 98.3874 22.8618C96.8816 22.8618 95.9871 24.0239 95.9871 25.9692C95.9871 27.9311 96.8816 29.0757 98.3874 29.0757C99.8933 29.0757 100.789 27.9311 100.789 25.9692H100.789Z" fill="white"/>
<path d="M104.215 21.442H105.987V22.983H106.03C106.15 22.5017 106.432 22.0764 106.829 21.7785C107.225 21.4806 107.712 21.3284 108.208 21.3473C108.422 21.3465 108.636 21.3698 108.845 21.4166V23.1549C108.574 23.0723 108.292 23.0343 108.01 23.0426C107.74 23.0316 107.47 23.0792 107.221 23.1821C106.971 23.285 106.746 23.4408 106.562 23.6386C106.378 23.8365 106.239 24.0719 106.155 24.3286C106.07 24.5852 106.042 24.8571 106.073 25.1256V30.4957H104.215L104.215 21.442Z" fill="white"/>
<path d="M117.413 27.8364C117.163 29.48 115.562 30.6079 113.514 30.6079C110.881 30.6079 109.246 28.8433 109.246 26.0122C109.246 23.1724 110.889 21.3306 113.436 21.3306C115.941 21.3306 117.516 23.0513 117.516 25.7964V26.4331H111.122V26.5454C111.092 26.8786 111.134 27.2143 111.244 27.5301C111.354 27.846 111.531 28.1347 111.761 28.3773C111.991 28.6198 112.271 28.8106 112.58 28.9369C112.89 29.0632 113.223 29.1222 113.557 29.1099C113.997 29.151 114.437 29.0493 114.814 28.8199C115.191 28.5904 115.483 28.2455 115.648 27.8364L117.413 27.8364ZM111.131 25.1343H115.657C115.674 24.8347 115.628 24.5349 115.524 24.2537C115.419 23.9725 115.257 23.7159 115.049 23.5001C114.84 23.2844 114.589 23.114 114.312 22.9998C114.034 22.8856 113.736 22.83 113.436 22.8364C113.134 22.8346 112.834 22.8928 112.554 23.0075C112.274 23.1222 112.019 23.2913 111.805 23.5049C111.59 23.7186 111.42 23.9726 111.305 24.2522C111.189 24.5319 111.13 24.8316 111.131 25.1343V25.1343Z" fill="white"/>
<path d="M45.8547 8.7304C46.2443 8.70244 46.6353 8.7613 46.9994 8.90274C47.3635 9.04417 47.6917 9.26465 47.9603 9.54828C48.2289 9.8319 48.4312 10.1716 48.5526 10.5429C48.674 10.9141 48.7115 11.3077 48.6623 11.6952C48.6623 13.6015 47.6321 14.6972 45.8547 14.6972H43.6995V8.7304H45.8547ZM44.6262 13.8534H45.7512C46.0296 13.87 46.3082 13.8244 46.5668 13.7198C46.8253 13.6152 47.0573 13.4542 47.2458 13.2487C47.4343 13.0431 47.5745 12.7981 47.6564 12.5315C47.7383 12.2648 47.7596 11.9833 47.719 11.7074C47.7567 11.4326 47.7331 11.1528 47.65 10.8881C47.5669 10.6235 47.4263 10.3805 47.2382 10.1765C47.0501 9.97261 46.8193 9.8128 46.5622 9.70856C46.3051 9.60433 46.0282 9.55824 45.7512 9.57361H44.6262V13.8534Z" fill="white"/>
<path d="M49.7093 12.4438C49.681 12.1479 49.7148 11.8493 49.8086 11.5672C49.9025 11.2852 50.0542 11.0258 50.2542 10.8059C50.4541 10.5859 50.6978 10.4101 50.9697 10.2898C51.2415 10.1696 51.5355 10.1074 51.8328 10.1074C52.1301 10.1074 52.4241 10.1696 52.6959 10.2898C52.9678 10.4101 53.2115 10.5859 53.4114 10.8059C53.6114 11.0258 53.7631 11.2852 53.857 11.5672C53.9508 11.8493 53.9846 12.1479 53.9563 12.4438C53.9852 12.74 53.9517 13.039 53.8581 13.3215C53.7645 13.6041 53.6129 13.8639 53.4129 14.0843C53.2129 14.3047 52.969 14.4808 52.6969 14.6014C52.4248 14.7219 52.1304 14.7842 51.8328 14.7842C51.5352 14.7842 51.2408 14.7219 50.9687 14.6014C50.6966 14.4808 50.4527 14.3047 50.2527 14.0843C50.0527 13.8639 49.9011 13.6041 49.8075 13.3215C49.7139 13.039 49.6804 12.74 49.7093 12.4438ZM53.0423 12.4438C53.0423 11.4677 52.6038 10.8969 51.8343 10.8969C51.0618 10.8969 50.6273 11.4677 50.6273 12.4438C50.6273 13.4277 51.0618 13.9941 51.8343 13.9941C52.6038 13.9941 53.0423 13.4238 53.0423 12.4438H53.0423Z" fill="white"/>
<path d="M59.6018 14.6973H58.6799L57.7493 11.3809H57.679L56.7522 14.6973H55.8391L54.5979 10.1943H55.4993L56.3059 13.6303H56.3723L57.2981 10.1943H58.1506L59.0764 13.6303H59.1467L59.9495 10.1943H60.8381L59.6018 14.6973Z" fill="white"/>
<path d="M61.8821 10.1944H62.7375V10.9097H62.804C62.9166 10.6528 63.1066 10.4374 63.3475 10.2936C63.5884 10.1498 63.8681 10.0847 64.1477 10.1075C64.3668 10.091 64.5868 10.124 64.7914 10.2041C64.996 10.2842 65.18 10.4093 65.3296 10.5702C65.4793 10.731 65.5909 10.9235 65.6561 11.1333C65.7213 11.3431 65.7385 11.5649 65.7063 11.7823V14.6973H64.8176V12.0054C64.8176 11.2818 64.5032 10.9219 63.846 10.9219C63.6972 10.915 63.5487 10.9403 63.4106 10.9961C63.2726 11.052 63.1482 11.137 63.0461 11.2454C62.944 11.3538 62.8665 11.4829 62.819 11.6241C62.7714 11.7652 62.755 11.9149 62.7707 12.063V14.6973H61.8821L61.8821 10.1944Z" fill="white"/>
<path d="M67.1223 8.43652H68.011V14.6973H67.1223V8.43652Z" fill="white"/>
<path d="M69.2463 12.4439C69.2181 12.1479 69.2519 11.8494 69.3458 11.5673C69.4397 11.2852 69.5914 11.0259 69.7914 10.8059C69.9914 10.5859 70.2351 10.4101 70.507 10.2898C70.7788 10.1696 71.0728 10.1074 71.3701 10.1074C71.6674 10.1074 71.9614 10.1696 72.2333 10.2898C72.5052 10.4101 72.7489 10.5859 72.9489 10.8059C73.1488 11.0259 73.3006 11.2852 73.3945 11.5673C73.4883 11.8494 73.5222 12.1479 73.4939 12.4439C73.5227 12.7401 73.4892 13.0391 73.3956 13.3216C73.302 13.6042 73.1503 13.864 72.9503 14.0844C72.7503 14.3048 72.5064 14.4809 72.2342 14.6014C71.9621 14.722 71.6678 14.7842 71.3701 14.7842C71.0725 14.7842 70.7782 14.722 70.506 14.6014C70.2339 14.4809 69.99 14.3048 69.79 14.0844C69.59 13.864 69.4383 13.6042 69.3446 13.3216C69.251 13.0391 69.2175 12.7401 69.2463 12.4439ZM72.5793 12.4439C72.5793 11.4678 72.1409 10.897 71.3713 10.897C70.5989 10.897 70.1644 11.4678 70.1644 12.4439C70.1644 13.4278 70.5989 13.9942 71.3713 13.9942C72.1409 13.9942 72.5794 13.4239 72.5794 12.4439H72.5793Z" fill="white"/>
<path d="M74.4294 13.4238C74.4294 12.6133 75.033 12.146 76.1042 12.0796L77.324 12.0093V11.6206C77.324 11.145 77.0095 10.8765 76.4021 10.8765C75.906 10.8765 75.5623 11.0586 75.4636 11.377H74.6033C74.6941 10.6035 75.4216 10.1074 76.4431 10.1074C77.572 10.1074 78.2087 10.6694 78.2087 11.6206V14.6973H77.3533V14.0645H77.283C77.1402 14.2914 76.9398 14.4765 76.7022 14.6007C76.4646 14.7249 76.1983 14.7838 75.9304 14.7715C75.7414 14.7911 75.5503 14.7709 75.3696 14.7122C75.1888 14.6536 75.0224 14.5576 74.8809 14.4307C74.7395 14.3037 74.6263 14.1485 74.5485 13.9751C74.4708 13.8017 74.4302 13.6139 74.4294 13.4238ZM77.324 13.0391V12.6626L76.2244 12.7329C75.6042 12.7744 75.323 12.9853 75.323 13.3823C75.323 13.7876 75.6745 14.0234 76.158 14.0234C76.2996 14.0378 76.4427 14.0235 76.5787 13.9814C76.7147 13.9393 76.8409 13.8703 76.9497 13.7784C77.0584 13.6866 77.1476 13.5738 77.212 13.4468C77.2763 13.3198 77.3144 13.1811 77.324 13.0391Z" fill="white"/>
<path d="M79.3767 12.4439C79.3767 11.021 80.1082 10.1196 81.2458 10.1196C81.5273 10.1067 81.8066 10.1741 82.0511 10.314C82.2956 10.4539 82.4953 10.6605 82.6267 10.9096H82.6931V8.43652H83.5818V14.6973H82.7302V13.9858H82.6599C82.5183 14.2333 82.3117 14.4374 82.0624 14.5758C81.8132 14.7143 81.5308 14.782 81.2459 14.7715C80.1003 14.7715 79.3767 13.8701 79.3767 12.4439ZM80.2947 12.4439C80.2947 13.3989 80.7449 13.9737 81.4978 13.9737C82.2468 13.9737 82.7097 13.3907 82.7097 12.4478C82.7097 11.5093 82.242 10.918 81.4978 10.918C80.7498 10.918 80.2947 11.4966 80.2947 12.4439H80.2947Z" fill="white"/>
<path d="M87.2586 12.4438C87.2303 12.1479 87.2641 11.8493 87.358 11.5672C87.4518 11.2852 87.6036 11.0258 87.8035 10.8059C88.0034 10.5859 88.2472 10.4101 88.519 10.2898C88.7909 10.1696 89.0848 10.1074 89.3821 10.1074C89.6794 10.1074 89.9734 10.1696 90.2452 10.2898C90.5171 10.4101 90.7608 10.5859 90.9607 10.8059C91.1607 11.0258 91.3124 11.2852 91.4063 11.5672C91.5001 11.8493 91.534 12.1479 91.5057 12.4438C91.5345 12.74 91.501 13.039 91.4075 13.3215C91.3139 13.6041 91.1622 13.8639 90.9622 14.0843C90.7622 14.3047 90.5183 14.4808 90.2462 14.6014C89.9741 14.7219 89.6797 14.7842 89.3821 14.7842C89.0845 14.7842 88.7902 14.7219 88.518 14.6014C88.2459 14.4808 88.002 14.3047 87.802 14.0843C87.602 13.8639 87.4504 13.6041 87.3568 13.3215C87.2632 13.039 87.2297 12.74 87.2586 12.4438ZM90.5916 12.4438C90.5916 11.4677 90.1531 10.8969 89.3836 10.8969C88.6111 10.8969 88.1766 11.4677 88.1766 12.4438C88.1766 13.4277 88.6112 13.9941 89.3836 13.9941C90.1531 13.9941 90.5916 13.4238 90.5916 12.4438Z" fill="white"/>
<path d="M92.698 10.1944H93.5535V10.9097H93.6199C93.7325 10.6528 93.9225 10.4374 94.1634 10.2936C94.4043 10.1498 94.684 10.0847 94.9636 10.1075C95.1827 10.091 95.4027 10.124 95.6073 10.2041C95.8119 10.2842 95.9959 10.4093 96.1456 10.5702C96.2952 10.731 96.4068 10.9235 96.472 11.1333C96.5372 11.3431 96.5544 11.5649 96.5222 11.7823V14.6973H95.6336V12.0054C95.6336 11.2818 95.3191 10.9219 94.6619 10.9219C94.5131 10.915 94.3646 10.9403 94.2266 10.9961C94.0885 11.052 93.9641 11.137 93.862 11.2454C93.7599 11.3538 93.6824 11.4829 93.6349 11.6241C93.5874 11.7652 93.5709 11.9149 93.5867 12.063V14.6973H92.698V10.1944Z" fill="white"/>
<path d="M101.544 9.07324V10.2148H102.519V10.9634H101.544V13.2788C101.544 13.7505 101.738 13.957 102.18 13.957C102.294 13.9567 102.407 13.9498 102.519 13.9365V14.6768C102.36 14.7053 102.198 14.7205 102.036 14.7222C101.048 14.7222 100.654 14.3745 100.654 13.5063V10.9633H99.9392V10.2148H100.654V9.07324H101.544Z" fill="white"/>
<path d="M103.733 8.43652H104.614V10.918H104.684C104.802 10.6587 104.998 10.4421 105.243 10.2977C105.489 10.1534 105.773 10.0883 106.057 10.1113C106.275 10.0995 106.493 10.1359 106.695 10.2179C106.898 10.2999 107.079 10.4256 107.228 10.586C107.376 10.7463 107.487 10.9373 107.552 11.1455C107.618 11.3536 107.637 11.5737 107.608 11.79V14.6973H106.719V12.0093C106.719 11.29 106.384 10.9258 105.756 10.9258C105.603 10.9132 105.449 10.9342 105.306 10.9873C105.162 11.0404 105.031 11.1242 104.923 11.2329C104.815 11.3417 104.732 11.4727 104.68 11.6168C104.628 11.761 104.608 11.9147 104.622 12.0674V14.6973H103.733L103.733 8.43652Z" fill="white"/>
<path d="M112.79 13.4815C112.669 13.8931 112.407 14.249 112.051 14.4872C111.694 14.7253 111.265 14.8305 110.839 14.7842C110.542 14.7921 110.247 14.7353 109.975 14.6177C109.702 14.5002 109.458 14.3248 109.26 14.1036C109.063 13.8825 108.915 13.6209 108.828 13.3371C108.742 13.0533 108.718 12.754 108.758 12.46C108.719 12.1652 108.743 11.8652 108.83 11.5805C108.916 11.2959 109.063 11.0331 109.26 10.81C109.457 10.587 109.699 10.4088 109.971 10.2876C110.243 10.1664 110.537 10.105 110.835 10.1075C112.088 10.1075 112.843 10.9635 112.843 12.3775V12.6876H109.664V12.7374C109.65 12.9026 109.671 13.069 109.725 13.2257C109.779 13.3825 109.865 13.5262 109.978 13.6476C110.091 13.7691 110.228 13.8656 110.38 13.931C110.533 13.9964 110.697 14.0292 110.863 14.0274C111.076 14.0529 111.291 14.0146 111.482 13.9174C111.672 13.8202 111.83 13.6685 111.934 13.4815L112.79 13.4815ZM109.664 12.0303H111.938C111.949 11.8792 111.929 11.7274 111.878 11.5847C111.827 11.442 111.747 11.3115 111.642 11.2016C111.538 11.0918 111.412 11.005 111.272 10.9468C111.132 10.8886 110.981 10.8604 110.83 10.8638C110.676 10.8619 110.523 10.8908 110.381 10.9487C110.239 11.0067 110.109 11.0925 110.001 11.2012C109.892 11.3099 109.806 11.4393 109.748 11.5817C109.691 11.7241 109.662 11.8766 109.664 12.0303H109.664Z" fill="white"/>
</svg>
