<svg width="57" height="120" viewBox="0 0 57 120" fill="none" xmlns="http://www.w3.org/2000/svg">
<path opacity="0.1" fill-rule="evenodd" clip-rule="evenodd" d="M25.4356 1.2882H33.3524C46.4691 1.2882 57.1024 11.9212 57.1024 25.0382V32.9548C57.1024 46.0714 46.4691 56.7048 33.3524 56.7048H25.4356C12.3189 56.7048 1.68566 46.0714 1.68566 32.9548V25.0382C1.68566 11.9212 12.3189 1.2882 25.4356 1.2882Z" fill="#00FFB0"/>
<path d="M30 36C30 35.66 30.04 35.33 30.09 35H20V29H36V30C36.7 30 37.37 30.13 38 30.35V23C38 21.89 37.11 21 36 21H20C18.89 21 18 21.89 18 23V35C18 35.5304 18.2107 36.0391 18.5858 36.4142C18.9609 36.7893 19.4696 37 20 37H30.09C30.04 36.67 30 36.34 30 36ZM20 23H36V25H20V23ZM34.75 39L32 36L33.16 34.84L34.75 36.43L38.34 32.84L39.5 34.25L34.75 39Z" fill="#00BB81"/>
</svg>
