<svg width="60" height="58" viewBox="0 0 58 70" fill="none" xmlns="http://www.w3.org/2000/svg">
<path d="M57.6002 21.6H12.6002V19.8L52.2002 16.632V19.8H57.6002V14.4C57.6002 10.44 54.3926 7.66075 50.4758 8.21875L14.3282 13.3812C10.4078 13.9428 7.2002 17.64 7.2002 21.6V57.5999C7.2002 59.5095 7.95876 61.3409 9.30903 62.6911C10.6593 64.0414 12.4906 64.7999 14.4002 64.7999H57.6002C59.5098 64.7999 61.3411 64.0414 62.6914 62.6911C64.0416 61.3409 64.8002 59.5095 64.8002 57.5999V28.7999C64.8002 26.8904 64.0416 25.059 62.6914 23.7088C61.3411 22.3585 59.5098 21.6 57.6002 21.6ZM52.2002 46.8215C51.4908 46.8213 50.7884 46.6814 50.1331 46.4097C49.4779 46.138 48.8825 45.7399 48.3811 45.2381C47.8796 44.7364 47.4819 44.1407 47.2107 43.4853C46.9394 42.8298 46.8 42.1273 46.8002 41.4179C46.8004 40.7086 46.9404 40.0062 47.2121 39.3509C47.4838 38.6956 47.8818 38.1003 48.3836 37.5988C48.8854 37.0974 49.481 36.6997 50.1365 36.4284C50.7919 36.1572 51.4944 36.0177 52.2038 36.018C53.6364 36.0184 55.0102 36.588 56.0229 37.6014C57.0356 38.6147 57.6043 39.9889 57.6038 41.4216C57.6033 42.8542 57.0337 44.228 56.0204 45.2407C55.007 46.2534 53.6328 46.822 52.2002 46.8215Z" fill="#F6B900"/>
</svg>
