<svg width="58" height="44" viewBox="0 0 58 44" fill="none" xmlns="http://www.w3.org/2000/svg">
<path d="M0 7.5C0 5.57718 0.763837 3.73311 2.12348 2.37348C3.48311 1.01384 5.32718 0.25 7.25 0.25H50.75C52.6728 0.25 54.5169 1.01384 55.8765 2.37348C57.2362 3.73311 58 5.57718 58 7.5V36.5C58 38.4228 57.2362 40.2669 55.8765 41.6265C54.5169 42.9862 52.6728 43.75 50.75 43.75H7.25C5.32718 43.75 3.48311 42.9862 2.12348 41.6265C0.763837 40.2669 0 38.4228 0 36.5V7.5ZM9.0625 11.125C8.58179 11.125 8.12078 11.316 7.78087 11.6559C7.44096 11.9958 7.25 12.4568 7.25 12.9375V16.5625C7.25 17.0432 7.44096 17.5042 7.78087 17.8441C8.12078 18.184 8.58179 18.375 9.0625 18.375H16.3125C16.7932 18.375 17.2542 18.184 17.5941 17.8441C17.934 17.5042 18.125 17.0432 18.125 16.5625V12.9375C18.125 12.4568 17.934 11.9958 17.5941 11.6559C17.2542 11.316 16.7932 11.125 16.3125 11.125H9.0625ZM9.0625 22C8.58179 22 8.12078 22.191 7.78087 22.5309C7.44096 22.8708 7.25 23.3318 7.25 23.8125C7.25 24.2932 7.44096 24.7542 7.78087 25.0941C8.12078 25.434 8.58179 25.625 9.0625 25.625H27.1875C27.6682 25.625 28.1292 25.434 28.4691 25.0941C28.809 24.7542 29 24.2932 29 23.8125C29 23.3318 28.809 22.8708 28.4691 22.5309C28.1292 22.191 27.6682 22 27.1875 22H9.0625ZM9.0625 29.25C8.58179 29.25 8.12078 29.441 7.78087 29.7809C7.44096 30.1208 7.25 30.5818 7.25 31.0625C7.25 31.5432 7.44096 32.0042 7.78087 32.3441C8.12078 32.684 8.58179 32.875 9.0625 32.875H12.6875C13.1682 32.875 13.6292 32.684 13.9691 32.3441C14.309 32.0042 14.5 31.5432 14.5 31.0625C14.5 30.5818 14.309 30.1208 13.9691 29.7809C13.6292 29.441 13.1682 29.25 12.6875 29.25H9.0625ZM19.9375 29.25C19.4568 29.25 18.9958 29.441 18.6559 29.7809C18.316 30.1208 18.125 30.5818 18.125 31.0625C18.125 31.5432 18.316 32.0042 18.6559 32.3441C18.9958 32.684 19.4568 32.875 19.9375 32.875H23.5625C24.0432 32.875 24.5042 32.684 24.8441 32.3441C25.184 32.0042 25.375 31.5432 25.375 31.0625C25.375 30.5818 25.184 30.1208 24.8441 29.7809C24.5042 29.441 24.0432 29.25 23.5625 29.25H19.9375ZM30.8125 29.25C30.3318 29.25 29.8708 29.441 29.5309 29.7809C29.191 30.1208 29 30.5818 29 31.0625C29 31.5432 29.191 32.0042 29.5309 32.3441C29.8708 32.684 30.3318 32.875 30.8125 32.875H34.4375C34.9182 32.875 35.3792 32.684 35.7191 32.3441C36.059 32.0042 36.25 31.5432 36.25 31.0625C36.25 30.5818 36.059 30.1208 35.7191 29.7809C35.3792 29.441 34.9182 29.25 34.4375 29.25H30.8125ZM41.6875 29.25C41.2068 29.25 40.7458 29.441 40.4059 29.7809C40.066 30.1208 39.875 30.5818 39.875 31.0625C39.875 31.5432 40.066 32.0042 40.4059 32.3441C40.7458 32.684 41.2068 32.875 41.6875 32.875H45.3125C45.7932 32.875 46.2542 32.684 46.5941 32.3441C46.934 32.0042 47.125 31.5432 47.125 31.0625C47.125 30.5818 46.934 30.1208 46.5941 29.7809C46.2542 29.441 45.7932 29.25 45.3125 29.25H41.6875Z" fill="#F6B900"/>
</svg>
