<svg width="129" height="32" viewBox="0 0 129 32" fill="none" xmlns="http://www.w3.org/2000/svg">
<path d="M61.168 23.1263C61.1747 23.7596 60.9556 24.304 60.51 24.7594C60.0644 25.2146 59.5375 25.4459 58.9293 25.4524C58.2963 25.4593 57.752 25.2396 57.2969 24.7937C56.3893 23.9045 56.355 22.4634 57.2624 21.5605C57.708 21.1174 58.2472 20.8924 58.8802 20.8854C59.4888 20.8792 60.0204 21.0926 60.4755 21.526C60.9306 21.9598 61.1613 22.4931 61.1682 23.1263H61.168ZM55.3614 18.2238L55.3628 18.2965L50.9648 18.3758L49.4601 18.4031L46.8071 18.4509C46.5463 18.4555 46.2945 18.414 46.0608 18.3341C45.7567 18.2295 45.4818 18.0592 45.2546 17.8397C44.8477 17.4472 44.592 16.8972 44.5878 16.2844C44.5797 15.0847 45.5576 14.1094 46.7568 14.0881L49.3751 14.0406L50.7538 14.0154C50.7534 14.0154 50.7536 14.0149 50.7532 14.0147C50.7534 14.0144 50.7529 14.0144 50.7529 14.0142C50.0613 12.572 48.7303 11.4987 47.1346 11.1541C46.7719 11.0756 46.3953 11.0352 46.0094 11.0362C39.099 11.0573 39.1655 21.6549 46.119 21.529L48.5098 21.4857L49.2651 21.4722L53.39 21.3978C56.0192 21.3527 55.9849 24.8987 53.9201 25.397L53.8958 25.403L53.8713 25.4086L53.8462 25.4137V25.4141L53.8215 25.419L53.7969 25.4236L53.7714 25.4283L53.7462 25.4324L53.7212 25.4364L53.6957 25.4401L53.67 25.4433L53.6443 25.4459L53.619 25.4489L53.5929 25.4512L53.5669 25.4531L53.5408 25.4544L53.5148 25.4558L53.4889 25.457L53.4625 25.4577C46.8437 25.5773 39.8615 26.2134 37.3219 19.5478V19.5473C36.8054 18.1946 36.6211 16.7375 36.7735 15.2983C36.9953 13.1845 37.9271 11.2765 39.3283 9.82224C42.5921 6.43703 48.4651 5.56563 52.5509 9.51054C55.2935 12.1548 55.3686 14.6265 55.4334 18.2224L55.3607 18.224L55.3614 18.2238ZM45.259 23.6813C45.2604 23.6808 45.2592 23.6808 45.259 23.6813V23.6813Z" fill="#373535"/>
<path d="M73.5167 6.10188C73.5167 5.8298 73.5506 5.55749 73.6527 5.31925C73.7886 5.08124 73.9246 4.87683 74.0948 4.67289C74.2646 4.50278 74.5027 4.36674 74.7408 4.26477C74.9789 4.16257 75.251 4.09467 75.5229 4.09467C75.7948 4.09467 76.0669 4.16257 76.305 4.26477C76.5429 4.36674 76.7472 4.50278 76.951 4.67289C77.121 4.87683 77.2569 5.08101 77.3591 5.31925C77.461 5.55749 77.5288 5.8298 77.5288 6.10188V25.1552C77.5288 25.9038 77.155 26.2778 76.4069 26.2778C75.9991 26.2778 75.6248 26.1077 75.3189 25.8014C75.0129 25.4954 74.7748 24.9849 74.6729 24.2704L73.9248 22.0247L73.517 21.7867V6.10165L73.5167 6.10188ZM76.2708 17.8399C76.2708 18.9966 76.1008 20.0856 75.7605 21.1063C75.3867 22.1269 74.9105 23.0456 74.2305 23.7941C73.5844 24.5427 72.8022 25.1552 71.8842 25.5974C70.9663 26.0398 69.9123 26.2778 68.7561 26.2778C67.5999 26.2778 66.5459 26.0398 65.5597 25.5974C64.5738 25.155 63.7238 24.5427 63.0095 23.7941C62.2955 23.0456 61.7517 22.1269 61.3436 21.1063C60.9355 20.0856 60.7314 18.9969 60.7314 17.8399C60.7314 16.6833 60.9353 15.5943 61.3436 14.6077C61.7514 13.587 62.2955 12.7024 63.0095 11.9198C63.7238 11.1712 64.5738 10.5587 65.5597 10.1165C66.5459 9.67412 67.5997 9.47018 68.7561 9.47018C69.708 9.47018 70.6601 9.67412 71.5782 10.1165C72.4622 10.559 73.2782 11.1712 73.9584 11.9198C74.6725 12.7024 75.2163 13.587 75.6584 14.6077C76.0662 15.5943 76.2705 16.683 76.2705 17.8399H76.2708ZM73.5167 17.8399C73.5167 17.2274 73.3806 16.6492 73.1767 16.1048C72.9387 15.5602 72.6327 15.0842 72.2246 14.6756C71.8168 14.2675 71.3746 13.927 70.8306 13.689C70.2863 13.4508 69.7425 13.3488 69.1304 13.3488C68.5182 13.3488 67.9404 13.4508 67.3963 13.689C66.8521 13.927 66.4102 14.2675 66.0021 14.6756C65.6283 15.0839 65.3221 15.5602 65.084 16.1048C64.8802 16.6492 64.778 17.2274 64.778 17.8399C64.778 18.4865 64.8802 19.0648 65.084 19.6091C65.3221 20.1535 65.6283 20.6298 66.0021 21.0381C66.4099 21.4465 66.8521 21.7869 67.3963 22.0249C67.9404 22.2629 68.5182 22.3649 69.1304 22.3649C69.7425 22.3649 70.2863 22.2629 70.8306 22.0249C71.3746 21.7869 71.8165 21.4465 72.2246 21.0381C72.6327 20.63 72.9387 20.1535 73.1767 19.6091C73.3806 19.0648 73.5167 18.4865 73.5167 17.8399Z" fill="#373535"/>
<path d="M78.824 17.8402C78.824 16.6835 79.028 15.5945 79.4702 14.5738C79.9123 13.5532 80.5242 12.6686 81.272 11.92C82.0542 11.1715 82.9382 10.559 83.9584 10.1168C84.9784 9.67435 86.0663 9.43634 87.2227 9.43634C88.3784 9.43634 89.4667 9.67435 90.4529 10.1168C91.4729 10.5592 92.3569 11.1715 93.1388 11.92C93.8871 12.6686 94.499 13.5532 94.9409 14.5738C95.383 15.5945 95.6211 16.6833 95.6211 17.8402C95.6211 18.9968 95.383 20.0859 94.9409 21.1065C94.4988 22.1271 93.8871 23.0117 93.1388 23.7603C92.3569 24.5429 91.4729 25.1214 90.4529 25.5636C89.4667 26.006 88.3786 26.244 87.2227 26.244C86.0665 26.244 84.9784 26.006 83.9584 25.5636C82.9382 25.1212 82.0542 24.5429 81.272 23.7603C80.5242 23.0117 79.9121 22.1271 79.4702 21.1065C79.028 20.0859 78.824 18.9971 78.824 17.8402ZM82.8703 17.8402C82.8703 18.4527 82.9723 19.0309 83.1763 19.6094C83.4142 20.1538 83.7203 20.63 84.0941 21.0384C84.5022 21.4467 84.9444 21.7531 85.4884 21.9911C86.0325 22.2293 86.6105 22.3651 87.2227 22.3651C87.8346 22.3651 88.3784 22.2293 88.9226 21.9911C89.4326 21.7531 89.9086 21.4467 90.2829 21.0384C90.6907 20.6302 90.9969 20.1538 91.2348 19.6094C91.4388 19.0309 91.5748 18.4527 91.5748 17.8402C91.5748 17.2276 91.4388 16.6494 91.2348 16.105C90.9969 15.5266 90.6907 15.0503 90.2829 14.642C89.9088 14.2336 89.4326 13.9273 88.9226 13.6892C88.3784 13.451 87.8346 13.3152 87.2227 13.3152C86.6105 13.3152 86.0325 13.451 85.4884 13.6892C84.9444 13.9273 84.5025 14.2336 84.0941 14.642C83.7203 15.0501 83.4142 15.5266 83.1763 16.105C82.9723 16.6494 82.8703 17.2276 82.8703 17.8402Z" fill="#373535"/>
<path d="M100.741 16.6491L108.358 10.729C108.664 10.5248 109.004 10.2866 109.344 10.0824C109.684 9.84438 110.024 9.63998 110.364 9.4701C110.534 9.43604 110.704 9.40197 110.908 9.3679C111.078 9.3679 111.282 9.3679 111.486 9.43604C111.758 9.50394 111.996 9.67405 112.234 9.87845C112.472 10.0824 112.608 10.3549 112.71 10.6268C112.778 10.8991 112.812 11.1373 112.812 11.4096C112.812 11.5795 112.744 11.7496 112.676 11.954C112.574 12.1239 112.472 12.294 112.336 12.4644C112.234 12.6004 112.065 12.7705 111.929 12.9068C111.759 13.0769 111.622 13.2129 111.486 13.3151L108.052 15.9349L112.472 23.0117C112.71 23.3178 112.846 23.6242 112.914 23.9644C112.949 24.3385 112.914 24.6448 112.779 24.985C112.643 25.2912 112.473 25.5635 112.166 25.7674C111.895 26.0057 111.554 26.1417 111.18 26.1758C111.01 26.2096 110.84 26.2096 110.636 26.1758C110.466 26.1417 110.296 26.0738 110.16 26.0057C109.99 25.9037 109.854 25.8015 109.718 25.6995C109.616 25.5635 109.48 25.4615 109.378 25.3255L104.958 18.2144C104.516 18.5887 104.108 18.895 103.734 19.2012C103.326 19.5073 102.986 19.7796 102.646 20.0176C102.306 20.29 101.966 20.5282 101.66 20.8003C101.354 21.0383 101.048 21.2768 100.742 21.5148V16.6493L100.741 16.6491ZM96.729 6.23784C96.729 5.96576 96.7971 5.72752 96.899 5.48928C97.0009 5.2172 97.1369 5.0128 97.3069 4.84292C97.4769 4.67281 97.7147 4.50271 97.953 4.4005C98.1909 4.2983 98.463 4.26447 98.7352 4.26447C99.0068 4.26447 99.2792 4.2983 99.5171 4.4005C99.7552 4.50248 99.9592 4.67258 100.163 4.84292C100.333 5.0128 100.469 5.21697 100.571 5.48928C100.707 5.72752 100.741 5.96576 100.741 6.23784V24.2362C100.741 24.5083 100.707 24.7806 100.571 25.0189C100.469 25.2569 100.333 25.4954 100.163 25.6652C99.9592 25.8353 99.7554 25.9714 99.5171 26.1077C99.2792 26.2096 99.0068 26.2437 98.7352 26.2437C98.463 26.2437 98.1909 26.2096 97.953 26.1077C97.7149 25.9716 97.4769 25.8356 97.3069 25.6652C97.1369 25.4954 97.0009 25.2571 96.899 25.0189C96.7971 24.7806 96.729 24.5083 96.729 24.2362V6.23784Z" fill="#373535"/>
<path d="M112.203 17.8402C112.203 16.6835 112.407 15.5945 112.849 14.5738C113.291 13.5532 113.903 12.6686 114.651 11.92C115.433 11.1715 116.317 10.559 117.337 10.1168C118.357 9.67435 119.445 9.43634 120.602 9.43634C121.758 9.43634 122.846 9.67435 123.832 10.1168C124.852 10.5592 125.736 11.1715 126.518 11.92C127.266 12.6686 127.878 13.5532 128.32 14.5738C128.762 15.5945 129 16.6833 129 17.8402C129 18.9968 128.762 20.0859 128.32 21.1065C127.878 22.1271 127.266 23.0117 126.518 23.7603C125.736 24.5429 124.852 25.1214 123.832 25.5636C122.846 26.006 121.758 26.244 120.602 26.244C119.446 26.244 118.357 26.006 117.337 25.5636C116.317 25.1212 115.433 24.5429 114.651 23.7603C113.903 23.0117 113.291 22.1271 112.849 21.1065C112.407 20.0859 112.203 18.9971 112.203 17.8402ZM116.249 17.8402C116.249 18.4527 116.351 19.0309 116.555 19.6094C116.793 20.1538 117.099 20.63 117.473 21.0384C117.881 21.4467 118.323 21.7531 118.868 21.9911C119.412 22.2293 119.989 22.3651 120.602 22.3651C121.214 22.3651 121.758 22.2293 122.302 21.9911C122.812 21.7531 123.288 21.4467 123.662 21.0384C124.07 20.6302 124.376 20.1538 124.614 19.6094C124.818 19.0309 124.954 18.4527 124.954 17.8402C124.954 17.2276 124.818 16.6494 124.614 16.105C124.376 15.5266 124.07 15.0503 123.662 14.642C123.288 14.2336 122.812 13.9273 122.302 13.6892C121.758 13.451 121.214 13.3152 120.602 13.3152C119.989 13.3152 119.412 13.451 118.868 13.6892C118.323 13.9273 117.881 14.2336 117.473 14.642C117.099 15.0501 116.793 15.5266 116.555 16.105C116.351 16.6494 116.249 17.2276 116.249 17.8402Z" fill="#373535"/>
<path d="M16.5925 25.631C16.175 25.8634 15.7349 25.9142 15.2724 25.7825C14.8101 25.6507 14.4669 25.3839 14.2434 24.9823C14.0108 24.5647 13.9606 24.1241 14.0921 23.6615C14.3548 22.738 15.2981 22.1964 16.2238 22.4738C16.6782 22.6098 17.0219 22.887 17.2545 23.3046C17.478 23.7065 17.5278 24.1364 17.4045 24.5946C17.2809 25.0527 17.0101 25.3983 16.593 25.631H16.5925ZM17.7513 20.0091L17.7035 20.036L16.0663 17.1444L15.5061 16.1553L14.5185 14.4109C14.4215 14.2394 14.3587 14.0575 14.3274 13.8732C14.2871 13.6336 14.301 13.3898 14.3647 13.1599C14.4787 12.7483 14.751 12.38 15.1559 12.1569C15.9484 11.7191 16.9476 12.0171 17.3939 12.8055L18.3687 14.527L18.8822 15.4334C18.8822 15.4331 18.8824 15.4329 18.8824 15.4327C18.8829 15.4327 18.8824 15.4324 18.8826 15.4322C19.59 14.4533 19.822 13.1833 19.4756 11.9993C19.3968 11.7302 19.288 11.4655 19.1483 11.2097C16.6444 6.62861 9.64091 10.491 12.2293 15.0626L13.1194 16.6346L13.4006 17.1314L14.9359 19.8434C15.9135 21.5732 13.5492 22.8279 12.4751 21.6362L12.4621 21.6223L12.4496 21.6082L12.4371 21.5936L12.4368 21.5938L12.4248 21.579L12.4128 21.5644L12.4007 21.5493L12.3889 21.534L12.3773 21.5187L12.366 21.5032L12.3546 21.4875L12.3435 21.4712L12.3326 21.4555L12.3217 21.439L12.3113 21.4226L12.3009 21.4057L12.2907 21.3887L12.2803 21.3718L12.2703 21.3547C9.80627 17.0028 6.86882 12.5958 10.3744 8.50813L10.3746 8.5079C11.0857 7.67776 11.9854 7.03047 12.9946 6.61285C14.4764 5.99871 16.0772 5.92965 17.5468 6.33637C20.9673 7.28401 23.6611 10.8697 22.5172 15.0039C22.3762 15.515 22.1775 16.0102 21.9243 16.4786C20.8636 18.4438 19.5677 19.0422 17.7786 20.0566L17.7513 20.0089V20.0091ZM10.4925 15.2674C10.4932 15.2681 10.4928 15.2674 10.4925 15.2674V15.2674Z" fill="#373535"/>
<path fill-rule="evenodd" clip-rule="evenodd" d="M3.02708 16.1535C3.02708 13.2522 3.73394 10.8473 5.29913 8.50662C5.75655 7.82248 6.9602 6.46951 7.57094 5.99511C7.72218 5.87761 7.84308 5.75826 7.99779 5.63242C9.81126 4.15545 11.9339 3.32671 14.2692 3.04095C14.5186 3.01036 14.7586 2.98302 15.0029 2.98487C15.313 2.98742 15.4596 2.94107 15.7925 2.94107C17.5235 2.94107 19.5602 3.34501 21.086 4.05279C21.9175 4.43866 23.0887 5.12859 23.7428 5.78398C23.8465 5.88781 23.8769 5.89407 23.9827 5.98283C24.1423 6.11609 24.2234 6.21852 24.3968 6.3585L24.8297 6.7592C24.9555 6.92513 25.078 7.00903 25.2109 7.16778C26.0366 8.15435 26.9373 9.44707 27.4109 10.629C28.0668 12.2652 28.2378 12.6661 28.3862 14.4819C28.4564 15.3408 28.5578 15.2933 28.5578 16.417C28.5578 17.2421 28.3353 18.3234 28.1632 19.0071C27.6856 20.9052 26.9984 22.5476 25.7642 24.0688C25.3547 24.5734 24.7917 25.2556 24.3093 25.6417C23.8704 25.9926 23.5848 26.2837 23.0741 26.6448C21.9566 27.4348 20.9945 27.9558 19.6468 28.4385C18.0393 29.0144 16.8602 28.9273 15.1782 28.9273C14.2164 28.9273 13.1705 28.7929 12.4196 28.5711C10.9019 28.1224 9.53982 27.3792 8.2558 26.5043C5.90547 24.9031 3.90232 21.6412 3.3372 18.961C3.15701 18.1079 3.02685 17.1807 3.02685 16.1535H3.02708ZM31.4971 15.4126V16.1118C31.4504 18.3879 30.9519 20.6593 30.1059 22.619L29.6112 23.6605C28.82 25.1817 28.0154 26.1122 26.8363 27.2923L26.0461 28.0378C25.6139 28.4738 25.1785 28.7848 24.6977 29.147C24.5031 29.2937 24.3206 29.4165 24.1018 29.56C23.5596 29.9155 22.7469 30.2856 22.1686 30.5667L20.7115 31.1278C18.3406 31.9181 16.4014 32.151 13.8185 31.8685C11.8904 31.6578 9.58521 30.8316 7.94267 29.8467C7.19991 29.4012 5.98676 28.5825 5.36351 27.95L3.6904 26.2C2.899 25.1975 2.70654 24.8994 2.08699 23.8542C1.40561 22.705 0.710565 20.8604 0.421058 19.5951C0.121361 18.284 0 17.2437 0 15.7586C0 13.9707 0.406699 12.1989 0.937306 10.6387C1.27012 9.66052 1.71735 8.77476 2.20859 7.87231C2.67759 7.01088 3.27536 6.2417 3.86016 5.48664C3.94794 5.37309 4.01233 5.32465 4.1052 5.20506C4.20201 5.08038 4.22332 5.05651 4.33194 4.94898C5.24771 4.04329 5.97819 3.38882 7.05377 2.66853L8.29957 1.89609C9.38233 1.24116 11.3755 0.471044 12.7091 0.250879C13.8285 0.0661717 15.1194 0.00012207 16.4505 0.00012207C20.4623 0.00012207 24.2252 2.00734 26.9896 4.77377L27.6919 5.51978C27.7794 5.61805 27.8271 5.68294 27.91 5.78445C29.227 7.39698 30.3025 9.43942 30.8989 11.4413C31.2776 12.7125 31.4694 14.0578 31.4971 15.4129V15.4126Z" fill="#373535"/>
</svg>
