<svg width="57" height="120" viewBox="0 0 57 120" fill="none" xmlns="http://www.w3.org/2000/svg">
<path opacity="0.1" fill-rule="evenodd" clip-rule="evenodd" d="M24.5416 0.791616H32.4583C45.5751 0.791616 56.2083 11.4246 56.2083 24.5416V32.4583C56.2083 45.5748 45.5751 56.2082 32.4583 56.2082H24.5416C11.4249 56.2082 0.791616 45.5748 0.791616 32.4583V24.5416C0.791616 11.4246 11.4249 0.791616 24.5416 0.791616Z" fill="#FF0000"/>
<path d="M38 37L33.514 32.506L38 37ZM36 26.5C36 28.7543 35.1045 30.9163 33.5104 32.5104C31.9163 34.1045 29.7543 35 27.5 35C25.2457 35 23.0837 34.1045 21.4896 32.5104C19.8955 30.9163 19 28.7543 19 26.5C19 24.2457 19.8955 22.0837 21.4896 20.4896C23.0837 18.8955 25.2457 18 27.5 18C29.7543 18 31.9163 18.8955 33.5104 20.4896C35.1045 22.0837 36 24.2457 36 26.5V26.5Z" stroke="#C40000" stroke-width="2" stroke-linecap="round"/>
</svg>
