<svg width="15" height="19" viewBox="0 0 15 19" fill="none" xmlns="http://www.w3.org/2000/svg">
<path d="M4.28195 13.25V13.8929C4.28195 13.9799 4.24847 14.0569 4.1815 14.1239C4.12123 14.1842 4.04757 14.2143 3.96052 14.2143H3.31766C3.23061 14.2143 3.1536 14.1842 3.08664 14.1239C3.02637 14.0569 2.99623 13.9799 2.99623 13.8929V13.25C2.99623 13.1629 3.02637 13.0893 3.08664 13.029C3.1536 12.9621 3.23061 12.9286 3.31766 12.9286H3.96052C4.04757 12.9286 4.12123 12.9621 4.1815 13.029C4.24847 13.0893 4.28195 13.1629 4.28195 13.25ZM4.28195 10.6786V11.3214C4.28195 11.4085 4.24847 11.4855 4.1815 11.5525C4.12123 11.6127 4.04757 11.6429 3.96052 11.6429H3.31766C3.23061 11.6429 3.1536 11.6127 3.08664 11.5525C3.02637 11.4855 2.99623 11.4085 2.99623 11.3214V10.6786C2.99623 10.5915 3.02637 10.5179 3.08664 10.4576C3.1536 10.3906 3.23061 10.3571 3.31766 10.3571H3.96052C4.04757 10.3571 4.12123 10.3906 4.1815 10.4576C4.24847 10.5179 4.28195 10.5915 4.28195 10.6786ZM6.85338 10.6786V11.3214C6.85338 11.4085 6.81989 11.4855 6.75293 11.5525C6.69266 11.6127 6.619 11.6429 6.53195 11.6429H5.88909C5.80204 11.6429 5.72503 11.6127 5.65806 11.5525C5.5978 11.4855 5.56766 11.4085 5.56766 11.3214V10.6786C5.56766 10.5915 5.5978 10.5179 5.65806 10.4576C5.72503 10.3906 5.80204 10.3571 5.88909 10.3571H6.53195C6.619 10.3571 6.69266 10.3906 6.75293 10.4576C6.81989 10.5179 6.85338 10.5915 6.85338 10.6786ZM4.28195 8.10714V8.75C4.28195 8.83705 4.24847 8.91406 4.1815 8.98103C4.12123 9.04129 4.04757 9.07143 3.96052 9.07143H3.31766C3.23061 9.07143 3.1536 9.04129 3.08664 8.98103C3.02637 8.91406 2.99623 8.83705 2.99623 8.75V8.10714C2.99623 8.02009 3.02637 7.94643 3.08664 7.88616C3.1536 7.8192 3.23061 7.78571 3.31766 7.78571H3.96052C4.04757 7.78571 4.12123 7.8192 4.1815 7.88616C4.24847 7.94643 4.28195 8.02009 4.28195 8.10714ZM11.9962 13.25V13.8929C11.9962 13.9799 11.9628 14.0569 11.8958 14.1239C11.8355 14.1842 11.7619 14.2143 11.6748 14.2143H11.0319C10.9449 14.2143 10.8679 14.1842 10.8009 14.1239C10.7407 14.0569 10.7105 13.9799 10.7105 13.8929V13.25C10.7105 13.1629 10.7407 13.0893 10.8009 13.029C10.8679 12.9621 10.9449 12.9286 11.0319 12.9286H11.6748C11.7619 12.9286 11.8355 12.9621 11.8958 13.029C11.9628 13.0893 11.9962 13.1629 11.9962 13.25ZM9.4248 10.6786V11.3214C9.4248 11.4085 9.39132 11.4855 9.32436 11.5525C9.26409 11.6127 9.19043 11.6429 9.10338 11.6429H8.46052C8.37347 11.6429 8.29646 11.6127 8.22949 11.5525C8.16922 11.4855 8.13909 11.4085 8.13909 11.3214V10.6786C8.13909 10.5915 8.16922 10.5179 8.22949 10.4576C8.29646 10.3906 8.37347 10.3571 8.46052 10.3571H9.10338C9.19043 10.3571 9.26409 10.3906 9.32436 10.4576C9.39132 10.5179 9.4248 10.5915 9.4248 10.6786ZM6.85338 8.10714V8.75C6.85338 8.83705 6.81989 8.91406 6.75293 8.98103C6.69266 9.04129 6.619 9.07143 6.53195 9.07143H5.88909C5.80204 9.07143 5.72503 9.04129 5.65806 8.98103C5.5978 8.91406 5.56766 8.83705 5.56766 8.75V8.10714C5.56766 8.02009 5.5978 7.94643 5.65806 7.88616C5.72503 7.8192 5.80204 7.78571 5.88909 7.78571H6.53195C6.619 7.78571 6.69266 7.8192 6.75293 7.88616C6.81989 7.94643 6.85338 8.02009 6.85338 8.10714ZM4.28195 5.53571V6.17857C4.28195 6.26562 4.24847 6.34263 4.1815 6.4096C4.12123 6.46987 4.04757 6.5 3.96052 6.5H3.31766C3.23061 6.5 3.1536 6.46987 3.08664 6.4096C3.02637 6.34263 2.99623 6.26562 2.99623 6.17857V5.53571C2.99623 5.44866 3.02637 5.375 3.08664 5.31473C3.1536 5.24777 3.23061 5.21429 3.31766 5.21429H3.96052C4.04757 5.21429 4.12123 5.24777 4.1815 5.31473C4.24847 5.375 4.28195 5.44866 4.28195 5.53571ZM11.9962 10.6786V11.3214C11.9962 11.4085 11.9628 11.4855 11.8958 11.5525C11.8355 11.6127 11.7619 11.6429 11.6748 11.6429H11.0319C10.9449 11.6429 10.8679 11.6127 10.8009 11.5525C10.7407 11.4855 10.7105 11.4085 10.7105 11.3214V10.6786C10.7105 10.5915 10.7407 10.5179 10.8009 10.4576C10.8679 10.3906 10.9449 10.3571 11.0319 10.3571H11.6748C11.7619 10.3571 11.8355 10.3906 11.8958 10.4576C11.9628 10.5179 11.9962 10.5915 11.9962 10.6786ZM9.4248 8.10714V8.75C9.4248 8.83705 9.39132 8.91406 9.32436 8.98103C9.26409 9.04129 9.19043 9.07143 9.10338 9.07143H8.46052C8.37347 9.07143 8.29646 9.04129 8.22949 8.98103C8.16922 8.91406 8.13909 8.83705 8.13909 8.75V8.10714C8.13909 8.02009 8.16922 7.94643 8.22949 7.88616C8.29646 7.8192 8.37347 7.78571 8.46052 7.78571H9.10338C9.19043 7.78571 9.26409 7.8192 9.32436 7.88616C9.39132 7.94643 9.4248 8.02009 9.4248 8.10714ZM6.85338 5.53571V6.17857C6.85338 6.26562 6.81989 6.34263 6.75293 6.4096C6.69266 6.46987 6.619 6.5 6.53195 6.5H5.88909C5.80204 6.5 5.72503 6.46987 5.65806 6.4096C5.5978 6.34263 5.56766 6.26562 5.56766 6.17857V5.53571C5.56766 5.44866 5.5978 5.375 5.65806 5.31473C5.72503 5.24777 5.80204 5.21429 5.88909 5.21429H6.53195C6.619 5.21429 6.69266 5.24777 6.75293 5.31473C6.81989 5.375 6.85338 5.44866 6.85338 5.53571ZM4.28195 2.96429V3.60714C4.28195 3.6942 4.24847 3.7712 4.1815 3.83817C4.12123 3.89844 4.04757 3.92857 3.96052 3.92857H3.31766C3.23061 3.92857 3.1536 3.89844 3.08664 3.83817C3.02637 3.7712 2.99623 3.6942 2.99623 3.60714V2.96429C2.99623 2.87723 3.02637 2.80357 3.08664 2.7433C3.1536 2.67634 3.23061 2.64286 3.31766 2.64286H3.96052C4.04757 2.64286 4.12123 2.67634 4.1815 2.7433C4.24847 2.80357 4.28195 2.87723 4.28195 2.96429ZM11.9962 8.10714V8.75C11.9962 8.83705 11.9628 8.91406 11.8958 8.98103C11.8355 9.04129 11.7619 9.07143 11.6748 9.07143H11.0319C10.9449 9.07143 10.8679 9.04129 10.8009 8.98103C10.7407 8.91406 10.7105 8.83705 10.7105 8.75V8.10714C10.7105 8.02009 10.7407 7.94643 10.8009 7.88616C10.8679 7.8192 10.9449 7.78571 11.0319 7.78571H11.6748C11.7619 7.78571 11.8355 7.8192 11.8958 7.88616C11.9628 7.94643 11.9962 8.02009 11.9962 8.10714ZM9.4248 5.53571V6.17857C9.4248 6.26562 9.39132 6.34263 9.32436 6.4096C9.26409 6.46987 9.19043 6.5 9.10338 6.5H8.46052C8.37347 6.5 8.29646 6.46987 8.22949 6.4096C8.16922 6.34263 8.13909 6.26562 8.13909 6.17857V5.53571C8.13909 5.44866 8.16922 5.375 8.22949 5.31473C8.29646 5.24777 8.37347 5.21429 8.46052 5.21429H9.10338C9.19043 5.21429 9.26409 5.24777 9.32436 5.31473C9.39132 5.375 9.4248 5.44866 9.4248 5.53571ZM6.85338 2.96429V3.60714C6.85338 3.6942 6.81989 3.7712 6.75293 3.83817C6.69266 3.89844 6.619 3.92857 6.53195 3.92857H5.88909C5.80204 3.92857 5.72503 3.89844 5.65806 3.83817C5.5978 3.7712 5.56766 3.6942 5.56766 3.60714V2.96429C5.56766 2.87723 5.5978 2.80357 5.65806 2.7433C5.72503 2.67634 5.80204 2.64286 5.88909 2.64286H6.53195C6.619 2.64286 6.69266 2.67634 6.75293 2.7433C6.81989 2.80357 6.85338 2.87723 6.85338 2.96429ZM11.9962 5.53571V6.17857C11.9962 6.26562 11.9628 6.34263 11.8958 6.4096C11.8355 6.46987 11.7619 6.5 11.6748 6.5H11.0319C10.9449 6.5 10.8679 6.46987 10.8009 6.4096C10.7407 6.34263 10.7105 6.26562 10.7105 6.17857V5.53571C10.7105 5.44866 10.7407 5.375 10.8009 5.31473C10.8679 5.24777 10.9449 5.21429 11.0319 5.21429H11.6748C11.7619 5.21429 11.8355 5.24777 11.8958 5.31473C11.9628 5.375 11.9962 5.44866 11.9962 5.53571ZM9.4248 2.96429V3.60714C9.4248 3.6942 9.39132 3.7712 9.32436 3.83817C9.26409 3.89844 9.19043 3.92857 9.10338 3.92857H8.46052C8.37347 3.92857 8.29646 3.89844 8.22949 3.83817C8.16922 3.7712 8.13909 3.6942 8.13909 3.60714V2.96429C8.13909 2.87723 8.16922 2.80357 8.22949 2.7433C8.29646 2.67634 8.37347 2.64286 8.46052 2.64286H9.10338C9.19043 2.64286 9.26409 2.67634 9.32436 2.7433C9.39132 2.80357 9.4248 2.87723 9.4248 2.96429ZM11.9962 2.96429V3.60714C11.9962 3.6942 11.9628 3.7712 11.8958 3.83817C11.8355 3.89844 11.7619 3.92857 11.6748 3.92857H11.0319C10.9449 3.92857 10.8679 3.89844 10.8009 3.83817C10.7407 3.7712 10.7105 3.6942 10.7105 3.60714V2.96429C10.7105 2.87723 10.7407 2.80357 10.8009 2.7433C10.8679 2.67634 10.9449 2.64286 11.0319 2.64286H11.6748C11.7619 2.64286 11.8355 2.67634 11.8958 2.7433C11.9628 2.80357 11.9962 2.87723 11.9962 2.96429ZM9.4248 16.7857H13.2819V1.35714H1.71052V16.7857H5.56766V14.5357C5.56766 14.4487 5.5978 14.375 5.65806 14.3147C5.72503 14.2478 5.80204 14.2143 5.88909 14.2143H9.10338C9.19043 14.2143 9.26409 14.2478 9.32436 14.3147C9.39132 14.375 9.4248 14.4487 9.4248 14.5357V16.7857ZM14.5677 0.714285V17.4286C14.5677 17.6027 14.504 17.7533 14.3768 17.8806C14.2496 18.0078 14.0989 18.0714 13.9248 18.0714H1.06766C0.893555 18.0714 0.742885 18.0078 0.615653 17.8806C0.488421 17.7533 0.424805 17.6027 0.424805 17.4286V0.714285C0.424805 0.540178 0.488421 0.389508 0.615653 0.262276C0.742885 0.135044 0.893555 0.0714273 1.06766 0.0714273H13.9248C14.0989 0.0714273 14.2496 0.135044 14.3768 0.262276C14.504 0.389508 14.5677 0.540178 14.5677 0.714285Z" fill="#303030"/>
</svg>
