<svg width="18" height="15" viewBox="0 0 18 15" fill="none" xmlns="http://www.w3.org/2000/svg">
<path d="M18 5.20312V13.1786C18 13.6205 17.8426 13.9989 17.5279 14.3136C17.2132 14.6283 16.8348 14.7857 16.3929 14.7857H1.60714C1.16518 14.7857 0.78683 14.6283 0.472098 14.3136C0.157366 13.9989 0 13.6205 0 13.1786V5.20312C0.294643 5.53125 0.632813 5.82254 1.01451 6.07701C3.43862 7.72433 5.10268 8.87946 6.0067 9.54241C6.38839 9.82366 6.69643 10.0446 6.9308 10.2054C7.17188 10.3594 7.48996 10.5201 7.88504 10.6875C8.28013 10.8482 8.64844 10.9286 8.98996 10.9286H9H9.01005C9.35156 10.9286 9.71987 10.8482 10.115 10.6875C10.51 10.5201 10.8248 10.3594 11.0592 10.2054C11.3002 10.0446 11.6116 9.82366 11.9933 9.54241C13.1317 8.71875 14.7991 7.56362 16.9955 6.07701C17.3772 5.81585 17.7121 5.52455 18 5.20312ZM18 2.25C18 2.77902 17.8359 3.2846 17.5078 3.76674C17.1797 4.24888 16.7712 4.66071 16.2824 5.00223C13.7645 6.75 12.1975 7.83817 11.5815 8.26674C11.5145 8.31362 11.3705 8.41741 11.1496 8.57812C10.9353 8.73214 10.7545 8.85937 10.6071 8.95982C10.4665 9.05357 10.2924 9.16071 10.0848 9.28125C9.88393 9.40179 9.69308 9.49219 9.51228 9.55246C9.33147 9.61272 9.16406 9.64286 9.01005 9.64286H9H8.98996C8.83594 9.64286 8.66853 9.61272 8.48772 9.55246C8.30692 9.49219 8.11272 9.40179 7.90513 9.28125C7.70424 9.16071 7.53013 9.05357 7.38281 8.95982C7.24219 8.85937 7.06138 8.73214 6.8404 8.57812C6.62612 8.41741 6.48549 8.31362 6.41853 8.26674C5.80915 7.83817 4.93192 7.22879 3.78683 6.43862C2.64174 5.64174 1.95536 5.16295 1.72768 5.00223C1.3125 4.72098 0.920759 4.33594 0.552455 3.8471C0.184152 3.35156 0 2.89286 0 2.47098C0 1.94866 0.137277 1.51339 0.41183 1.16518C0.69308 0.816964 1.09152 0.642857 1.60714 0.642857H16.3929C16.8281 0.642857 17.2031 0.800223 17.5179 1.11495C17.8393 1.42969 18 1.80804 18 2.25Z" fill="#303030"/>
</svg>
