<svg width="15" height="15" viewBox="0 0 15 15" fill="none" xmlns="http://www.w3.org/2000/svg">
<path d="M14.5677 11.5268C14.5677 11.7076 14.5342 11.9453 14.4672 12.24C14.4003 12.5279 14.3299 12.7556 14.2563 12.923C14.1157 13.2578 13.7072 13.6127 13.0308 13.9877C12.4014 14.3292 11.7786 14.5 11.1625 14.5C10.9817 14.5 10.8043 14.49 10.6302 14.4699C10.4561 14.4431 10.2619 14.3996 10.0476 14.3393C9.83998 14.279 9.68262 14.2321 9.57548 14.1987C9.47503 14.1585 9.29088 14.0882 9.02302 13.9877C8.75516 13.8873 8.5911 13.827 8.53083 13.8069C7.87458 13.5725 7.28864 13.2946 6.77302 12.9732C5.92257 12.4442 5.03864 11.721 4.12123 10.8036C3.20382 9.88616 2.48061 9.00223 1.95159 8.15179C1.63016 7.63616 1.35226 7.05022 1.11789 6.39397C1.0978 6.3337 1.03753 6.16964 0.937081 5.90179C0.836635 5.63393 0.766323 5.44978 0.726144 5.34933C0.692662 5.24219 0.645787 5.08482 0.585519 4.87723C0.525251 4.66295 0.481724 4.46875 0.454939 4.29464C0.434849 4.12054 0.424805 3.94308 0.424805 3.76228C0.424805 3.1462 0.595564 2.52344 0.937081 1.89397C1.31208 1.21763 1.66699 0.809151 2.00181 0.668526C2.16922 0.594866 2.3969 0.524553 2.68485 0.457589C2.97949 0.390624 3.21722 0.357142 3.39802 0.357142C3.49177 0.357142 3.56208 0.367187 3.60896 0.387276C3.72949 0.427455 3.90695 0.681919 4.14132 1.15067C4.21498 1.2779 4.31543 1.4587 4.44266 1.69308C4.56989 1.92745 4.68708 2.14174 4.79422 2.33594C4.90137 2.52344 5.00516 2.70089 5.10561 2.8683C5.1257 2.89509 5.18262 2.97879 5.27637 3.11942C5.37681 3.26004 5.45047 3.38058 5.49735 3.48103C5.54422 3.57478 5.56766 3.66853 5.56766 3.76228C5.56766 3.8962 5.47056 4.06362 5.27637 4.26451C5.08887 4.4654 4.88128 4.64955 4.6536 4.81696C4.43262 4.98437 4.22503 5.16183 4.03083 5.34933C3.84333 5.53683 3.74958 5.69085 3.74958 5.81138C3.74958 5.87165 3.76632 5.94866 3.7998 6.04241C3.83329 6.12946 3.86007 6.19643 3.88016 6.2433C3.90695 6.29018 3.95382 6.37054 4.02079 6.48437C4.09445 6.59821 4.13463 6.66183 4.14132 6.67522C4.65025 7.59263 5.23284 8.37946 5.88909 9.03571C6.54534 9.69196 7.33217 10.2746 8.24958 10.7835C8.26297 10.7902 8.32659 10.8304 8.44043 10.904C8.55427 10.971 8.63463 11.0179 8.6815 11.0446C8.72838 11.0647 8.79534 11.0915 8.88239 11.125C8.97614 11.1585 9.05315 11.1752 9.11342 11.1752C9.23396 11.1752 9.38797 11.0815 9.57548 10.894C9.76298 10.6998 9.94043 10.4922 10.1078 10.2712C10.2753 10.0435 10.4594 9.83594 10.6603 9.64844C10.8612 9.45424 11.0286 9.35714 11.1625 9.35714C11.2563 9.35714 11.35 9.38058 11.4438 9.42746C11.5442 9.47433 11.6648 9.54799 11.8054 9.64844C11.946 9.74219 12.0297 9.79911 12.0565 9.8192C12.2239 9.91964 12.4014 10.0234 12.5889 10.1306C12.7831 10.2377 12.9974 10.3549 13.2317 10.4821C13.4661 10.6094 13.6469 10.7098 13.7741 10.7835C14.2429 11.0179 14.4973 11.1953 14.5375 11.3158C14.5576 11.3627 14.5677 11.433 14.5677 11.5268Z" fill="#303030"/>
</svg>
