<svg width="135" height="40" viewBox="0 0 135 40" fill="none" xmlns="http://www.w3.org/2000/svg">
<path d="M130 -0.000488281H5C2.23858 -0.000488281 0 2.23809 0 4.99951V34.9995C0 37.7609 2.23858 39.9995 5 39.9995H130C132.761 39.9995 135 37.7609 135 34.9995V4.99951C135 2.23809 132.761 -0.000488281 130 -0.000488281Z" fill="#303030"/>
<path d="M130 0.799312C131.114 0.800598 132.181 1.24354 132.968 2.03096C133.756 2.81838 134.199 3.88597 134.2 4.99951V34.9995C134.199 36.113 133.756 37.1806 132.968 37.968C132.181 38.7555 131.114 39.1984 130 39.1997H5C3.88645 39.1984 2.81888 38.7555 2.0315 37.9681C1.24412 37.1807 0.801231 36.1131 0.8 34.9995V4.99951C0.801212 3.88596 1.24409 2.81835 2.03148 2.03093C2.81886 1.24351 3.88644 0.800577 5 0.799312H130ZM130 -0.000488281H5C3.67511 0.00338982 2.40559 0.531419 1.46875 1.46826C0.531908 2.4051 0.0038781 3.67462 0 4.99951L0 34.9995C0.0038781 36.3244 0.531908 37.5939 1.46875 38.5308C2.40559 39.4676 3.67511 39.9956 5 39.9995H130C131.325 39.9956 132.594 39.4676 133.531 38.5308C134.468 37.5939 134.996 36.3244 135 34.9995V4.99951C134.996 3.67462 134.468 2.4051 133.531 1.46826C132.594 0.531419 131.325 0.00338982 130 -0.000488281Z" fill="#A6A6A6"/>
<path d="M47.4183 10.2429C47.4365 10.6098 47.3798 10.9766 47.2516 11.3209C47.1235 11.6653 46.9267 11.9799 46.6731 12.2458C46.3889 12.5405 46.0456 12.772 45.6658 12.9249C45.286 13.0779 44.8782 13.149 44.469 13.1335C44.0572 13.1371 43.6488 13.0585 43.2679 12.9021C42.8869 12.7457 42.5411 12.5147 42.2507 12.2228C41.9603 11.9308 41.7312 11.5837 41.5768 11.202C41.4225 10.8202 41.346 10.4114 41.3519 9.99965C41.346 9.58788 41.4225 9.1791 41.5769 8.79732C41.7313 8.41554 41.9604 8.06846 42.2508 7.77647C42.5412 7.48447 42.887 7.25346 43.2679 7.097C43.6488 6.94053 44.0572 6.86178 44.469 6.86535C44.8924 6.86407 45.3115 6.94967 45.7005 7.11685C46.0617 7.26329 46.3833 7.493 46.639 7.78725L46.1116 8.31505C45.9106 8.0785 45.658 7.89129 45.3732 7.76786C45.0884 7.64442 44.779 7.58807 44.469 7.60315C44.1569 7.60154 43.8477 7.66292 43.5599 7.78363C43.2721 7.90435 43.0116 8.0819 42.7941 8.30566C42.5765 8.52942 42.4064 8.79478 42.2938 9.08586C42.1812 9.37694 42.1286 9.68774 42.139 9.99965C42.1315 10.4668 42.263 10.9257 42.5167 11.3181C42.7704 11.7105 43.1349 12.0187 43.564 12.2037C43.9931 12.3886 44.4674 12.442 44.9269 12.357C45.3864 12.272 45.8102 12.0525 46.1448 11.7263C46.4527 11.3945 46.6311 10.9632 46.6477 10.5109H44.469V9.79015H47.3763C47.4038 9.93949 47.4178 10.091 47.4183 10.2429Z" fill="white" stroke="white" stroke-width="0.2" stroke-miterlimit="10"/>
<path d="M52.0278 7.73681H49.2954V9.63911H51.7593V10.3599H49.2954V12.2622H52.0278V12.9995H48.5249V6.99951H52.0278V7.73681Z" fill="white" stroke="white" stroke-width="0.2" stroke-miterlimit="10"/>
<path d="M55.2786 12.9995H54.5071V7.73681H52.8313V6.99951H56.9544V7.73681H55.2786V12.9995Z" fill="white" stroke="white" stroke-width="0.2" stroke-miterlimit="10"/>
<path d="M59.938 12.9995V6.99951H60.7085V12.9995H59.938Z" fill="white" stroke="white" stroke-width="0.2" stroke-miterlimit="10"/>
<path d="M64.1284 12.9995H63.3569V7.73681H61.6812V6.99951H65.8042V7.73681H64.1284V12.9995Z" fill="white" stroke="white" stroke-width="0.2" stroke-miterlimit="10"/>
<path d="M73.6092 12.2241C73.0252 12.8064 72.2341 13.1333 71.4095 13.1333C70.5848 13.1333 69.7938 12.8064 69.2098 12.2241C68.9209 11.9315 68.6937 11.5838 68.5419 11.2016C68.3901 10.8194 68.3167 10.4106 68.326 9.99953C68.3167 9.58842 68.3901 9.17963 68.5419 8.79746C68.6937 8.4153 68.9209 8.06756 69.2098 7.77493C69.4984 7.4862 69.8412 7.25723 70.2185 7.10113C70.5957 6.94504 71.0001 6.86487 71.4083 6.86524C71.8166 6.8656 72.2208 6.94648 72.5978 7.10325C72.9748 7.26001 73.3171 7.48959 73.6053 7.77883C73.8944 8.07069 74.122 8.41765 74.2744 8.79912C74.4269 9.18059 74.5013 9.5888 74.493 9.99953C74.5021 10.4106 74.4285 10.8193 74.2767 11.2015C74.1249 11.5836 73.8979 11.9314 73.6092 12.2241ZM69.7791 11.7217C70.2116 12.1535 70.7978 12.396 71.409 12.396C72.0202 12.396 72.6064 12.1535 73.0389 11.7217C73.2607 11.4947 73.4341 11.225 73.5488 10.929C73.6634 10.633 73.7169 10.3168 73.7059 9.99953C73.7169 9.68229 73.6634 9.36612 73.5488 9.07011C73.4341 8.77411 73.2607 8.50442 73.0389 8.27733C72.6064 7.84554 72.0202 7.60302 71.409 7.60302C70.7978 7.60302 70.2116 7.84554 69.7791 8.27733C69.5576 8.5046 69.3844 8.77434 69.2699 9.07032C69.1555 9.3663 69.1021 9.68238 69.1131 9.99953C69.1021 10.3167 69.1555 10.6328 69.2699 10.9287C69.3844 11.2247 69.5576 11.4945 69.7791 11.7217Z" fill="white" stroke="white" stroke-width="0.2" stroke-miterlimit="10"/>
<path d="M75.5752 12.9995V6.99951H76.5137L79.4297 11.667H79.4629L79.4297 10.5107V6.99951H80.2012V12.9995H79.3965L76.3457 8.10591H76.3125L76.3457 9.26221V12.9995H75.5752Z" fill="white" stroke="white" stroke-width="0.2" stroke-miterlimit="10"/>
<path d="M68.1359 21.751C67.2954 21.7542 66.4746 22.0063 65.7773 22.4756C65.08 22.9449 64.5374 23.6102 64.2179 24.3877C63.8985 25.1651 63.8166 26.0198 63.9825 26.8438C64.1484 27.6677 64.5548 28.4241 65.1503 29.0173C65.7457 29.6105 66.5036 30.014 67.3282 30.1768C68.1528 30.3396 69.0071 30.2544 69.7834 29.932C70.5596 29.6096 71.2229 29.0644 71.6895 28.3654C72.1561 27.6663 72.4052 26.8446 72.4052 26.0041C72.4134 25.4419 72.3085 24.8838 72.0967 24.363C71.8849 23.8422 71.5704 23.3693 71.1721 22.9725C70.7738 22.5757 70.2997 22.2631 69.7781 22.0532C69.2565 21.8434 68.698 21.7406 68.1359 21.751ZM68.1359 28.5818C67.6182 28.6187 67.1015 28.4989 66.6529 28.238C66.2043 27.9771 65.8447 27.5872 65.6208 27.1191C65.3969 26.6509 65.3191 26.1262 65.3976 25.6132C65.4761 25.1002 65.7072 24.6228 66.0609 24.243C66.4145 23.8633 66.8743 23.5988 67.3804 23.484C67.8865 23.3692 68.4154 23.4094 68.8983 23.5994C69.3812 23.7894 69.7957 24.1204 70.0879 24.5493C70.38 24.9782 70.5363 25.4851 70.5363 26.0041C70.552 26.3319 70.5019 26.6596 70.3891 26.9678C70.2763 27.276 70.1029 27.5585 69.8792 27.7987C69.6555 28.0389 69.3861 28.2319 69.0867 28.3664C68.7873 28.5009 68.464 28.5741 68.1359 28.5818ZM58.8225 21.751C57.982 21.7541 57.1612 22.0063 56.4639 22.4755C55.7666 22.9448 55.2239 23.6102 54.9045 24.3876C54.585 25.1651 54.5031 26.0197 54.669 26.8437C54.8349 27.6677 55.2413 28.424 55.8367 29.0173C56.4322 29.6105 57.1901 30.0139 58.0147 30.1768C58.8393 30.3396 59.6936 30.2544 60.4698 29.932C61.2461 29.6096 61.9094 29.0645 62.376 28.3654C62.8426 27.6663 63.0917 26.8446 63.0917 26.0041C63.0999 25.4419 62.995 24.8838 62.7832 24.363C62.5714 23.8422 62.257 23.3693 61.8586 22.9725C61.4603 22.5757 60.9863 22.2631 60.4647 22.0532C59.9431 21.8434 59.3846 21.7406 58.8225 21.751ZM58.8225 28.5818C58.3048 28.6187 57.7881 28.4989 57.3395 28.238C56.8909 27.9771 56.5313 27.5872 56.3074 27.1191C56.0835 26.6509 56.0057 26.1262 56.0842 25.6132C56.1627 25.1002 56.3938 24.6228 56.7475 24.243C57.1011 23.8633 57.5609 23.5988 58.067 23.484C58.5731 23.3692 59.102 23.4094 59.5849 23.5994C60.0678 23.7894 60.4823 24.1204 60.7745 24.5493C61.0666 24.9782 61.2229 25.4851 61.2229 26.0041C61.2386 26.3319 61.1886 26.6596 61.0757 26.9678C60.9629 27.276 60.7895 27.5585 60.5658 27.7987C60.3422 28.0389 60.0727 28.232 59.7733 28.3664C59.4739 28.5009 59.1506 28.5741 58.8225 28.5818ZM47.7437 23.056V24.8603H52.0614C51.9991 25.7066 51.6528 26.507 51.0786 27.1319C50.6459 27.5729 50.1256 27.9183 49.5511 28.1459C48.9767 28.3734 48.361 28.478 47.7437 28.4529C46.4816 28.4358 45.2771 27.9225 44.3907 27.024C43.5043 26.1255 43.0073 24.9141 43.0073 23.652C43.0073 22.3898 43.5043 21.1785 44.3907 20.28C45.2771 19.3815 46.4816 18.8682 47.7437 18.8511C48.9559 18.8352 50.1254 19.2984 50.9981 20.1399L52.2708 18.8672C51.6753 18.2777 50.9682 17.813 50.1908 17.5004C49.4134 17.1878 48.5814 17.0335 47.7437 17.0467C46.8682 17.0339 45.9988 17.1954 45.1863 17.5216C44.3737 17.8478 43.6341 18.3323 43.0105 18.9469C42.3868 19.5616 41.8916 20.294 41.5536 21.1018C41.2156 21.9095 41.0415 22.7764 41.0415 23.652C41.0415 24.5276 41.2156 25.3944 41.5536 26.2022C41.8916 27.0099 42.3868 27.7424 43.0105 28.357C43.6341 28.9716 44.3737 29.4561 45.1863 29.7824C45.9988 30.1086 46.8682 30.27 47.7437 30.2573C48.5991 30.2927 49.4524 30.1459 50.2467 29.8265C51.0411 29.5071 51.7585 29.0224 52.3513 28.4046C53.4037 27.2558 53.9646 25.7408 53.9141 24.1837C53.9182 23.8055 53.8858 23.4279 53.8173 23.056H47.7437ZM93.052 24.4575C92.7964 23.6871 92.3098 23.0141 91.6584 22.5299C91.007 22.0457 90.2223 21.7737 89.411 21.751C88.8645 21.7544 88.3244 21.8685 87.8233 22.0866C87.3222 22.3046 86.8705 22.622 86.4956 23.0195C86.1206 23.4171 85.8302 23.8865 85.6418 24.3995C85.4534 24.9125 85.371 25.4583 85.3996 26.0041C85.3873 26.5633 85.4878 27.1192 85.6951 27.6386C85.9025 28.1581 86.2124 28.6304 86.6064 29.0274C87.0004 29.4244 87.4703 29.738 87.9882 29.9493C88.5061 30.1606 89.0612 30.2653 89.6205 30.2573C90.3211 30.2612 91.0118 30.091 91.6304 29.762C92.249 29.433 92.7762 28.9555 93.1647 28.3724L91.7148 27.4058C91.4976 27.7665 91.1903 28.0646 90.8231 28.2707C90.456 28.4769 90.0415 28.5841 89.6205 28.5818C89.1872 28.5983 88.7589 28.4843 88.3912 28.2545C88.0234 28.0247 87.7333 27.6897 87.5583 27.293L93.2454 24.9409L93.052 24.4575ZM87.2523 25.8753C87.2322 25.5657 87.2742 25.2553 87.3755 24.9621C87.4769 24.6689 87.6358 24.399 87.8428 24.1679C88.0498 23.9369 88.3008 23.7495 88.5812 23.6166C88.8615 23.4838 89.1655 23.4082 89.4754 23.3943C89.7981 23.373 90.1198 23.4473 90.4006 23.6077C90.6814 23.7681 90.9087 24.0077 91.0543 24.2965L87.2523 25.8753ZM82.6285 29.9995H84.4973V17.4979H82.6285V29.9995ZM79.5675 22.7015H79.5031C79.2189 22.3928 78.8722 22.1483 78.486 21.9844C78.0998 21.8205 77.6831 21.7409 77.2637 21.751C76.167 21.7976 75.1307 22.2661 74.3712 23.0587C73.6117 23.8512 73.1877 24.9064 73.1877 26.0041C73.1877 27.1018 73.6117 28.1571 74.3712 28.9496C75.1307 29.7421 76.167 30.2106 77.2637 30.2573C77.6847 30.2685 78.1032 30.1878 78.4899 30.0209C78.8767 29.854 79.2224 29.6048 79.5031 29.2907H79.5675V29.9029C79.5675 31.5301 78.6976 32.4 77.2959 32.4C76.8287 32.3888 76.3755 32.2388 75.9939 31.9691C75.6124 31.6994 75.3197 31.3222 75.1533 30.8856L73.5261 31.5623C73.8328 32.3089 74.3554 32.947 75.027 33.3948C75.6987 33.8425 76.4887 34.0796 77.2959 34.0755C79.487 34.0755 81.3397 32.7867 81.3397 29.6451V22.0087H79.5675V22.7015ZM77.4249 28.5818C76.7789 28.527 76.1771 28.2317 75.7385 27.7544C75.2999 27.277 75.0565 26.6524 75.0565 26.0041C75.0565 25.3559 75.2999 24.7312 75.7385 24.2539C76.1771 23.7765 76.7789 23.4812 77.4249 23.4265C77.7462 23.4422 78.0611 23.5224 78.3508 23.6624C78.6405 23.8024 78.899 23.9993 79.111 24.2413C79.323 24.4833 79.4841 24.7656 79.5846 25.0712C79.6852 25.3768 79.7232 25.6996 79.6964 26.0202C79.7215 26.3388 79.6821 26.6592 79.5805 26.9623C79.479 27.2653 79.3173 27.5448 79.1053 27.7839C78.8932 28.0231 78.6351 28.217 78.3464 28.3541C78.0576 28.4912 77.7442 28.5686 77.4249 28.5818ZM101.806 17.4981H97.3347V29.9995H99.2004V25.2631H101.806C102.334 25.292 102.862 25.213 103.358 25.031C103.854 24.849 104.308 24.5677 104.692 24.2043C105.076 23.8409 105.381 23.4031 105.59 22.9176C105.799 22.4321 105.907 21.9091 105.907 21.3806C105.907 20.852 105.799 20.329 105.59 19.8435C105.381 19.358 105.076 18.9202 104.692 18.5569C104.308 18.1935 103.854 17.9122 103.358 17.7302C102.862 17.5481 102.334 17.4691 101.806 17.4981ZM101.854 23.5233H99.2004V19.238H101.854C102.139 19.2321 102.423 19.2831 102.688 19.3881C102.953 19.4932 103.194 19.65 103.398 19.8496C103.602 20.0491 103.764 20.2873 103.874 20.5502C103.985 20.8131 104.042 21.0954 104.042 21.3806C104.042 21.6658 103.985 21.9481 103.874 22.211C103.764 22.4739 103.602 22.7121 103.398 22.9116C103.194 23.1112 102.953 23.2681 102.688 23.3731C102.423 23.4781 102.139 23.5292 101.854 23.5233ZM113.386 21.728C112.705 21.6882 112.027 21.8481 111.436 22.1881C110.844 22.5281 110.365 23.0334 110.056 23.6419L111.713 24.3335C111.877 24.0314 112.126 23.7839 112.429 23.621C112.732 23.4582 113.075 23.3872 113.418 23.4167C113.891 23.3705 114.364 23.5138 114.731 23.8153C115.099 24.1168 115.332 24.5518 115.38 25.025V25.1537C114.781 24.8353 114.112 24.6696 113.434 24.6712C111.649 24.6712 109.831 25.6523 109.831 27.4858C109.849 27.8722 109.944 28.2512 110.11 28.6002C110.277 28.9493 110.512 29.2614 110.801 29.5179C111.091 29.7744 111.429 29.9701 111.795 30.0935C112.162 30.2168 112.55 30.2653 112.935 30.236C113.405 30.2636 113.874 30.1648 114.292 29.9499C114.711 29.7349 115.064 29.4116 115.316 29.0137H115.38V29.9787H117.181V25.1859C117.181 22.9664 115.525 21.728 113.386 21.728ZM113.161 28.5794C112.549 28.5794 111.697 28.2739 111.697 27.5179C111.697 26.553 112.758 26.183 113.675 26.183C114.271 26.1671 114.86 26.3116 115.38 26.6012C115.312 27.1434 115.049 27.6425 114.641 28.0062C114.233 28.3698 113.707 28.5734 113.161 28.5794ZM123.743 22.0014L121.604 27.4214H121.54L119.32 22.0014H117.31L120.639 29.5766L118.741 33.7904H120.687L125.818 22.0014H123.743ZM106.936 29.9995H108.802V17.4981H106.936V29.9995Z" fill="white"/>
<path d="M10.4352 7.53744C10.1073 7.92952 9.9417 8.43214 9.97238 8.94234V31.0584C9.94161 31.5687 10.1072 32.0713 10.4352 32.4633L10.5092 32.5354L22.8982 20.1465V19.8542L10.5092 7.46484L10.4352 7.53744Z" fill="url(#paint0_linear)"/>
<path d="M27.0276 24.2782L22.8982 20.1468V19.8545L27.0286 15.7241L27.1217 15.7772L32.0145 18.5573C33.4121 19.3513 33.4121 20.6505 32.0145 21.445L27.1217 24.2251L27.0276 24.2782Z" fill="url(#paint1_linear)"/>
<path d="M27.1218 24.2244L22.8983 20.0005L10.4353 32.4634C10.7201 32.7145 11.0837 32.8582 11.4633 32.8694C11.8428 32.8806 12.2143 32.7587 12.5134 32.5248L27.1218 24.2244Z" fill="url(#paint2_linear)"/>
<path d="M27.1218 15.7766L12.5134 7.47617C12.2143 7.24226 11.8428 7.12036 11.4633 7.13157C11.0837 7.14278 10.7201 7.28641 10.4353 7.53757L22.8983 20.0006L27.1218 15.7766Z" fill="url(#paint3_linear)"/>
<path opacity="0.2" d="M27.0287 24.1313L12.5134 32.3786C12.2258 32.5976 11.8748 32.717 11.5134 32.719C11.152 32.7209 10.7997 32.6052 10.5098 32.3893L10.4353 32.4638L10.5093 32.5359L10.5098 32.5354C10.7997 32.7514 11.1519 32.8672 11.5134 32.8652C11.8749 32.8633 12.2259 32.7438 12.5134 32.5247L27.1218 24.2243L27.0287 24.1313Z" fill="#303030"/>
<path opacity="0.12" d="M10.4354 32.318C10.1075 31.9259 9.94195 31.4233 9.97261 30.9131V31.0592C9.94194 31.5694 10.1075 32.072 10.4354 32.4641L10.5099 32.3896L10.4354 32.318Z" fill="#303030"/>
<path opacity="0.12" d="M32.0147 21.2983L27.0288 24.1315L27.1219 24.2245L32.0147 21.4444C32.3025 21.3195 32.5516 21.1197 32.736 20.8658C32.9203 20.612 33.0333 20.3133 33.063 20.001C33.0011 20.2838 32.8742 20.5484 32.6922 20.7735C32.5102 20.9987 32.2783 21.1784 32.0147 21.2983Z" fill="#303030"/>
<path opacity="0.25" d="M12.5133 7.62286L32.0145 18.7029C32.2782 18.8227 32.5102 19.0024 32.6922 19.2277C32.8742 19.453 33.0011 19.7177 33.0628 20.0007C33.0333 19.6882 32.9204 19.3894 32.736 19.1354C32.5516 18.8814 32.3025 18.6816 32.0145 18.5568L12.5133 7.47675C11.1157 6.68265 9.97241 7.34225 9.97241 8.94305V9.08915C9.97241 7.48845 11.1157 6.82885 12.5133 7.62286Z" fill="white"/>
<defs>
<linearGradient id="paint0_linear" x1="21.7995" y1="8.70915" x2="5.01711" y2="25.4916" gradientUnits="userSpaceOnUse">
<stop stop-color="#00A0FF"/>
<stop offset="0.00657" stop-color="#00A1FF"/>
<stop offset="0.2601" stop-color="#00BEFF"/>
<stop offset="0.5122" stop-color="#00D2FF"/>
<stop offset="0.7604" stop-color="#00DFFF"/>
<stop offset="1" stop-color="#00E3FF"/>
</linearGradient>
<linearGradient id="paint1_linear" x1="33.8342" y1="20.0012" x2="9.63727" y2="20.0012" gradientUnits="userSpaceOnUse">
<stop stop-color="#FFE000"/>
<stop offset="0.4087" stop-color="#FFBD00"/>
<stop offset="0.7754" stop-color="#FFA500"/>
<stop offset="1" stop-color="#FF9C00"/>
</linearGradient>
<linearGradient id="paint2_linear" x1="24.8269" y1="22.2956" x2="2.06857" y2="45.0539" gradientUnits="userSpaceOnUse">
<stop stop-color="#FF3A44"/>
<stop offset="1" stop-color="#C31162"/>
</linearGradient>
<linearGradient id="paint3_linear" x1="7.29723" y1="0.175749" x2="17.4598" y2="10.3383" gradientUnits="userSpaceOnUse">
<stop stop-color="#32A071"/>
<stop offset="0.0685" stop-color="#2DA771"/>
<stop offset="0.4762" stop-color="#15CF74"/>
<stop offset="0.8009" stop-color="#06E775"/>
<stop offset="1" stop-color="#00F076"/>
</linearGradient>
</defs>
</svg>
