<svg width="18" height="18" viewBox="0 0 18 18" fill="none" xmlns="http://www.w3.org/2000/svg">
<path fill-rule="evenodd" clip-rule="evenodd" d="M9.00069 0.773438C6.68315 0.773438 6.3923 0.783571 5.48207 0.824994C4.57362 0.866594 3.95352 1.01042 3.41094 1.22144C2.84969 1.4394 2.37359 1.73096 1.89928 2.20545C1.42461 2.67977 1.13305 3.15586 0.91438 3.71693C0.702822 4.2597 0.55882 4.87997 0.517931 5.78807C0.47722 6.6983 0.466553 6.98932 0.466553 9.30686C0.466553 11.6244 0.476864 11.9144 0.518109 12.8246C0.559887 13.733 0.703711 14.3531 0.914557 14.8957C1.13269 15.457 1.42425 15.9331 1.89875 16.4074C2.37288 16.882 2.84898 17.1743 3.40987 17.3923C3.95281 17.6033 4.57308 17.7471 5.48136 17.7887C6.39159 17.8301 6.68226 17.8403 8.99962 17.8403C11.3173 17.8403 11.6073 17.8301 12.5175 17.7887C13.426 17.7471 14.0468 17.6033 14.5897 17.3923C15.1508 17.1743 15.6262 16.882 16.1003 16.4074C16.575 15.9331 16.8665 15.457 17.0852 14.8959C17.295 14.3531 17.439 13.7329 17.4817 12.8248C17.5226 11.9145 17.5332 11.6244 17.5332 9.30686C17.5332 6.98932 17.5226 6.69848 17.4817 5.78824C17.439 4.87979 17.295 4.2597 17.0852 3.71711C16.8665 3.15586 16.575 2.67977 16.1003 2.20545C15.6256 1.73078 15.151 1.43922 14.5892 1.22144C14.0452 1.01042 13.4247 0.866594 12.5163 0.824994C11.606 0.783571 11.3163 0.773438 8.99802 0.773438H9.00069ZM8.23513 2.31121C8.46233 2.31085 8.71585 2.31121 9.00065 2.31121C11.2791 2.31121 11.5491 2.31939 12.4489 2.36027C13.2809 2.39832 13.7324 2.53734 14.0332 2.65414C14.4315 2.80881 14.7154 2.9937 15.0139 3.29237C15.3125 3.59104 15.4974 3.87549 15.6525 4.27372C15.7693 4.57416 15.9085 5.02572 15.9463 5.85773C15.9872 6.7573 15.9961 7.02752 15.9961 9.30488C15.9961 11.5822 15.9872 11.8525 15.9463 12.752C15.9083 13.584 15.7693 14.0356 15.6525 14.336C15.4978 14.7343 15.3125 15.0178 15.0139 15.3163C14.7152 15.615 14.4316 15.7999 14.0332 15.9545C13.7328 16.0719 13.2809 16.2106 12.4489 16.2486C11.5493 16.2895 11.2791 16.2984 9.00065 16.2984C6.72205 16.2984 6.452 16.2895 5.55244 16.2486C4.72043 16.2102 4.26887 16.0712 3.96789 15.9544C3.56966 15.7997 3.28521 15.6148 2.98654 15.3161C2.68787 15.0175 2.50298 14.7337 2.34796 14.3353C2.23116 14.0349 2.09196 13.5833 2.05409 12.7513C2.0132 11.8518 2.00502 11.5815 2.00502 9.30275C2.00502 7.02397 2.0132 6.75517 2.05409 5.8556C2.09213 5.02359 2.23116 4.57203 2.34796 4.27123C2.50263 3.873 2.68787 3.58855 2.98654 3.28988C3.28521 2.99121 3.56966 2.80632 3.96789 2.6513C4.26869 2.53397 4.72043 2.3953 5.55244 2.35707C6.33964 2.32152 6.64471 2.31085 8.23513 2.30907V2.31121ZM13.5557 3.72811C12.9904 3.72811 12.5317 4.18625 12.5317 4.75177C12.5317 5.31711 12.9904 5.77578 13.5557 5.77578C14.1211 5.77578 14.5797 5.31711 14.5797 4.75177C14.5797 4.18643 14.1211 3.72811 13.5557 3.72811ZM9.0007 4.92457C6.58059 4.92457 4.61843 6.88672 4.61843 9.30684C4.61843 11.7269 6.58059 13.6882 9.0007 13.6882C11.4208 13.6882 13.3823 11.7269 13.3823 9.30684C13.3823 6.88672 11.4208 4.92457 9.0007 4.92457ZM9.00067 6.46236C10.5715 6.46236 11.8451 7.7358 11.8451 9.30684C11.8451 10.8777 10.5715 12.1513 9.00067 12.1513C7.42963 12.1513 6.15619 10.8777 6.15619 9.30684C6.15619 7.7358 7.42963 6.46236 9.00067 6.46236Z" fill="white"/>
</svg>
