<svg width="57" height="120" viewBox="0 0 57 120" fill="none" xmlns="http://www.w3.org/2000/svg">
<path opacity="0.1" fill-rule="evenodd" clip-rule="evenodd" d="M25.4356 1.62414H33.3524C46.4691 1.62414 57.1024 12.2571 57.1024 25.3741V33.2908C57.1024 46.4073 46.4691 57.0407 33.3524 57.0407H25.4356C12.3189 57.0407 1.68566 46.4073 1.68566 33.2908V25.3741C1.68566 12.2571 12.3189 1.62414 25.4356 1.62414Z" fill="#FD900C"/>
<path d="M37.12 23.71L34.29 20.88C33.7279 20.3172 32.9654 20.0007 32.17 20H25.83C25.0346 20.0007 24.2721 20.3172 23.71 20.88L20.88 23.71C20.3172 24.2721 20.0007 25.0346 20 25.83V35C20 35.7956 20.3161 36.5587 20.8787 37.1213C21.4413 37.6839 22.2044 38 23 38H35C35.7956 38 36.5587 37.6839 37.1213 37.1213C37.6839 36.5587 38 35.7956 38 35V25.83C37.9993 25.0346 37.6828 24.2721 37.12 23.71ZM25.12 22.29C25.3116 22.1073 25.5652 22.0037 25.83 22H32.17C32.4348 22.0037 32.6884 22.1073 32.88 22.29L34.59 24H23.41L25.12 22.29ZM35 36H23C22.7348 36 22.4804 35.8946 22.2929 35.7071C22.1054 35.5196 22 35.2652 22 35V26H36V35C36 35.2652 35.8946 35.5196 35.7071 35.7071C35.5196 35.8946 35.2652 36 35 36Z" fill="#E17F08"/>
<path d="M32 28C31.7348 28 31.4804 28.1054 31.2929 28.2929C31.1054 28.4804 31 28.7348 31 29C31 29.5304 30.7893 30.0391 30.4142 30.4142C30.0391 30.7893 29.5304 31 29 31C28.4696 31 27.9609 30.7893 27.5858 30.4142C27.2107 30.0391 27 29.5304 27 29C27 28.7348 26.8946 28.4804 26.7071 28.2929C26.5196 28.1054 26.2652 28 26 28C25.7348 28 25.4804 28.1054 25.2929 28.2929C25.1054 28.4804 25 28.7348 25 29C25 30.0609 25.4214 31.0783 26.1716 31.8284C26.9217 32.5786 27.9391 33 29 33C30.0609 33 31.0783 32.5786 31.8284 31.8284C32.5786 31.0783 33 30.0609 33 29C33 28.7348 32.8946 28.4804 32.7071 28.2929C32.5196 28.1054 32.2652 28 32 28Z" fill="#E17F08"/>
</svg>
