<svg width="764" height="268" viewBox="0 0 764 268" fill="none" xmlns="http://www.w3.org/2000/svg">
<path d="M339.08 157.292H240.227V240.996H350.985L339.08 157.292Z" fill="#DB6161"/>
<path d="M334.753 160.157H222.715V240.997H346.37L334.753 160.157Z" fill="#AAACAE"/>
<path d="M310.25 210.525H317.225V225.759H310.25V210.525Z" fill="#D57912"/>
<path d="M179.295 246.839H146.761C145.971 246.839 145.323 246.192 145.323 245.4V232.572C145.323 231.779 145.971 231.132 146.761 231.132H179.295C180.085 231.132 180.732 231.779 180.732 232.572V245.4C180.732 246.192 180.085 246.839 179.295 246.839Z" fill="#B65615"/>
<path d="M270.483 252.026C270.483 244.185 276.836 237.832 284.677 237.832C292.515 237.832 298.871 244.185 298.871 252.026C298.871 259.864 292.515 266.22 284.677 266.22C276.836 266.22 270.483 259.864 270.483 252.026Z" fill="#373535"/>
<path d="M318.212 252.026C318.212 244.185 324.568 237.832 332.406 237.832C340.244 237.832 346.599 244.185 346.599 252.026C346.599 259.864 340.244 266.22 332.406 266.22C324.568 266.22 318.212 259.864 318.212 252.026Z" fill="#373535"/>
<path d="M150.16 252.026C150.16 244.185 156.515 237.832 164.354 237.832C172.193 237.832 178.547 244.185 178.547 252.026C178.547 259.864 172.193 266.22 164.354 266.22C156.515 266.22 150.16 259.864 150.16 252.026Z" fill="#373535"/>
<path d="M157.191 252.027C157.191 248.071 160.398 244.862 164.355 244.862C168.31 244.862 171.518 248.071 171.518 252.027C171.518 255.982 168.31 259.189 164.355 259.189C160.398 259.189 157.191 255.982 157.191 252.027Z" fill="#D36E2A"/>
<path d="M157.191 252.027C157.191 248.071 160.398 244.862 164.355 244.862C168.31 244.862 171.518 248.071 171.518 252.027C171.518 255.982 168.31 259.189 164.355 259.189C160.398 259.189 157.191 255.982 157.191 252.027Z" fill="#F59040"/>
<path d="M169.123 246.681C169.526 247.576 169.752 248.568 169.752 249.611C169.752 253.57 166.545 256.776 162.588 256.776C160.756 256.776 159.086 256.087 157.82 254.958C158.941 257.451 161.445 259.188 164.356 259.188C168.312 259.188 171.52 255.981 171.52 252.025C171.52 249.899 170.594 247.992 169.124 246.681L169.123 246.681Z" fill="#D36E2A"/>
<path d="M162.133 252.026C162.133 250.798 163.127 249.805 164.354 249.805C165.581 249.805 166.575 250.798 166.575 252.026C166.575 253.252 165.581 254.246 164.354 254.246C163.127 254.246 162.133 253.252 162.133 252.026Z" fill="#B65615"/>
<path d="M159.713 255.831C159.713 255.356 160.098 254.971 160.573 254.971C161.048 254.971 161.432 255.356 161.432 255.831C161.432 256.307 161.048 256.692 160.573 256.692C160.098 256.692 159.713 256.307 159.713 255.831Z" fill="#B65615"/>
<path d="M158.714 249.447C158.714 248.971 159.099 248.586 159.573 248.586C160.048 248.586 160.433 248.971 160.433 249.447C160.433 249.92 160.048 250.307 159.573 250.307C159.099 250.307 158.714 249.92 158.714 249.447Z" fill="#B65615"/>
<path d="M168.168 249.447C168.168 248.971 168.553 248.586 169.027 248.586C169.503 248.586 169.888 248.971 169.888 249.447C169.888 249.92 169.503 250.307 169.027 250.307C168.553 250.307 168.168 249.92 168.168 249.447Z" fill="#B65615"/>
<path d="M167.453 255.831C167.453 255.356 167.838 254.971 168.313 254.971C168.787 254.971 169.172 255.356 169.172 255.831C169.172 256.307 168.787 256.692 168.313 256.692C167.838 256.692 167.453 256.307 167.453 255.831Z" fill="#B65615"/>
<path d="M163.494 246.551C163.494 246.077 163.878 245.692 164.353 245.692C164.828 245.692 165.213 246.077 165.213 246.551C165.213 247.026 164.828 247.411 164.353 247.411C163.878 247.411 163.494 247.026 163.494 246.551Z" fill="#B65615"/>
<path d="M277.25 252.027C277.25 248.071 280.457 244.862 284.412 244.862C288.368 244.862 291.575 248.071 291.575 252.027C291.575 255.982 288.368 259.189 284.412 259.189C280.457 259.189 277.25 255.982 277.25 252.027Z" fill="#D36E2A"/>
<path d="M277.25 252.027C277.25 248.071 280.457 244.862 284.412 244.862C288.368 244.862 291.575 248.071 291.575 252.027C291.575 255.982 288.368 259.189 284.412 259.189C280.457 259.189 277.25 255.982 277.25 252.027Z" fill="#D36E2A"/>
<path d="M282.192 252.026C282.192 250.798 283.187 249.805 284.412 249.805C285.638 249.805 286.633 250.798 286.633 252.026C286.633 253.252 285.638 254.246 284.412 254.246C283.187 254.246 282.192 253.252 282.192 252.026Z" fill="#B65615"/>
<path d="M279.775 255.831C279.775 255.356 280.16 254.971 280.633 254.971C281.109 254.971 281.494 255.356 281.494 255.831C281.494 256.307 281.109 256.692 280.633 256.692C280.16 256.692 279.775 256.307 279.775 255.831Z" fill="#B65615"/>
<path d="M279.451 249.447C279.451 248.971 279.836 248.586 280.309 248.586C280.784 248.586 281.169 248.971 281.169 249.447C281.169 249.92 280.784 250.307 280.309 250.307C279.836 250.307 279.451 249.92 279.451 249.447Z" fill="#B65615"/>
<path d="M287.512 255.831C287.512 255.356 287.896 254.971 288.372 254.971C288.845 254.971 289.23 255.356 289.23 255.831C289.23 256.307 288.845 256.692 288.372 256.692C287.896 256.692 287.512 256.307 287.512 255.831Z" fill="#B65615"/>
<path d="M276.972 246.551C276.972 246.077 277.357 245.692 277.833 245.692C278.305 245.692 278.69 246.077 278.69 246.551C278.69 247.026 278.305 247.411 277.833 247.411C277.357 247.411 276.972 247.026 276.972 246.551Z" fill="#B65615"/>
<path d="M190.489 252.026C190.489 244.185 196.844 237.832 204.683 237.832C212.522 237.832 218.877 244.185 218.877 252.026C218.877 259.864 212.522 266.22 204.683 266.22C196.844 266.22 190.489 259.864 190.489 252.026Z" fill="#373535"/>
<path d="M164.195 175.385C164.195 175.385 171.897 163.768 180.8 163.671L180.006 176.241L164.195 175.385Z" fill="#858789"/>
<path d="M209.568 228.458H147.925L153.055 186.819C153.889 180.054 159.638 174.969 166.458 174.969H209.567V228.458H209.568Z" fill="#858789"/>
<path d="M173.735 203.006H156.449L158.739 186.563C159.21 183.18 162.106 180.658 165.524 180.658H174.27L173.735 203.006Z" fill="#373535"/>
<path d="M172.459 201.768H161.078C159.361 201.768 158.035 200.254 158.262 198.553L159.773 187.178C160.171 184.174 162.621 181.937 165.513 181.937H172.912L172.46 201.769L172.459 201.768Z" fill="#DCE7F9"/>
<path d="M293.409 240.996H174.845L180.134 157.292H286.404L293.409 240.996Z" fill="#606163"/>
<path d="M288.768 237.821H179.198L184.085 160.466H282.292L288.768 237.821Z" fill="#373535"/>
<path d="M185.537 228.459H147.924C144.612 228.679 144.292 230.317 144.292 230.317L141.076 245.874C141.076 246.404 141.565 246.84 142.162 246.84H151.619C152.217 246.84 152.647 246.401 152.902 245.847C152.902 245.847 154.357 244.049 155.333 243.405C157.778 241.795 160.432 240.737 164.353 240.737C169.174 240.737 173.433 242.271 175.999 244.614H185.537C186.688 244.614 187.63 244.015 187.63 243.28V229.793C187.63 229.06 186.688 228.459 185.537 228.459Z" fill="#606163"/>
<path d="M303.798 258.995H291.878C291.604 257.553 291.086 256.278 290.385 255.158C286.779 249.381 278.354 247.617 273.551 247.075C271.448 246.838 270.04 246.838 270.04 246.838H290.53C295.891 247.565 299.183 250.486 301.143 253.285C303.195 256.209 303.797 258.994 303.797 258.994L303.798 258.995Z" fill="#D15050"/>
<path d="M350.983 258.996H339.063C338.749 257.354 338.123 255.929 337.27 254.7C331.826 246.851 317.225 246.839 317.225 246.839H337.717C342.198 247.447 345.234 249.59 347.254 251.913C350.175 255.268 350.982 258.996 350.982 258.996H350.983Z" fill="#84726B"/>
<path d="M301.145 253.286C301.145 253.286 293.298 251.629 290.385 255.158C286.779 249.381 278.354 247.617 273.552 247.075C273.455 246.996 273.358 246.916 273.264 246.838H290.53C295.892 247.565 299.183 250.486 301.144 253.285L301.145 253.286Z" fill="#A03C37"/>
<path d="M347.254 251.913C347.254 251.913 340.693 251.768 337.27 254.7C331.826 246.851 317.225 246.839 317.225 246.839H337.717C342.198 247.447 345.234 249.59 347.254 251.913H347.254Z" fill="#84726B"/>
<path d="M177.533 249.114H352.332C353.21 249.114 353.928 248.396 353.928 247.518V242.593C353.928 241.715 353.21 240.997 352.332 240.997H177.533C176.655 240.997 175.937 241.715 175.937 242.593V247.518C175.937 248.396 176.655 249.114 177.533 249.114Z" fill="#4C4B4D"/>
<path d="M217.339 261.016H185.006C184.16 261.016 183.468 260.323 183.468 259.476V244.573C183.468 243.727 184.16 243.034 185.006 243.034H217.339C218.184 243.034 218.877 243.727 218.877 244.573V259.476C218.877 260.323 218.184 261.016 217.339 261.016Z" fill="#4C4B4D"/>
<path d="M288.913 237.821H179.344L184.231 160.466H203.369C209.36 178.134 229.626 220.029 287.688 223.167L288.914 237.821H288.913Z" fill="#4C4B4D"/>
<path d="M149.045 194.948C149.045 194.948 147.503 203.228 147.58 204.58C147.656 205.928 148.931 206.589 149.9 206.589L149.045 194.948Z" fill="#373535"/>
<path d="M153.726 206.589H149.98C149.433 206.589 148.984 206.139 148.984 205.592V195.251C148.984 194.705 149.432 194.257 149.98 194.257H153.726C154.273 194.257 154.722 194.704 154.722 195.251V205.592C154.722 206.139 154.274 206.589 153.726 206.589Z" fill="#606163"/>
<path d="M153.436 205.987H150.47C150.003 205.987 149.62 205.605 149.62 205.138V195.798C149.62 195.331 150.003 194.948 150.47 194.948H153.436C153.903 194.948 154.286 195.331 154.286 195.798V205.138C154.286 205.605 153.903 205.987 153.436 205.987Z" fill="#DCE7F9"/>
<path d="M151.854 194.481C151.749 194.481 151.663 194.382 151.663 194.256V190.776L151.665 190.747C151.667 190.727 151.904 188.746 153.989 188.809C155.895 188.869 156.717 188.812 156.725 188.809C156.83 188.803 156.921 188.897 156.928 189.02C156.935 189.146 156.854 189.251 156.749 189.26C156.715 189.263 155.903 189.32 153.979 189.26C152.299 189.209 152.067 190.631 152.046 190.791V194.257C152.046 194.382 151.961 194.482 151.855 194.482L151.854 194.481Z" fill="#373535"/>
<path d="M172.133 208.364H168.645C168.157 208.364 167.757 207.965 167.757 207.475C167.757 206.988 168.157 206.589 168.645 206.589H172.133C172.621 206.589 173.021 206.988 173.021 207.475C173.021 207.965 172.621 208.364 172.133 208.364Z" fill="#373535"/>
<path d="M356.201 143.848C332.41 143.848 313.129 124.643 313.129 100.853C313.129 95.0289 314.295 89.5016 316.404 84.4068C322.879 68.7658 338.23 57.7817 356.201 57.7817C379.992 57.7817 399.27 77.0604 399.27 100.853C399.27 121.442 384.865 138.54 365.586 142.756C362.602 143.486 359.401 143.848 356.201 143.848ZM356.201 9.68844C334.229 9.68844 314.004 17.4003 298.142 30.2787C277.333 47.2307 264.091 72.9862 264.091 101.796C264.091 152.655 356.201 265.713 356.201 265.713C356.201 265.713 398.033 214.35 425.244 165.312C438.486 141.596 448.308 118.384 448.308 101.795C448.308 50.9422 407.057 9.68774 356.201 9.68774V9.68844Z" fill="#00A85A"/>
<path d="M425.24 165.311C398.029 214.349 356.198 265.712 356.198 265.712C356.198 265.712 264.088 152.654 264.088 101.795C264.088 72.9853 277.33 47.2298 298.139 30.2778C301.63 46.9394 307.304 66.0009 316.4 84.4066C314.291 89.5014 313.125 95.0287 313.125 100.852C313.125 124.643 332.407 143.847 356.198 143.847C359.398 143.847 362.598 143.485 365.583 142.756C381.661 153.743 401.304 161.821 425.24 165.312V165.311Z" fill="#0B8A4F"/>
<path d="M680.43 219.511C671.652 219.511 664.534 212.395 664.534 203.616C664.534 194.837 671.651 187.72 680.43 187.72C689.208 187.72 696.326 194.837 696.326 203.616C696.326 212.394 689.209 219.511 680.43 219.511ZM680.43 169.956C661.648 169.956 646.424 185.181 646.424 203.961C646.424 222.741 680.43 264.496 680.43 264.496C680.43 264.496 714.436 222.741 714.436 203.961C714.436 185.181 699.21 169.956 680.43 169.956Z" fill="#F99746"/>
<path d="M68.8976 240.905C63.8684 240.905 59.7922 236.829 59.7922 231.798C59.7922 226.771 63.8684 222.695 68.8976 222.695C73.9267 222.695 78.003 226.771 78.003 231.798C78.003 236.829 73.9267 240.905 68.8976 240.905ZM68.8976 212.516C58.1382 212.516 49.4165 221.238 49.4165 231.998C49.4165 242.757 68.8976 266.676 68.8976 266.676C68.8976 266.676 88.3794 242.757 88.3794 231.998C88.3794 221.238 79.657 212.516 68.8976 212.516Z" fill="#ED2790"/>
<path d="M273.863 265.783H251.386C251.62 264.977 252.378 263.591 254.864 263.187C258.335 262.623 264.343 260.61 265.683 256.175C265.726 256.03 265.766 255.884 265.8 255.737C266.863 250.997 274.604 257.188 274.604 257.188C274.604 257.188 274.627 257.378 274.661 257.703C274.84 259.433 275.294 264.986 273.863 265.783Z" fill="#4E5B62"/>
<path d="M255.786 138.986C255.786 138.986 256.96 153.655 258.342 171.287C260.221 195.237 262.478 224.657 262.703 230.232C263.088 239.908 264.639 255.39 264.639 255.39C264.639 255.39 268.315 259.066 275.669 257.516C275.669 257.516 282.224 235.418 284.097 212.036C284.125 211.654 284.154 211.266 284.182 210.881C285.926 187.077 288.634 136.953 288.634 136.953L255.786 138.986Z" fill="#858789"/>
<path d="M255.786 138.986C255.786 138.986 256.96 153.655 258.342 171.287L284.097 212.036C284.125 211.654 284.154 211.266 284.182 210.881C285.926 187.077 288.634 136.953 288.634 136.953L255.786 138.986Z" fill="#737476"/>
<path d="M261.155 140.726C261.155 140.726 282.343 193.848 296.278 218.813C310.213 243.778 314.565 250.744 314.565 250.744C314.565 250.744 322.548 247.551 323.275 245.373C323.275 245.373 317.945 197.18 308.613 185.432C303.341 178.793 297.147 158.871 296.859 151.905C296.569 144.936 294.972 131.15 294.972 131.15L261.155 140.727L261.155 140.726Z" fill="#858789"/>
<path d="M289.037 58.8638C289.037 58.8638 274.697 65.8895 266.432 63.2825C266.432 63.2825 268.467 60.6763 272.027 58.7366C271.742 57.0514 271.52 55.5889 271.391 54.3497C271.04 51.4883 271.04 49.8674 271.04 49.8674L276.573 45.4487L281.819 41.2202C281.406 53.1099 289.035 58.8638 289.035 58.8638H289.037Z" fill="#CB7346"/>
<path d="M296.589 133.869C296.623 134.761 294.748 135.777 293.922 136.158C287.785 138.895 282.062 140.802 275.578 141.437C267.916 142.232 258.856 140.483 255.74 140.549C255.421 140.549 255.136 140.42 254.88 140.197C254.657 140.038 254.501 130.661 254.657 118.867C254.657 118.388 254.657 117.912 254.691 117.435V117.276C254.754 112.665 254.914 107.834 255.136 103.002C255.58 92.3829 256.406 82.1466 257.807 76.4874C259.49 69.811 263.304 65.3923 266.771 62.181L269.632 59.637C272.493 60.2095 275.512 60.0505 278.533 58.5568C281.839 56.9353 285.456 55.1161 286.029 55.5607C290.352 58.7714 293.22 66.0589 294.778 75.278C295.668 80.5873 296.112 86.5322 296.081 92.7633C296.081 95.0521 296.018 97.4046 295.89 99.7259C295.126 112.315 295.89 123.251 296.335 129.576C296.463 131.42 296.558 132.85 296.589 133.868L296.589 133.869Z" fill="#96989B"/>
<path d="M296.338 129.577C226.875 129.482 283.526 77.7894 283.526 77.7894L294.781 75.2786C295.671 80.5879 296.115 86.5327 296.084 92.7638C296.084 95.0527 296.021 97.4052 295.893 99.7265C295.129 112.316 295.893 123.252 296.338 129.577Z" fill="#737476"/>
<path d="M210.884 86.0503H254.074V129.241H210.884V86.0503Z" fill="#E69D43"/>
<path d="M252.277 86.0503H272.051V129.241H252.277V86.0503Z" fill="#D57912"/>
<path d="M247.588 108.283L245.014 107.457C245.014 107.457 243.216 101.506 237.133 104.171C237.133 104.171 234.663 105.478 235.75 107.029C236.838 108.577 236.639 107.762 238.126 109.993C239.613 112.225 241.964 113.285 243.84 112.442L245.977 112.501L247.588 108.283H247.588Z" fill="#CB7346"/>
<path d="M289.041 58.8494C289.041 58.8494 304.771 83.8672 288.015 112.778C282.785 121.802 243.276 113.223 243.276 113.223C243.276 113.223 241.737 110.442 245.858 107.511C245.858 107.511 272.163 103.059 275.298 102.312C278.079 101.651 276.224 76.0849 279.405 68.6667C282.583 61.2492 289.042 58.8494 289.042 58.8494H289.041Z" fill="#858789"/>
<path d="M281.913 45.7666C281.913 45.7666 278.291 52.4742 271.391 54.3502C271.04 51.4888 271.04 49.8679 271.04 49.8679L276.572 45.4492L281.913 45.7673V45.7666Z" fill="#764E37"/>
<path d="M268.518 49.6734C268.518 49.6734 282.195 51.946 283.48 43.4057C284.763 34.8668 287.394 29.4086 278.715 27.5968C270.037 25.7851 267.848 28.788 266.724 31.5343C265.601 34.28 264.994 48.8619 268.518 49.6734Z" fill="#CB7346" stroke="#BA6A41" stroke-width="0.0761676" stroke-miterlimit="10"/>
<path d="M282.97 45.9322C282.97 45.9322 283.115 32.5564 270.655 30.7203C269.376 30.5321 268.217 30.122 267.231 29.5698C263.121 27.2653 264.61 20.9645 270.101 19.2286C283.22 15.0806 305.01 34.4141 282.969 45.9322H282.97Z" fill="#373535"/>
<path d="M323.274 247.165L322.613 246.313L315.08 250.534C315.009 251.974 314.971 253.641 315.051 255.101C315.105 256.093 315.048 257.101 314.872 258.059C314.715 258.806 313.918 261.996 311.583 262.833C308.935 263.782 308.725 265.817 313.241 265.786C314.054 265.781 314.846 265.775 315.601 265.775C318.423 265.767 320.831 263.848 321.601 261.135C321.903 260.065 322.462 258.866 323.431 257.592C324.619 256.201 326.019 254.975 326.47 253.456C327.245 250.842 323.275 247.166 323.275 247.166L323.274 247.165Z" fill="#4E5B62"/>
<path d="M408.328 192.899L409.813 191.688L389.901 165.668L382.717 165.366L408.328 192.899Z" fill="#A03C37"/>
<path d="M434.34 192.899L435.572 191.688L419.097 165.668L413.152 165.366L434.34 192.899Z" fill="#A03C37"/>
<path d="M555.918 125.082C555.918 120.146 552.01 116.141 547.188 116.141C542.366 116.141 538.455 120.146 538.455 125.082C538.455 130.022 542.366 134.023 547.188 134.023C552.01 134.023 555.918 130.022 555.918 125.082Z" fill="#606163"/>
<path d="M445.156 245.621H533.937C534.9 245.621 535.69 244.826 535.69 243.854V235.464C535.69 234.492 534.9 233.696 533.937 233.696H455.511C454.545 233.696 453.755 234.491 453.755 235.464L445.156 245.621Z" fill="#858789"/>
<path d="M444.372 239.049C444.372 224.396 432.492 212.516 417.84 212.516C403.187 212.516 391.307 224.396 391.307 239.049C391.307 253.702 403.187 265.582 417.84 265.582C432.492 265.582 444.372 253.702 444.372 239.049Z" fill="#373535"/>
<path d="M431.366 239.049C431.366 231.581 425.308 225.524 417.838 225.524C410.368 225.524 404.313 231.581 404.313 239.049C404.313 246.519 410.367 252.576 417.838 252.576C425.308 252.576 431.366 246.52 431.366 239.049Z" fill="#ED7D2B"/>
<path d="M554.22 201.598C557.969 200.403 561.955 199.762 566.088 199.762C569.006 199.762 571.857 200.084 574.593 200.694C590.309 204.174 602.511 217.099 604.931 233.177C605.398 236.27 602.99 239.049 599.863 239.049H599.69C598.005 239.049 596.614 237.76 596.452 236.081C594.956 220.648 581.908 208.538 566.089 208.538C561.363 208.538 556.885 209.618 552.889 211.544C542.657 216.475 535.577 226.949 535.577 239.049H526.802C526.802 221.519 538.34 206.636 554.221 201.597L554.22 201.598Z" fill="#606163"/>
<path d="M513.508 233.696L526.801 239.049C536.007 221.147 545.41 212.363 553.45 208.031C567.915 200.233 577.985 206.837 574.593 200.694L549.778 148.336C547.453 145.104 544.423 142.65 541.037 141.045C537.353 139.304 533.245 138.572 529.166 138.948C524.432 139.384 521.337 144.16 522.845 148.67C526.094 158.386 527.343 168.151 527.343 177.426C527.343 208.284 513.508 233.697 513.508 233.697L513.508 233.696Z" fill="#858789"/>
<path d="M527.059 145.003L537.075 141.178C538.437 141.178 541.037 142.409 541.037 141.046L539.552 116.592C539.552 115.229 538.437 114.115 537.075 114.115H530.619C529.257 114.115 523.794 116.726 524.181 121.619L522.462 146.27C522.462 147.633 525.697 145.003 527.06 145.003H527.059Z" fill="#858789"/>
<path d="M356.499 166.578H423.19C425.12 166.578 426.702 164.999 426.702 163.069V160.661C426.702 158.732 425.12 157.149 423.19 157.149H356.499C354.569 157.149 352.99 158.732 352.99 160.661V163.069C352.99 164.999 354.569 166.578 356.499 166.578Z" fill="#A03C37"/>
<path d="M592.619 239.049C592.619 224.396 580.739 212.516 566.086 212.516C551.434 212.516 539.554 224.396 539.554 239.049C539.554 253.702 551.433 265.582 566.086 265.582C580.738 265.582 592.619 253.702 592.619 239.049Z" fill="#373535"/>
<path d="M552.56 239.05C552.56 241.327 553.124 243.475 554.119 245.357C554.184 245.479 554.253 245.6 554.322 245.719C556.642 249.814 561.042 252.577 566.084 252.577C573.554 252.577 579.612 246.521 579.612 239.05C579.612 233.421 576.174 228.598 571.283 226.566C571.232 226.54 571.181 226.52 571.127 226.5C569.568 225.87 567.867 225.526 566.085 225.526C558.617 225.526 552.561 231.583 552.561 239.051L552.56 239.05Z" fill="#F99746"/>
<path d="M468.905 185.609C468.905 185.609 462.053 212.774 485.163 237.821L428.336 233.696L435.573 178.865L468.906 185.609H468.905Z" fill="#858789"/>
<path d="M364.358 242.113C364.358 243.076 364.751 243.954 365.39 244.592C366.025 245.228 366.903 245.621 367.866 245.621H452.981C454.914 245.621 456.493 244.042 456.493 242.113L455.364 186.443L426.704 184.688C388.522 184.688 364.358 203.932 364.358 242.113V242.113Z" fill="#606163"/>
<path d="M538.455 124.575C538.455 125.439 538.534 126.279 538.686 127.1C539.872 133.476 545.467 138.302 552.188 138.302V110.846C544.607 110.846 538.455 116.994 538.455 124.575H538.455Z" fill="#858789"/>
<path d="M516.784 126.427C516.838 126.427 517.406 126.316 517.46 126.308L532.566 122.115C533.165 121.998 533.581 121.257 533.492 120.456C533.404 119.659 532.848 119.106 532.247 119.222L517.106 122.178C516.507 122.295 516.029 123.205 515.89 123.991C515.649 125.308 516.248 126.428 516.784 126.428V126.427Z" fill="#2B478B"/>
<path d="M553.285 209.088C553.148 209.935 553.014 210.752 552.888 211.545C552.928 211.524 552.966 211.505 553.005 211.488C556.973 209.598 561.41 208.538 566.087 208.538C581.905 208.538 594.954 220.648 596.451 236.081C596.612 237.76 598.004 239.049 599.688 239.049H599.862C602.988 239.049 605.396 236.27 604.929 233.177C602.518 217.15 590.391 204.262 574.752 200.73C574.698 200.716 574.646 200.705 574.592 200.694L549.778 148.336C547.452 145.104 544.423 142.649 541.037 141.045C545.266 148.162 556.935 170.923 554.219 201.597C554.031 203.703 553.778 205.847 553.449 208.03C553.395 208.38 553.342 208.734 553.285 209.087V209.088Z" fill="#606163"/>
<path d="M411.907 174.728V183C411.907 184.433 413.079 185.608 414.516 185.608H468.906C470.34 185.608 471.517 184.433 471.517 183V174.728C471.517 173.292 470.34 172.12 468.906 172.12H414.516C413.079 172.12 411.907 173.292 411.907 174.728Z" fill="#737476"/>
<path d="M371.101 245.622H452.981C452.981 245.622 457.978 215.304 439.549 205.067C435.111 202.601 429.535 201.753 423.462 202.347C404.315 204.223 380.205 220.446 371.102 245.622H371.101Z" fill="#4C4B4D"/>
<path d="M538.687 127.1C539.872 133.475 545.467 138.301 552.188 138.301V130.642C548.155 130.802 542.341 130.363 538.687 127.1Z" fill="#606163"/>
<path d="M429.124 185.608H468.904C470.338 185.608 471.515 184.433 471.515 183V174.728C471.515 173.292 470.338 172.12 468.904 172.12H441.651C439.282 175.464 434.831 181.132 429.124 185.608Z" fill="#4C4B4D"/>
<path d="M371.101 245.621H405.106C425.634 235.204 424.379 210.074 423.461 202.347C404.314 204.223 380.204 220.445 371.101 245.621Z" fill="#737476"/>
<path d="M554.321 245.718C556.641 249.813 561.041 252.576 566.083 252.576C573.553 252.576 579.611 246.52 579.611 239.049C579.611 233.42 576.173 228.597 571.282 226.565C570.105 232.417 566.32 243.264 554.321 245.718H554.321Z" fill="#ED7D2B"/>
<path d="M553.284 209.088C553.148 209.935 553.013 210.752 552.888 211.545C552.928 211.524 552.965 211.505 553.004 211.488C557.904 206.955 568.256 202.943 574.752 200.73C574.698 200.716 574.646 200.705 574.592 200.694L549.778 148.336C547.452 145.104 544.423 142.649 541.037 141.045C545.266 148.162 556.936 170.923 554.219 201.597C554.031 203.703 553.778 205.847 553.449 208.03C553.395 208.38 553.342 208.734 553.285 209.087L553.284 209.088Z" fill="#606163"/>
<path d="M378.837 122.198H421.224V157.148H378.837V122.198Z" fill="#D3671E"/>
<path d="M357.641 122.198H400.03V157.148H357.641V122.198Z" fill="#F1A34F"/>
<path d="M421.201 148.286H414.483L415.075 146.396L414.483 145.045H421.201V148.286Z" fill="#F1A34F"/>
<path d="M357.641 145.369V157.148H400.03V122.198H392.52L357.641 145.369Z" fill="#E78B37"/>
<path d="M357.638 126.795H357.64V130.036H357.638V126.795Z" fill="#E5BCA1"/>
<path d="M364.357 130.036H357.641V126.795H364.357L363.763 128.146L364.357 130.036Z" fill="#E78B37"/>
<path d="M357.638 151.527H364.356L363.763 149.636L364.356 148.286H357.638V151.527Z" fill="#F1A34F"/>
<path d="M464.175 90.5212C456.847 93.4977 443.451 87.1346 443.451 87.1346C443.451 87.1346 447.898 83.1978 448.744 75.7424C448.79 75.3668 448.821 74.9837 448.844 74.5912C449.617 74.3158 451.073 73.7973 452.632 73.2444L459.125 77.6631C459.125 77.6631 459.279 79.8382 459.048 83.6411C459.011 84.305 458.96 85.0183 458.892 85.7797C462.261 87.2909 464.176 90.5205 464.176 90.5205L464.175 90.5212Z" fill="#CB7346"/>
<path d="M459.125 77.6631C459.125 77.6631 459.279 79.8382 459.048 83.6411C453.142 82.5677 449.893 77.7964 448.745 75.7424C448.79 75.3668 448.822 74.9837 448.844 74.5912C449.617 74.3158 451.073 73.7973 452.633 73.2444L459.126 77.6631H459.125Z" fill="#764E37"/>
<path d="M460.322 80.8313C460.322 80.8313 447.701 80.4198 448.078 72.5637C448.454 64.7077 447.08 59.3638 455.155 59.2941C463.229 59.2244 464.648 62.2977 465.162 64.95C465.672 67.6029 463.614 80.7352 460.323 80.8313H460.322Z" fill="#CB7346"/>
<path d="M448.746 75.7424C448.746 75.7424 448.253 73.13 449.675 71.4063C449.675 71.4063 448.758 68.8433 449.744 68.2694C450.73 67.6955 451.243 69.8835 451.676 69.472C452.106 69.0599 454.016 67.1229 454.606 64.5654C455.193 62.0085 463.943 63.8412 464.978 64.1498C466.009 64.4584 459.169 51.6951 451.784 54.7182C444.399 57.7407 443.843 61.5327 444.696 64.6053C445.548 67.6785 445.471 75.1103 448.745 75.7424H448.746Z" fill="#373535"/>
<path d="M436.673 150.724C436.673 150.724 437.547 166.141 441.059 170.534C444.57 174.925 511.848 173.221 511.848 173.221C511.848 173.221 512.142 163.338 509.509 160.795C506.875 158.252 494.591 150.95 455.363 146.811L436.672 150.724H436.673Z" fill="#858789"/>
<path d="M435.775 118.456C436.869 131.698 435.424 151.839 436.673 155.331C437.744 158.341 449.98 156.551 454.862 155.548C456.673 155.172 458.861 154.645 461.125 154.014C467.429 152.262 474.304 149.759 475.042 147.898C475.07 147.824 475.093 147.756 475.107 147.684C475.179 147.412 475.164 147.159 475.096 146.906C474.917 146.204 474.349 145.46 474.021 144.169C473.907 143.717 473.822 143.195 473.793 142.584C473.679 140.185 473.685 137.397 473.602 134.396C473.594 134.123 473.585 133.844 473.577 133.567C473.571 133.193 473.566 132.786 473.52 132.412L473.517 132.276C473.517 132.207 473.514 132.136 473.512 132.064C473.406 128.365 473.189 124.478 472.942 120.618C472.862 119.419 472.777 118.222 472.685 117.039C472.653 116.62 472.62 116.206 472.588 115.793C472.523 115.021 472.461 114.254 472.388 113.499C471.839 107.568 471.095 102.289 470.117 98.9558C468.512 93.5179 464.975 89.9722 461.757 87.3748L459.428 85.5813C456.832 86.0902 453.759 85.7505 450.98 84.5716C447.976 83.2877 446.939 82.3686 446.414 82.7165C439.471 87.5257 434.478 102.263 435.775 118.454V118.456Z" fill="#737476"/>
<path d="M487.642 223.944C487.642 223.944 488.237 233.541 490.092 233.68C490.341 233.697 499.51 233.697 499.51 233.697L511.215 233.629C511.215 233.629 511.138 230.81 507.718 230.212C504.295 229.616 498.569 227.213 496.494 222.69C494.313 217.933 487.641 223.944 487.641 223.944H487.642Z" fill="#4E5B62"/>
<path d="M485.193 224.571C485.193 224.571 487.459 226.309 492.068 226.532C493.256 226.588 494.345 226.526 495.297 226.404C497.839 226.081 499.427 225.348 499.427 225.348L511.848 173.222C511.848 173.222 498.393 161.465 491.373 168.776C490.458 169.727 489.674 171.381 489.01 173.536C484.556 187.909 485.193 224.572 485.193 224.572L485.193 224.571Z" fill="#96989B"/>
<path d="M455.365 108.388C455.365 108.388 464.075 140.282 474.025 144.169C473.912 143.717 473.826 143.195 473.797 142.584C473.684 140.185 473.689 137.398 473.606 134.396C473.598 134.123 473.59 133.844 473.581 133.567C473.575 133.193 473.57 132.786 473.524 132.412L473.521 132.276C473.521 132.207 473.518 132.136 473.516 132.065C473.41 128.365 473.194 124.478 472.946 120.618C472.866 119.419 472.781 118.222 472.689 117.039C468.309 111.746 462.366 107.944 455.366 108.389L455.365 108.388Z" fill="#606163"/>
<path d="M507.616 120.674C507.616 120.674 511.41 120.965 512.384 120.674C513.358 120.381 517.942 117.651 519.6 118.238C521.256 118.822 525.449 123.112 524.377 125.061C524.377 125.061 522.428 125.109 520.624 123.256C518.819 121.404 516.869 122.673 517.064 122.917C517.261 123.16 520.088 124.282 519.6 124.77C519.112 125.258 515.407 125.161 514.529 124.573C513.651 123.989 507.119 124.721 507.119 124.721L507.614 120.674L507.616 120.674Z" fill="#CB7346"/>
<path d="M455.362 91.5686C455.362 91.5686 478.953 111.676 485.161 113.617C491.372 115.556 513.309 119.819 513.309 119.819C513.309 119.819 513.914 125.012 511.856 126.962C511.856 126.962 483.667 125.329 480.159 124.585C476.647 123.844 450.491 110.288 448.36 109.265C446.225 108.242 446.558 89.9105 455.362 91.5686Z" fill="#858789"/>
<path d="M485.193 224.571C485.193 224.571 487.46 226.309 492.069 226.532C493.257 226.588 494.346 226.526 495.297 226.404C488.212 217.445 489.01 173.536 489.01 173.536C484.556 187.909 485.193 224.571 485.193 224.571V224.571Z" fill="#737476"/>
<path d="M442.833 65.1262V65.2453C442.833 65.5763 442.983 65.8598 443.2 65.9796C443.274 66.0209 443.351 66.0439 443.432 66.0439H473.338C473.669 66.0439 473.94 65.6845 473.94 65.2453V65.1262C473.94 64.687 473.669 64.3276 473.338 64.3276L466.661 63.4708C466.039 58.5093 462.742 54.4608 458.387 53.0653H458.381C457.318 52.7229 456.195 52.5415 455.031 52.5415C448.895 52.5415 443.867 57.6112 443.343 64.0731C443.337 64.1489 443.332 64.222 443.326 64.2992C443.249 64.3547 443.207 64.3892 443.201 64.3926C442.984 64.5117 442.833 64.7986 442.833 65.1269L442.833 65.1262Z" fill="#4E5B62"/>
<path d="M452.94 64.0725C450.71 52.2782 458.129 53.0362 458.38 53.0653C457.317 52.7229 456.194 52.5415 455.031 52.5415C448.895 52.5415 443.867 57.6112 443.342 64.0731H452.94V64.0725Z" fill="#4E5B62"/>
<path d="M423.879 28.0427C423.54 28.0427 423.212 27.8709 423.024 27.5596C422.739 27.0878 422.893 26.474 423.364 26.1904C423.386 26.1775 423.896 25.8703 424.877 25.3248C425.355 25.0561 425.966 25.2294 426.233 25.7099C426.501 26.1911 426.327 26.7988 425.849 27.0668C424.903 27.5947 424.398 27.8972 424.392 27.8993C424.233 27.996 424.055 28.0421 423.879 28.0421V28.0427Z" fill="#FF9136"/>
<path d="M521.258 2.00663C520.714 2.00663 520.268 1.56741 520.263 1.01922C520.254 0.468998 520.696 0.0169162 521.25 0.0108252C522.401 -0.00135683 523.555 -0.00339245 524.718 0.00540567C525.268 0.0101431 525.713 0.460192 525.707 1.01109C525.701 1.55928 525.257 2.00121 524.709 2.00121H524.701C523.552 1.99173 522.41 1.99445 521.269 2.00663H521.258ZM531.606 2.19003L531.558 2.18868C530.421 2.13589 529.269 2.0926 528.132 2.06215C527.579 2.04726 527.146 1.58837 527.161 1.0368C527.177 0.486578 527.639 0.0466839 528.186 0.067664C529.336 0.0987958 530.504 0.142103 531.653 0.196245C532.203 0.221963 532.627 0.688935 532.601 1.23983C532.579 1.77381 532.137 2.19003 531.606 2.19003ZM514.363 2.21102C513.833 2.21102 513.391 1.79549 513.365 1.26151C513.339 0.711967 513.764 0.243624 514.314 0.217229C515.471 0.161057 516.639 0.11573 517.78 0.0825677C518.333 0.0582037 518.792 0.498756 518.806 1.04965C518.823 1.59987 518.39 2.06011 517.84 2.07635C516.712 2.10952 515.557 2.15417 514.411 2.20966L514.363 2.21102ZM538.49 2.64891C538.461 2.64891 538.433 2.64755 538.405 2.64484C537.276 2.54739 536.124 2.4594 534.984 2.38292C534.435 2.3457 534.018 1.87059 534.056 1.32037C534.092 0.771498 534.565 0.356651 535.119 0.391844C536.27 0.468996 537.433 0.558326 538.576 0.657136C539.126 0.70451 539.531 1.1884 539.485 1.73727C539.439 2.25704 539.003 2.64891 538.49 2.64891ZM507.477 2.6692C506.965 2.6692 506.528 2.27601 506.482 1.75624C506.437 1.20737 506.844 0.724141 507.394 0.67812C508.554 0.579987 509.717 0.491321 510.852 0.416198C511.401 0.383036 511.877 0.795886 511.912 1.34475C511.949 1.8943 511.533 2.37007 510.983 2.40661C509.863 2.48106 508.712 2.56769 507.562 2.66583C507.534 2.66853 507.505 2.6692 507.477 2.6692ZM500.61 3.3744C500.115 3.3744 499.685 3.00217 499.622 2.49594C499.556 1.9491 499.947 1.45166 500.493 1.38669C501.645 1.24795 502.805 1.11801 503.94 1.00161C504.486 0.942049 504.977 1.34474 505.034 1.89226C505.091 2.44045 504.692 2.93043 504.145 2.9866C503.019 3.10165 501.871 3.23025 500.733 3.36696C500.69 3.37237 500.65 3.3744 500.61 3.3744ZM545.35 3.38388C545.31 3.38388 545.268 3.38116 545.224 3.37575C544.099 3.23227 542.953 3.0976 541.819 2.97646C541.269 2.91758 540.873 2.42622 540.932 1.87735C540.989 1.33052 541.482 0.931921 542.03 0.992154C543.179 1.11533 544.339 1.25204 545.476 1.39687C546.023 1.46657 546.41 1.96602 546.339 2.51286C546.277 3.01638 545.846 3.38388 545.35 3.38388ZM493.776 4.31716C493.291 4.31716 492.867 3.96524 492.789 3.47254C492.707 2.92841 493.08 2.41811 493.624 2.33352C494.767 2.1562 495.922 1.98632 497.053 1.83066C497.6 1.75418 498.102 2.13659 498.179 2.68275C498.253 3.22823 497.871 3.73174 497.327 3.80687C496.207 3.96185 495.064 4.1297 493.929 4.30566C493.878 4.3131 493.827 4.31716 493.776 4.31716ZM552.176 4.39905C552.119 4.39905 552.062 4.39431 552.008 4.38484C550.879 4.19331 549.742 4.01192 548.619 3.84543C548.075 3.76489 547.699 3.25663 547.781 2.71183C547.86 2.16702 548.371 1.7894 548.913 1.87197C550.05 2.04048 551.201 2.22456 552.341 2.41811C552.883 2.51016 553.25 3.02586 553.157 3.56864C553.074 4.05524 552.652 4.39905 552.176 4.39905ZM486.975 5.49138C486.504 5.49138 486.085 5.15839 485.997 4.6799C485.892 4.13916 486.248 3.61669 486.789 3.51382C487.926 3.29792 489.075 3.09014 490.201 2.89523C490.745 2.80387 491.261 3.16594 491.356 3.70872C491.446 4.2515 491.084 4.7679 490.54 4.86129C489.423 5.0535 488.288 5.2599 487.163 5.47376C487.1 5.48595 487.038 5.49138 486.975 5.49138ZM558.95 5.69778C558.882 5.69778 558.811 5.69033 558.742 5.67544C557.633 5.43857 556.502 5.21051 555.379 4.99529C554.84 4.89175 554.484 4.3686 554.589 3.82785C554.691 3.2871 555.214 2.9318 555.755 3.03534C556.892 3.25394 558.035 3.4847 559.158 3.72428C559.697 3.83934 560.038 4.36995 559.925 4.90799C559.825 5.37699 559.412 5.69778 558.95 5.69778ZM480.217 6.88892C479.761 6.88892 479.348 6.57354 479.246 6.10927C479.126 5.57191 479.463 5.03794 480.001 4.91747C481.133 4.66435 482.273 4.41936 483.39 4.18858C483.931 4.07759 484.456 4.42408 484.57 4.96347C484.681 5.50219 484.333 6.03076 483.795 6.14175C482.689 6.37118 481.557 6.61414 480.437 6.86522C480.363 6.88147 480.289 6.88892 480.217 6.88892ZM565.666 7.28008C565.583 7.28008 565.498 7.26995 565.415 7.24829C564.309 6.96201 563.189 6.68656 562.086 6.42667C561.55 6.30079 561.219 5.76275 561.345 5.22675C561.47 4.69141 562.009 4.35842 562.545 4.48431C563.659 4.74757 564.793 5.0271 565.914 5.31676C566.446 5.45347 566.768 5.99826 566.632 6.53156C566.515 6.98162 566.11 7.28008 565.666 7.28008ZM473.508 8.5037C473.064 8.5037 472.659 8.20456 472.542 7.75383C472.406 7.22053 472.725 6.6764 473.261 6.53969C474.369 6.25341 475.503 5.97188 476.624 5.70185C477.159 5.57461 477.699 5.90352 477.827 6.43817C477.955 6.97418 477.627 7.51292 477.091 7.6415C475.98 7.90951 474.856 8.18834 473.756 8.47191C473.673 8.49289 473.591 8.5037 473.508 8.5037ZM572.307 9.14598C572.21 9.14598 572.113 9.13244 572.016 9.10266C570.933 8.77307 569.824 8.44889 568.728 8.14096C568.198 7.99207 567.886 7.44117 568.035 6.91126C568.185 6.38066 568.736 6.07136 569.266 6.21957C570.378 6.53292 571.5 6.86048 572.598 7.19413C573.125 7.35385 573.422 7.91152 573.262 8.43874C573.131 8.86917 572.735 9.14598 572.308 9.14598H572.307ZM466.85 10.3283C466.42 10.3283 466.02 10.0447 465.892 9.60889C465.742 9.08032 466.043 8.52606 466.574 8.37311C467.682 8.04961 468.806 7.73218 469.909 7.43034C470.439 7.28619 470.989 7.59749 471.135 8.12877C471.28 8.66004 470.97 9.20893 470.436 9.35443C469.341 9.65493 468.23 9.96894 467.13 10.2884C467.039 10.3154 466.946 10.3283 466.851 10.3283H466.85ZM578.862 11.2934C578.755 11.2934 578.643 11.2751 578.532 11.2365C577.451 10.8562 576.357 10.486 575.286 10.1347C574.762 9.96352 574.476 9.39976 574.647 8.87593C574.821 8.35346 575.382 8.06786 575.907 8.23841C576.993 8.5944 578.099 8.96933 579.193 9.35374C579.714 9.53647 579.988 10.1063 579.803 10.6254C579.661 11.0362 579.276 11.2934 578.862 11.2934ZM460.255 12.358C459.833 12.358 459.442 12.09 459.306 11.6676C459.135 11.1438 459.422 10.5807 459.947 10.4109C461.045 10.0549 462.157 9.70365 463.253 9.36594C463.78 9.20351 464.336 9.49924 464.498 10.0265C464.661 10.553 464.365 11.1113 463.837 11.2731C462.751 11.6074 461.648 11.956 460.563 12.3086C460.46 12.3417 460.357 12.358 460.255 12.358ZM585.321 13.7183C585.198 13.7183 585.072 13.6953 584.95 13.6472C583.893 13.2242 582.819 12.8073 581.756 12.408C581.24 12.2145 580.977 11.6392 581.172 11.1235C581.365 10.6078 581.941 10.3466 582.457 10.5408C583.534 10.9449 584.623 11.3671 585.691 11.7949C586.204 11.9999 586.452 12.5799 586.247 13.0916C586.09 13.4814 585.717 13.719 585.321 13.719V13.7183ZM453.722 14.5893C453.315 14.5893 452.929 14.3348 452.785 13.9281C452.596 13.4097 452.866 12.8378 453.386 12.6524C454.475 12.2612 455.578 11.8761 456.658 11.5066C457.179 11.3293 457.747 11.6061 457.923 12.1285C458.103 12.6497 457.823 13.2168 457.301 13.3948C456.229 13.7609 455.138 14.1426 454.058 14.5304C453.947 14.5704 453.833 14.5893 453.722 14.5893ZM591.671 16.4159C591.534 16.4159 591.394 16.3882 591.26 16.3286C590.223 15.8616 589.166 15.3994 588.119 14.9541C587.612 14.7382 587.376 14.1535 587.593 13.6459C587.809 13.1396 588.393 12.9028 588.9 13.118C589.958 13.568 591.029 14.0364 592.081 14.5095C592.583 14.7355 592.805 15.3263 592.58 15.8285C592.415 16.198 592.05 16.4166 591.671 16.4166V16.4159ZM447.26 17.0203C446.864 17.0203 446.488 16.7807 446.334 16.3882C446.131 15.8759 446.382 15.2959 446.895 15.0949C447.973 14.6698 449.062 14.2509 450.13 13.8489C450.646 13.6547 451.222 13.9152 451.415 14.4309C451.609 14.9466 451.347 15.5219 450.834 15.7155C449.771 16.1141 448.694 16.5296 447.628 16.9499C447.506 16.9973 447.383 17.0196 447.26 17.0196V17.0203ZM597.902 19.3789C597.751 19.3789 597.596 19.345 597.454 19.2733C596.43 18.761 595.396 18.2541 594.373 17.7681C593.874 17.5313 593.663 16.9364 593.9 16.4389C594.137 15.9415 594.732 15.7303 595.231 15.9665C596.266 16.4586 597.314 16.9716 598.349 17.49C598.839 17.737 599.038 18.3366 598.793 18.8286C598.617 19.1779 598.266 19.3789 597.902 19.3789ZM440.879 19.6523C440.491 19.6523 440.123 19.4263 439.961 19.0493C439.744 18.5437 439.979 17.9563 440.483 17.7384C441.54 17.2836 442.614 16.8301 443.677 16.3916C444.187 16.1811 444.772 16.424 444.983 16.9337C445.191 17.4426 444.949 18.0267 444.439 18.2358C443.383 18.6703 442.318 19.1197 441.272 19.5704C441.144 19.6259 441.009 19.6516 440.879 19.6516V19.6523ZM434.585 22.4914C434.209 22.4914 433.853 22.2802 433.682 21.9195C433.446 21.4214 433.659 20.8265 434.158 20.5923C435.19 20.1044 436.25 19.6151 437.31 19.1386C437.812 18.9105 438.402 19.1352 438.63 19.6374C438.855 20.1396 438.63 20.7304 438.128 20.9564C437.082 21.4288 436.034 21.9127 435.01 22.3959C434.874 22.4602 434.728 22.4914 434.585 22.4914ZM604.001 22.5976C603.839 22.5976 603.673 22.557 603.519 22.4724C602.518 21.9181 601.505 21.3693 600.504 20.8414C600.016 20.5842 599.828 19.9812 600.085 19.4939C600.345 19.0066 600.946 18.8198 601.433 19.077C602.447 19.611 603.473 20.1666 604.485 20.7277C604.967 20.995 605.144 21.6014 604.876 22.0833C604.694 22.4122 604.355 22.5976 604.001 22.5976ZM428.398 25.5585C428.036 25.5585 427.692 25.3636 427.512 25.0225C427.258 24.5339 427.447 23.9316 427.937 23.6771C428.932 23.1573 429.972 22.6274 431.032 22.1029C431.525 21.8586 432.127 22.0609 432.369 22.5536C432.614 23.0477 432.412 23.6466 431.918 23.8903C430.872 24.4087 429.84 24.9325 428.857 25.4448C428.712 25.522 428.552 25.5585 428.398 25.5585ZM609.967 26.0641C609.788 26.0641 609.61 26.0174 609.449 25.9186C608.477 25.3257 607.485 24.7369 606.501 24.165C606.026 23.8882 605.862 23.2785 606.142 22.802C606.419 22.3262 607.028 22.1638 607.504 22.4406C608.499 23.0186 609.502 23.6162 610.485 24.2151C610.956 24.5021 611.104 25.1159 610.819 25.5869C610.631 25.8956 610.303 26.0654 609.967 26.0654V26.0641ZM615.776 29.7776C615.585 29.7776 615.393 29.7234 615.223 29.6091C614.28 28.9769 613.313 28.3462 612.356 27.733C611.892 27.4359 611.755 26.8194 612.051 26.3544C612.347 25.8908 612.965 25.7541 613.431 26.0512C614.399 26.6725 615.377 27.3114 616.332 27.9516C616.79 28.2582 616.913 28.8775 616.606 29.3356C616.415 29.6233 616.099 29.7776 615.777 29.7776H615.776ZM621.419 33.7428C621.213 33.7428 621.005 33.6799 620.829 33.5493C619.914 32.8752 618.978 32.2025 618.047 31.5487C617.596 31.232 617.488 30.61 617.804 30.1586C618.121 29.7079 618.742 29.5989 619.192 29.9156C620.136 30.5782 621.085 31.2597 622.011 31.9419C622.456 32.2688 622.55 32.8928 622.223 33.3374C622.029 33.6027 621.727 33.7428 621.419 33.7428ZM626.877 37.9591C626.657 37.9591 626.435 37.886 626.25 37.7365C625.372 37.0245 624.465 36.3092 623.562 35.6114C623.126 35.2744 623.046 34.6483 623.383 34.2118C623.722 33.776 624.346 33.6954 624.782 34.0325C625.7 34.7404 626.615 35.4652 627.504 36.1867C627.934 36.5332 628 37.1605 627.652 37.5896C627.455 37.8333 627.168 37.9598 626.877 37.9598V37.9591ZM632.132 42.4232C631.895 42.4232 631.659 42.3399 631.471 42.1701C630.619 41.4128 629.749 40.6568 628.886 39.9225C628.467 39.5658 628.415 38.9357 628.772 38.5161C629.128 38.0958 629.758 38.0451 630.177 38.4018C631.055 39.1462 631.936 39.913 632.797 40.6805C633.21 41.0466 633.244 41.678 632.879 42.0888C632.683 42.3108 632.409 42.4232 632.132 42.4232ZM637.172 47.1336C636.921 47.1336 636.667 47.0388 636.473 46.848C635.666 46.0548 634.835 45.2575 634 44.4792C633.598 44.103 633.578 43.4715 633.951 43.0688C634.33 42.6661 634.961 42.6459 635.362 43.0215C636.209 43.8106 637.052 44.6193 637.87 45.4233C638.263 45.8091 638.269 46.4412 637.884 46.8344C637.691 47.0334 637.431 47.1336 637.172 47.1336ZM641.977 52.0815C641.709 52.0815 641.441 51.9739 641.244 51.7607C640.475 50.9296 639.682 50.0931 638.89 49.2756C638.505 48.8803 638.514 48.2489 638.91 47.8645C639.306 47.4807 639.936 47.4895 640.321 47.8854C641.125 48.7145 641.929 49.5625 642.71 50.4064C643.083 50.8105 643.06 51.4419 642.656 51.8162C642.462 51.9928 642.22 52.0815 641.977 52.0815ZM646.534 57.2582C646.249 57.2582 645.968 57.137 645.771 56.9008C645.044 56.0332 644.291 55.1595 643.539 54.3027C643.174 53.8892 643.214 53.2584 643.627 52.895C644.043 52.5309 644.673 52.5708 645.035 52.9843C645.799 53.8526 646.563 54.7385 647.298 55.6197C647.652 56.042 647.598 56.6714 647.176 57.0254C646.988 57.1817 646.76 57.2582 646.534 57.2582ZM650.832 62.6548C650.53 62.6548 650.231 62.5181 650.034 62.2589C649.35 61.3554 648.646 60.4451 647.937 59.5538C647.592 59.1227 647.663 58.4946 648.093 58.1515C648.524 57.8084 649.154 57.8794 649.496 58.3105C650.217 59.214 650.932 60.1385 651.628 61.0549C651.958 61.4935 651.873 62.1201 651.434 62.4524C651.252 62.5885 651.041 62.6548 650.832 62.6548ZM654.856 68.2558C654.538 68.2558 654.224 68.1042 654.033 67.8206C653.389 66.8792 652.728 65.9351 652.067 65.0147C651.747 64.568 651.847 63.9441 652.295 63.6226C652.742 63.3011 653.367 63.4027 653.689 63.8507C654.359 64.784 655.028 65.7416 655.681 66.6958C655.992 67.1513 655.874 67.7726 655.419 68.0832C655.248 68.1996 655.051 68.2558 654.857 68.2558H654.856ZM658.602 74.0497C658.266 74.0497 657.938 73.8812 657.75 73.5733C657.157 72.6068 656.544 71.6309 655.926 70.6746C655.627 70.2117 655.761 69.5938 656.222 69.2953C656.687 68.9955 657.303 69.1288 657.602 69.5918C658.23 70.5616 658.854 71.551 659.452 72.5324C659.74 73.0021 659.592 73.6166 659.122 73.9042C658.959 74.003 658.779 74.0504 658.603 74.0504L658.602 74.0497ZM662.059 80.0203C661.706 80.0203 661.364 79.8328 661.185 79.5018C660.638 78.5009 660.07 77.4966 659.503 76.5166C659.226 76.0401 659.39 75.4297 659.865 75.1535C660.344 74.8774 660.954 75.0405 661.23 75.517C661.806 76.5112 662.379 77.529 662.935 78.5442C663.2 79.0274 663.02 79.6338 662.539 79.8978C662.388 79.981 662.222 80.0203 662.059 80.0203ZM665.226 86.1505C664.856 86.1505 664.502 85.9441 664.329 85.5895C663.833 84.5689 663.314 83.5381 662.792 82.5264C662.539 82.037 662.732 81.4354 663.223 81.183C663.709 80.9292 664.312 81.122 664.565 81.6114C665.095 82.6374 665.619 83.6816 666.121 84.7171C666.364 85.2118 666.158 85.8094 665.662 86.0504C665.523 86.1187 665.371 86.1505 665.226 86.1505ZM668.096 92.4242C667.711 92.4242 667.344 92.1982 667.181 91.8199C666.729 90.7695 666.261 89.7165 665.79 88.6878C665.562 88.1869 665.782 87.5948 666.283 87.3653C666.785 87.1366 667.375 87.3566 667.606 87.858C668.081 88.9003 668.554 89.9682 669.013 91.0328C669.231 91.5383 668.996 92.1251 668.49 92.3424C668.362 92.3979 668.23 92.4236 668.096 92.4236V92.4242ZM670.673 98.8266C670.268 98.8266 669.889 98.5796 669.738 98.1789C669.34 97.1143 668.923 96.0409 668.496 94.9852C668.29 94.4742 668.538 93.8929 669.049 93.6878C669.561 93.482 670.143 93.7291 670.348 94.2401C670.778 95.31 671.203 96.399 671.607 97.4771C671.801 97.9928 671.539 98.5687 671.023 98.7623C670.91 98.8056 670.789 98.8259 670.673 98.8259V98.8266ZM672.953 105.341C672.534 105.341 672.143 105.073 672.007 104.652C671.653 103.568 671.286 102.476 670.91 101.402C670.728 100.881 671.001 100.313 671.523 100.131C672.041 99.9493 672.612 100.223 672.794 100.745C673.173 101.831 673.546 102.939 673.902 104.034C674.074 104.558 673.786 105.123 673.264 105.29C673.161 105.324 673.056 105.341 672.953 105.341ZM674.94 111.951C674.503 111.951 674.102 111.66 673.98 111.218C673.674 110.118 673.355 109.009 673.031 107.924C672.872 107.397 673.17 106.841 673.698 106.681C674.225 106.522 674.781 106.821 674.941 107.351C675.271 108.452 675.596 109.574 675.904 110.689C676.048 111.219 675.738 111.77 675.208 111.915C675.117 111.941 675.029 111.952 674.94 111.952V111.951ZM676.633 118.643C676.179 118.643 675.769 118.33 675.661 117.868C675.407 116.759 675.137 115.636 674.857 114.533C674.721 114.001 675.045 113.459 675.578 113.322C676.114 113.188 676.656 113.509 676.79 114.046C677.074 115.161 677.348 116.298 677.608 117.424C677.73 117.959 677.393 118.495 676.858 118.618C676.781 118.635 676.707 118.643 676.633 118.643ZM678.032 125.404C677.562 125.404 677.143 125.067 677.054 124.585C676.846 123.471 676.624 122.337 676.393 121.219C676.282 120.681 676.63 120.153 677.168 120.04C677.709 119.929 678.237 120.276 678.348 120.815C678.582 121.947 678.807 123.095 679.015 124.224C679.115 124.765 678.756 125.287 678.214 125.387C678.155 125.398 678.092 125.404 678.032 125.404ZM679.141 132.218C678.651 132.218 678.224 131.859 678.152 131.361C677.995 130.232 677.821 129.089 677.639 127.969C677.551 127.425 677.921 126.911 678.465 126.823C679.007 126.738 679.52 127.102 679.608 127.647C679.793 128.784 679.968 129.938 680.129 131.084C680.207 131.628 679.825 132.133 679.28 132.209C679.232 132.215 679.187 132.218 679.141 132.218ZM679.947 139.079C679.44 139.079 679.005 138.692 678.955 138.176C678.847 137.047 678.724 135.898 678.59 134.764C678.528 134.217 678.919 133.721 679.465 133.658C680.012 133.589 680.508 133.983 680.574 134.53C680.708 135.679 680.834 136.841 680.942 137.987C680.993 138.534 680.591 139.022 680.044 139.073C680.01 139.079 679.979 139.079 679.947 139.079ZM680.446 145.971C679.916 145.971 679.478 145.557 679.449 145.022C679.394 143.893 679.326 142.739 679.243 141.596C679.203 141.046 679.616 140.57 680.166 140.53C680.716 140.49 681.192 140.903 681.232 141.453C681.314 142.61 681.385 143.779 681.443 144.925C681.469 145.474 681.044 145.943 680.494 145.971H680.446ZM680.6 152.88H680.594C680.044 152.878 679.599 152.427 679.602 151.877C679.605 151.668 679.605 151.455 679.605 151.235C679.605 150.326 679.593 149.388 679.57 148.451C679.56 147.9 679.995 147.444 680.545 147.429C681.089 147.415 681.554 147.854 681.566 148.404C681.589 149.356 681.6 150.308 681.6 151.234C681.6 151.457 681.6 151.673 681.597 151.887C681.594 152.434 681.149 152.88 680.599 152.88L680.6 152.88Z" fill="#FF9136"/>
<path d="M680.43 157.993C680.401 157.993 680.373 157.993 680.344 157.99C679.795 157.944 679.39 157.46 679.435 156.913C679.435 156.906 679.484 156.322 679.529 155.248C679.552 154.698 680.016 154.274 680.57 154.293C681.12 154.316 681.548 154.783 681.524 155.334C681.476 156.454 681.425 157.055 681.422 157.081C681.38 157.602 680.943 157.993 680.43 157.993Z" fill="#FF9136"/>
<path d="M255.787 71.0588C255.75 71.0588 255.71 71.0561 255.673 71.052C255.106 70.9864 254.542 70.9228 253.977 70.8605C253.43 70.8003 253.037 70.3069 253.097 69.7594C253.157 69.2125 253.65 68.8166 254.197 68.8775C254.764 68.9398 255.332 69.0041 255.901 69.0704C256.448 69.1334 256.842 69.6281 256.779 70.1763C256.72 70.6846 256.289 71.0588 255.787 71.0588Z" fill="#FF9136"/>
<path d="M219.888 69.216C219.346 69.216 218.901 68.7829 218.89 68.2381C218.88 67.6872 219.317 67.231 219.868 67.2209C220.995 67.1978 222.152 67.1836 223.307 67.1782H223.312C223.861 67.1782 224.308 67.6215 224.31 68.1717C224.312 68.722 223.868 69.1714 223.317 69.1741C222.171 69.1795 221.025 69.1937 219.908 69.216H219.888ZM230.165 69.2377H230.141C229 69.2113 227.853 69.1923 226.729 69.1822C226.178 69.1767 225.735 68.726 225.74 68.1751C225.745 67.6242 226.193 67.1877 226.747 67.1864C227.88 67.1965 229.038 67.2154 230.188 67.2418C230.738 67.2547 231.174 67.7115 231.161 68.2631C231.149 68.8059 230.705 69.237 230.164 69.237L230.165 69.2377ZM213.043 69.4536C212.515 69.4536 212.075 69.0394 212.048 68.5061C212.02 67.9558 212.444 67.4868 212.994 67.4598C214.137 67.4022 215.293 67.3542 216.43 67.3143C216.978 67.3062 217.443 67.7264 217.462 68.2766C217.481 68.8269 217.05 69.2891 216.5 69.3081C215.373 69.3473 214.227 69.3954 213.094 69.4522L213.043 69.4536ZM237.013 69.4888L236.962 69.4874C235.83 69.4312 234.683 69.3812 233.552 69.3405C233.002 69.3202 232.571 68.8573 232.592 68.3064C232.612 67.7562 233.077 67.3292 233.626 67.3468C234.765 67.388 235.921 67.4381 237.062 67.495C237.612 67.522 238.036 67.9904 238.008 68.5413C237.982 69.0746 237.541 69.4888 237.013 69.4888ZM206.209 69.9057C205.696 69.9057 205.26 69.5111 205.216 68.9907C205.171 68.4411 205.579 67.9592 206.128 67.9139C207.258 67.8212 208.412 67.7352 209.559 67.6587C210.109 67.6175 210.584 68.0384 210.62 68.588C210.657 69.1375 210.241 69.6133 209.691 69.6492C208.555 69.7243 207.412 69.8095 206.292 69.9023C206.265 69.9043 206.237 69.9057 206.209 69.9057ZM243.85 69.9158L243.777 69.9131C242.654 69.8292 241.508 69.75 240.37 69.6782C239.821 69.6437 239.403 69.1707 239.436 68.6204C239.473 68.0709 239.946 67.6547 240.496 67.6872C241.642 67.7589 242.797 67.8381 243.925 67.9234C244.475 67.9647 244.889 68.4431 244.846 68.9934C244.806 69.5172 244.369 69.9158 243.85 69.9158ZM250.679 70.51C250.645 70.51 250.611 70.5087 250.58 70.5053C249.436 70.3929 248.294 70.286 247.179 70.1892C246.629 70.1419 246.224 69.658 246.273 69.1091C246.319 68.5602 246.803 68.1541 247.353 68.2015C248.473 68.299 249.625 68.4066 250.776 68.5196C251.324 68.5738 251.723 69.0617 251.668 69.6106C251.62 70.1256 251.185 70.51 250.679 70.51ZM199.395 70.5858C198.897 70.5858 198.466 70.2116 198.405 69.704C198.342 69.1571 198.733 68.661 199.28 68.5967C200.411 68.4655 201.562 68.3403 202.702 68.2266C203.248 68.1724 203.738 68.5717 203.793 69.1199C203.847 69.6681 203.447 70.1574 202.9 70.2116C201.772 70.3239 200.632 70.4484 199.512 70.579C199.473 70.5831 199.434 70.5858 199.395 70.5858ZM192.61 71.5035C192.126 71.5035 191.702 71.1509 191.625 70.6576C191.541 70.1134 191.915 69.6038 192.459 69.5205C193.585 69.3473 194.731 69.1808 195.866 69.0279C196.412 68.9548 196.914 69.3365 196.988 69.882C197.062 70.4281 196.679 70.931 196.133 71.0047C195.011 71.157 193.876 71.3208 192.763 71.492C192.712 71.5001 192.66 71.5035 192.61 71.5035ZM185.864 72.6737C185.396 72.6737 184.978 72.342 184.885 71.8649C184.78 71.3242 185.134 70.8003 185.675 70.6961C186.793 70.4802 187.933 70.2711 189.062 70.0755C189.605 69.9808 190.122 70.3456 190.216 70.8877C190.309 71.4311 189.946 71.9475 189.403 72.0415C188.286 72.2344 187.159 72.4409 186.053 72.6554C185.99 72.6676 185.926 72.6737 185.864 72.6737ZM179.169 74.1064C178.716 74.1064 178.306 73.7965 178.199 73.3362C178.073 72.8002 178.406 72.2635 178.942 72.137C180.05 71.8764 181.181 71.6233 182.302 71.383C182.84 71.2687 183.371 71.6118 183.486 72.1505C183.601 72.6886 183.258 73.2191 182.72 73.3342C181.611 73.5717 180.494 73.8215 179.399 74.0793C179.322 74.0976 179.246 74.1064 179.169 74.1064H179.169ZM172.537 75.8126C172.102 75.8126 171.702 75.5243 171.578 75.0837C171.43 74.5538 171.739 74.0029 172.269 73.8546C173.367 73.5467 174.487 73.2462 175.597 72.9606C176.131 72.8239 176.675 73.1447 176.812 73.678C176.949 74.212 176.628 74.7561 176.094 74.8928C174.998 75.1751 173.892 75.4715 172.809 75.7754C172.719 75.8011 172.628 75.8126 172.538 75.8126H172.537ZM165.987 77.803C165.567 77.803 165.178 77.5363 165.039 77.1154C164.868 76.5922 165.153 76.0285 165.677 75.8572C166.767 75.4992 167.873 75.15 168.962 74.819C169.49 74.658 170.047 74.9558 170.207 75.4837C170.366 76.0109 170.069 76.5678 169.542 76.7282C168.466 77.0551 167.374 77.3996 166.298 77.7529C166.195 77.7867 166.09 77.803 165.987 77.803ZM159.533 80.0871C159.13 80.0871 158.752 79.8414 158.6 79.4435C158.405 78.9285 158.663 78.3525 159.178 78.1562C160.24 77.7522 161.329 77.3529 162.414 76.9692C162.933 76.7858 163.503 77.0578 163.687 77.5776C163.87 78.0967 163.599 78.6672 163.079 78.8506C162.008 79.229 160.935 79.6228 159.886 80.0215C159.769 80.0661 159.65 80.0871 159.532 80.0871H159.533ZM153.192 82.6704C152.807 82.6704 152.441 82.4457 152.277 82.0708C152.057 81.5659 152.288 80.9777 152.793 80.7578C153.843 80.301 154.911 79.8502 155.97 79.4191C156.48 79.21 157.062 79.4563 157.27 79.9666C157.478 80.4762 157.233 81.0589 156.723 81.2667C155.678 81.6917 154.624 82.1357 153.59 82.5864C153.46 82.6433 153.325 82.6697 153.192 82.6697V82.6704ZM146.984 85.5575C146.617 85.5575 146.264 85.3538 146.09 85.0032C145.845 84.5098 146.047 83.9109 146.54 83.6666C147.559 83.1617 148.605 82.6596 149.65 82.1736C150.149 81.9415 150.743 82.1581 150.974 82.6575C151.207 83.157 150.99 83.7505 150.49 83.9827C149.46 84.4611 148.43 84.9558 147.426 85.454C147.285 85.5243 147.133 85.5575 146.984 85.5575ZM140.929 88.7519C140.579 88.7519 140.24 88.5685 140.058 88.2416C139.788 87.7611 139.959 87.1533 140.44 86.884C141.436 86.3263 142.455 85.772 143.471 85.2367C143.957 84.9802 144.561 85.1663 144.818 85.6536C145.075 86.1409 144.888 86.7446 144.401 87.0011C143.401 87.5283 142.396 88.0745 141.415 88.6247C141.261 88.7106 141.093 88.7519 140.929 88.7519ZM135.043 92.2509C134.712 92.2509 134.388 92.0864 134.199 91.7859C133.904 91.3196 134.044 90.7037 134.51 90.4093C135.47 89.8036 136.46 89.1979 137.453 88.6071C137.926 88.3255 138.539 88.4819 138.82 88.9549C139.101 89.4287 138.946 90.0412 138.473 90.322C137.494 90.9027 136.519 91.5003 135.575 92.0965C135.41 92.2008 135.225 92.2502 135.044 92.2502L135.043 92.2509ZM129.347 96.0516C129.033 96.0516 128.725 95.9048 128.531 95.6293C128.213 95.1793 128.32 94.5566 128.771 94.2392C129.708 93.5773 130.665 92.9215 131.615 92.2867C132.074 91.9808 132.693 92.1053 132.999 92.5628C133.305 93.0217 133.181 93.641 132.723 93.9469C131.787 94.5715 130.844 95.2185 129.921 95.8696C129.747 95.9927 129.546 96.0516 129.348 96.0516H129.347ZM123.857 100.145C123.562 100.145 123.27 100.017 123.074 99.7658C122.733 99.3334 122.807 98.706 123.24 98.3649C124.14 97.6556 125.061 96.949 125.978 96.2655C126.42 95.9352 127.044 96.0273 127.374 96.4685C127.704 96.9105 127.613 97.5358 127.171 97.8654C126.268 98.5388 125.361 99.2352 124.474 99.9316C124.292 100.076 124.074 100.145 123.857 100.145L123.857 100.145ZM118.592 104.526C118.315 104.526 118.039 104.412 117.842 104.187C117.479 103.77 117.519 103.14 117.934 102.778C118.792 102.026 119.675 101.27 120.558 100.537C120.982 100.184 121.611 100.241 121.963 100.666C122.316 101.088 122.258 101.718 121.835 102.071C120.966 102.792 120.097 103.536 119.25 104.277C119.061 104.442 118.826 104.526 118.592 104.526ZM113.563 109.177C113.303 109.177 113.045 109.075 112.848 108.875C112.464 108.479 112.472 107.849 112.867 107.463C113.69 106.663 114.531 105.862 115.369 105.087C115.774 104.714 116.405 104.739 116.779 105.143C117.153 105.545 117.128 106.178 116.724 106.552C115.899 107.316 115.07 108.102 114.259 108.892C114.065 109.082 113.814 109.177 113.563 109.177ZM108.783 114.082C108.541 114.082 108.298 113.994 108.105 113.817C107.701 113.444 107.676 112.811 108.051 112.406C108.831 111.563 109.63 110.722 110.427 109.904C110.811 109.511 111.443 109.502 111.838 109.887C112.232 110.271 112.241 110.902 111.856 111.298C111.072 112.102 110.284 112.931 109.515 113.764C109.318 113.975 109.052 114.082 108.783 114.082ZM104.259 119.227C104.034 119.227 103.807 119.153 103.62 118.996C103.197 118.642 103.141 118.012 103.494 117.591C104.226 116.713 104.981 115.832 105.739 114.968C106.104 114.555 106.734 114.515 107.148 114.88C107.561 115.242 107.602 115.872 107.238 116.285C106.491 117.137 105.748 118.004 105.025 118.871C104.828 119.105 104.545 119.227 104.259 119.227ZM99.9997 124.594C99.7905 124.594 99.5801 124.528 99.4 124.394C98.9601 124.061 98.8722 123.437 99.2038 122.995C99.8934 122.083 100.603 121.161 101.315 120.267C101.657 119.834 102.284 119.763 102.716 120.105C103.148 120.447 103.22 121.074 102.877 121.507C102.176 122.391 101.476 123.297 100.796 124.198C100.6 124.457 100.302 124.594 99.999 124.594H99.9997ZM96.008 130.163C95.8151 130.163 95.6189 130.106 95.4477 129.99C94.9922 129.679 94.8744 129.061 95.1844 128.604C95.8341 127.652 96.498 126.7 97.1606 125.777C97.4814 125.33 98.1047 125.227 98.5527 125.546C99.0001 125.868 99.1029 126.489 98.7828 126.937C98.1297 127.849 97.4746 128.787 96.8337 129.727C96.6408 130.012 96.3275 130.163 96.0087 130.163H96.008ZM92.2851 135.918C92.1071 135.918 91.927 135.87 91.7639 135.77C91.2949 135.482 91.1481 134.87 91.4364 134.399C92.0401 133.415 92.6587 132.435 93.2766 131.48C93.5757 131.016 94.1929 130.885 94.6565 131.184C95.1188 131.484 95.2521 132.102 94.9522 132.564C94.3431 133.504 93.7327 134.474 93.1371 135.442C92.949 135.75 92.6214 135.918 92.2857 135.918H92.2851ZM88.8322 141.838C88.669 141.838 88.5026 141.798 88.3503 141.713C87.8677 141.447 87.6931 140.841 87.9604 140.359C88.5174 139.35 89.0913 138.342 89.6646 137.357C89.9421 136.882 90.5525 136.722 91.0283 136.998C91.5041 137.278 91.6651 137.887 91.387 138.363C90.8219 139.332 90.2554 140.33 89.7052 141.325C89.5238 141.653 89.1827 141.838 88.8322 141.838ZM85.6465 147.909C85.4976 147.909 85.3454 147.875 85.2033 147.804C84.7106 147.559 84.5089 146.96 84.7546 146.467C85.2662 145.438 85.7947 144.404 86.3233 143.394C86.5798 142.908 87.1828 142.719 87.6701 142.975C88.1581 143.233 88.3462 143.834 88.0904 144.321C87.5679 145.318 87.0461 146.338 86.5406 147.356C86.3666 147.707 86.0133 147.909 85.6465 147.909ZM82.7262 154.111C82.5909 154.111 82.4522 154.083 82.3209 154.026C81.8173 153.801 81.5913 153.21 81.8153 152.706C82.283 151.657 82.7655 150.603 83.2521 149.571C83.4869 149.073 84.0805 148.859 84.5793 149.096C85.0774 149.329 85.2912 149.925 85.0564 150.421C84.5766 151.441 84.1001 152.484 83.6372 153.518C83.472 153.892 83.1079 154.112 82.7262 154.112V154.111ZM80.0679 160.433C79.9454 160.433 79.8202 160.41 79.6997 160.362C79.1881 160.159 78.937 159.577 79.1407 159.068C79.563 158.002 80.0015 156.928 80.4448 155.873C80.6587 155.366 81.2441 155.126 81.751 155.34C82.2586 155.554 82.4975 156.138 82.2836 156.648C81.8457 157.689 81.4119 158.748 80.995 159.803C80.8401 160.194 80.4645 160.434 80.0679 160.434V160.433ZM77.668 166.857C77.5591 166.857 77.4467 166.837 77.3377 166.8C76.818 166.618 76.5446 166.047 76.7266 165.529C77.1056 164.448 77.5008 163.357 77.9008 162.285C78.093 161.77 78.6676 161.508 79.184 161.698C79.6997 161.891 79.9623 162.467 79.7694 162.983C79.3742 164.041 78.983 165.12 78.6087 166.187C78.4646 166.6 78.0795 166.857 77.6673 166.857H77.668ZM75.5267 173.372C75.4292 173.372 75.3304 173.358 75.233 173.33C74.7064 173.168 74.4107 172.609 74.5718 172.082C74.9088 170.987 75.26 169.881 75.6174 168.795C75.7893 168.271 76.3537 167.986 76.8762 168.157C77.3993 168.33 77.6843 168.895 77.513 169.416C77.1598 170.491 76.8126 171.586 76.4796 172.668C76.3476 173.095 75.953 173.372 75.5267 173.372ZM73.6418 179.971C73.5572 179.971 73.4713 179.959 73.3853 179.936C72.8527 179.797 72.5353 179.249 72.6761 178.717C72.9691 177.611 73.2777 176.491 73.5911 175.39C73.7427 174.86 74.2949 174.555 74.8249 174.706C75.3541 174.857 75.6607 175.407 75.5098 175.937C75.1984 177.026 74.8939 178.132 74.6049 179.226C74.4865 179.674 74.0831 179.97 73.6418 179.97V179.971ZM72.0169 186.64C71.9452 186.64 71.8721 186.632 71.799 186.615C71.2609 186.495 70.9219 185.962 71.0417 185.423C71.2894 184.312 71.5526 183.18 71.8254 182.063C71.956 181.527 72.4967 181.199 73.0307 181.33C73.5661 181.458 73.8943 182 73.7643 182.535C73.4943 183.642 73.2344 184.759 72.9894 185.859C72.8859 186.324 72.4737 186.64 72.0169 186.64ZM70.662 193.372C70.6038 193.372 70.5442 193.366 70.4853 193.357C69.9432 193.261 69.5825 192.742 69.6793 192.198C69.881 191.077 70.0982 189.934 70.3263 188.803C70.4346 188.265 70.9618 187.914 71.5012 188.022C72.0406 188.13 72.3905 188.658 72.2822 189.196C72.0568 190.317 71.8423 191.445 71.6433 192.552C71.5567 193.033 71.1364 193.372 70.662 193.372ZM69.6049 200.169C69.5622 200.169 69.5189 200.167 69.4756 200.161C68.9294 200.09 68.5444 199.591 68.6147 199.044C68.7589 197.932 68.9254 196.777 69.1068 195.612C69.1914 195.068 69.703 194.694 70.2464 194.779C70.7906 194.865 71.1628 195.376 71.0775 195.92C70.8988 197.068 70.7358 198.206 70.5936 199.3C70.528 199.802 70.0989 200.169 69.6049 200.169Z" fill="#FF9136"/>
<path d="M69.0753 205.26L69.0157 205.257C68.4662 205.225 68.0465 204.752 68.0784 204.202C68.0804 204.176 68.1156 203.578 68.2239 202.461C68.2774 201.914 68.7653 201.509 69.3135 201.566C69.861 201.62 70.263 202.108 70.2095 202.655C70.106 203.727 70.0708 204.314 70.0708 204.319C70.039 204.849 69.5998 205.26 69.0753 205.26Z" fill="#FF9136"/>
<path d="M762.992 267.212H0.858134C0.38642 267.212 0 266.825 0 266.355C0 265.882 0.386437 265.497 0.858828 265.497H762.992C763.463 265.497 763.85 265.882 763.85 266.355C763.85 266.825 763.463 267.212 762.992 267.212Z" fill="#373535"/>
<path d="M377.561 146.675C377.209 146.871 376.838 146.913 376.449 146.802C376.059 146.691 375.77 146.466 375.583 146.129C375.387 145.777 375.344 145.406 375.455 145.017C375.677 144.24 376.471 143.783 377.251 144.016C377.634 144.131 377.923 144.364 378.118 144.716C378.306 145.054 378.349 145.416 378.245 145.802C378.141 146.187 377.912 146.478 377.561 146.674V146.675ZM378.536 141.943L378.497 141.966L377.117 139.533L376.646 138.7L375.814 137.232C375.733 137.088 375.68 136.934 375.653 136.779C375.62 136.578 375.631 136.373 375.685 136.179C375.781 135.833 376.01 135.523 376.351 135.335C377.019 134.966 377.86 135.217 378.236 135.881L379.057 137.33L379.489 138.092C379.489 138.092 379.489 138.092 379.489 138.092C380.086 137.268 380.28 136.199 379.989 135.203C379.922 134.976 379.831 134.754 379.713 134.538C377.604 130.682 371.706 133.933 373.886 137.78L374.636 139.103L374.873 139.521L376.166 141.804C376.989 143.26 374.998 144.315 374.093 143.312L374.083 143.301L374.072 143.289L374.062 143.277L374.051 143.264L374.041 143.252L374.031 143.239L374.021 143.226L374.012 143.214L374.002 143.201L373.992 143.187L373.983 143.174L373.974 143.16L373.964 143.147L373.955 143.133L373.947 143.119L373.938 143.105L373.93 143.09L373.922 143.076C371.847 139.413 369.372 135.705 372.325 132.264C372.924 131.566 373.681 131.021 374.532 130.67C375.779 130.152 377.128 130.095 378.365 130.436C381.246 131.234 383.514 134.252 382.551 137.731C382.433 138.161 382.265 138.578 382.052 138.972C381.159 140.626 380.067 141.13 378.561 141.983L378.538 141.943H378.536ZM372.424 137.953C372.424 137.954 372.424 137.953 372.424 137.953V137.953Z" fill="white"/>
<path d="M226.485 116.431C226.098 116.647 225.69 116.693 225.261 116.571C224.832 116.449 224.514 116.201 224.307 115.829C224.091 115.442 224.045 115.034 224.167 114.605C224.411 113.749 225.285 113.248 226.143 113.504C226.565 113.63 226.884 113.888 227.099 114.275C227.306 114.647 227.353 115.045 227.238 115.47C227.123 115.895 226.872 116.215 226.485 116.43V116.431ZM227.56 111.221L227.516 111.246L225.997 108.566L225.478 107.65L224.562 106.034C224.473 105.874 224.414 105.705 224.386 105.535C224.348 105.313 224.361 105.087 224.42 104.874C224.525 104.492 224.778 104.151 225.154 103.945C225.889 103.539 226.815 103.816 227.229 104.546L228.132 106.141L228.609 106.982C228.609 106.981 228.609 106.981 228.609 106.98C228.609 106.981 228.609 106.98 228.609 106.98C229.265 106.073 229.48 104.897 229.158 103.799C229.086 103.55 228.985 103.305 228.855 103.067C226.533 98.8218 220.038 102.401 222.439 106.638L223.265 108.095L223.526 108.555L224.949 111.068C225.856 112.671 223.664 113.833 222.667 112.73L222.656 112.716L222.644 112.703L222.633 112.69H222.632L222.621 112.676L222.61 112.663L222.599 112.648L222.587 112.634L222.577 112.62L222.567 112.606L222.556 112.591L222.546 112.576L222.535 112.562L222.525 112.547L222.516 112.531L222.506 112.516L222.497 112.5L222.487 112.485L222.478 112.468C220.193 108.436 217.469 104.352 220.72 100.564C221.38 99.7943 222.214 99.194 223.15 98.8082C224.524 98.239 226.009 98.1748 227.371 98.5517C230.543 99.4295 233.041 102.753 231.981 106.584C231.85 107.057 231.665 107.516 231.431 107.95C230.447 109.772 229.245 110.326 227.586 111.266L227.561 111.222L227.56 111.221ZM220.829 106.827C220.829 106.827 220.829 106.827 220.829 106.827V106.827Z" fill="white"/>
<path d="M162.267 223.803C162.016 223.943 161.752 223.973 161.474 223.894C161.195 223.815 160.989 223.654 160.854 223.414C160.714 223.162 160.684 222.898 160.764 222.619C160.921 222.065 161.488 221.738 162.045 221.905C162.319 221.987 162.525 222.154 162.665 222.404C162.799 222.646 162.83 222.904 162.755 223.18C162.681 223.455 162.518 223.663 162.267 223.803ZM162.965 220.424L162.936 220.44L161.951 218.702L161.614 218.107L161.019 217.059C160.961 216.956 160.923 216.845 160.905 216.735C160.881 216.592 160.889 216.444 160.927 216.306C160.996 216.058 161.16 215.838 161.403 215.703C161.88 215.44 162.481 215.619 162.749 216.093L163.335 217.128L163.644 217.672H163.645C163.645 217.672 163.645 217.672 163.645 217.672C164.07 217.084 164.209 216.32 164.001 215.609C163.954 215.447 163.888 215.287 163.804 215.134C162.298 212.381 158.085 214.702 159.642 217.45L160.178 218.395L160.346 218.694L161.269 220.323C161.858 221.364 160.435 222.118 159.789 221.401L159.782 221.393L159.774 221.385L159.767 221.376H159.766L159.759 221.367L159.752 221.358L159.744 221.349L159.738 221.34L159.731 221.33L159.723 221.322L159.717 221.312L159.71 221.302L159.704 221.293L159.697 221.283L159.691 221.273L159.684 221.263L159.678 221.253L159.672 221.243L159.667 221.232C158.184 218.617 156.417 215.968 158.526 213.51C158.953 213.011 159.495 212.622 160.102 212.371C160.993 212.002 161.956 211.96 162.84 212.205C164.897 212.775 166.517 214.93 165.829 217.415C165.745 217.723 165.625 218.02 165.473 218.301C164.834 219.483 164.055 219.842 162.979 220.452L162.963 220.424H162.965ZM158.599 217.574C158.599 217.574 158.599 217.574 158.599 217.574V217.574Z" fill="white"/>
</svg>
