<svg width="637" height="682" viewBox="0 0 637 682" fill="none" xmlns="http://www.w3.org/2000/svg">
<path d="M366.98 165.694C366.871 165.652 366.769 165.607 366.664 165.551C365.315 164.835 364.804 163.16 365.519 161.814C366.557 159.867 367.612 157.914 368.676 155.955C369.407 154.615 371.083 154.112 372.429 154.855C373.761 155.583 374.256 157.264 373.528 158.602C372.467 160.543 371.425 162.482 370.401 164.41C369.735 165.653 368.257 166.18 366.98 165.694H366.98Z" fill="#F65216"/>
<path d="M523.888 45.3575C523.681 45.2787 523.48 45.1737 523.295 45.0406C519.975 42.734 516.203 40.6844 512.091 38.9508C510.687 38.3587 510.024 36.7392 510.621 35.3324C511.195 33.9581 512.76 33.2937 514.145 33.8224C514.174 33.8341 514.207 33.8486 514.233 33.8567C518.703 35.7415 522.809 37.9758 526.447 40.5042C527.7 41.3787 528.008 43.097 527.14 44.3481C526.403 45.4163 525.047 45.802 523.888 45.3566V45.3575ZM636.776 370.066V376.975C634.52 375.344 632.342 373.648 630.265 371.901C629.097 370.921 628.942 369.177 629.927 368.011C630.904 366.84 632.646 366.682 633.816 367.67C634.78 368.481 635.768 369.28 636.776 370.066ZM486.064 36.148C485.196 35.8158 484.51 35.0454 484.331 34.0641C484.056 32.5631 485.049 31.1228 486.547 30.8485C491.33 29.9667 496.054 29.7685 500.609 30.2456C502.124 30.4122 503.23 31.7655 503.067 33.2837C502.909 34.8019 501.545 35.8991 500.031 35.7425C496.003 35.317 491.808 35.5035 487.544 36.2829C487.031 36.3762 486.522 36.3227 486.064 36.1489V36.148ZM540.866 65.5299C540.21 65.2791 539.652 64.7794 539.337 64.0905C537.583 60.2322 535.328 56.659 532.637 53.4797C531.653 52.3173 531.802 50.5719 532.966 49.5888C534.124 48.6002 535.872 48.7378 536.86 49.9101C539.881 53.4815 542.407 57.4837 544.369 61.8056C544.999 63.1961 544.39 64.8337 542.997 65.4638C542.297 65.7843 541.533 65.7861 540.865 65.5308L540.866 65.5299ZM461.496 46.2591C460.947 46.0482 460.47 45.6662 460.134 45.1311C459.33 43.8411 459.726 42.1319 461.019 41.3271C465.137 38.7679 469.247 36.6151 473.226 34.9277C474.631 34.3329 476.254 34.9874 476.847 36.3906C477.444 37.7974 476.791 39.4206 475.382 40.0154C471.663 41.5933 467.811 43.6139 463.935 46.0192C463.175 46.4945 462.272 46.5552 461.496 46.2591H461.496ZM546.006 91.5586C544.966 91.1612 544.226 90.1536 544.231 88.974C544.226 84.4874 543.849 80.1855 543.1 76.1914C542.814 74.685 543.804 73.2429 545.304 72.9632C546.813 72.6816 548.249 73.6648 548.529 75.1702C549.343 79.5038 549.758 84.1471 549.754 88.9767C549.754 90.503 548.517 91.7379 546.992 91.7379C546.646 91.7379 546.308 91.6736 546.006 91.5586ZM440.444 62.7009C440.062 62.5551 439.71 62.3207 439.411 62.0029C438.369 60.8894 438.433 59.1413 439.548 58.1002C443.003 54.8756 446.469 51.8891 449.854 49.2266C451.052 48.2743 452.792 48.4825 453.734 49.6811C454.676 50.8806 454.469 52.616 453.279 53.5611C450.009 56.133 446.659 59.0218 443.315 62.1396C442.517 62.8828 441.4 63.0648 440.444 62.7009ZM542.405 117.997C541.112 117.504 540.368 116.112 540.714 114.738C541.829 110.36 542.686 106.046 543.269 101.917C543.483 100.407 544.88 99.354 546.39 99.5713C547.906 99.7858 548.956 101.182 548.743 102.693C548.128 107.017 547.237 111.528 546.071 116.097C545.699 117.576 544.192 118.47 542.716 118.098C542.607 118.068 542.508 118.037 542.406 117.998L542.405 117.997ZM422.051 82.1047C421.768 81.9988 421.494 81.8422 421.248 81.6331C420.084 80.6418 419.947 78.8991 420.935 77.7385C423.944 74.2043 426.975 70.8186 429.955 67.6654C430.997 66.5538 432.739 66.5022 433.86 67.5514C434.962 68.597 435.013 70.346 433.968 71.455C431.056 74.5393 428.089 77.8562 425.143 81.3198C424.361 82.2351 423.122 82.5157 422.05 82.1056L422.051 82.1047ZM533.658 143.257C533.623 143.244 533.578 143.221 533.541 143.207C532.14 142.6 531.5 140.971 532.105 139.569C533.216 137.021 534.266 134.451 535.23 131.924C535.812 130.406 536.376 128.868 536.919 127.315C537.42 125.871 538.995 125.117 540.434 125.616C541.91 126.168 542.637 127.693 542.133 129.136C541.573 130.736 540.997 132.325 540.398 133.895C539.402 136.5 538.314 139.152 537.174 141.774C536.583 143.135 535.033 143.781 533.658 143.257ZM405.564 103.172C405.342 103.086 405.124 102.972 404.923 102.825C403.688 101.932 403.413 100.206 404.311 98.9674C407 95.2639 409.725 91.6383 412.41 88.1955C413.353 86.9978 415.086 86.7796 416.292 87.722C417.494 88.6626 417.706 90.3989 416.769 91.6029C414.121 94.9878 411.431 98.561 408.785 102.213C408.033 103.246 406.704 103.608 405.564 103.172V103.172ZM521.249 166.921C521.081 166.856 520.921 166.78 520.765 166.682C519.471 165.866 519.083 164.161 519.893 162.871C522.13 159.31 524.328 155.468 526.418 151.451C527.126 150.1 528.802 149.587 530.151 150.286C531.501 150.992 532.022 152.66 531.319 154.018C529.152 158.151 526.886 162.122 524.57 165.807C523.856 166.942 522.459 167.384 521.248 166.922L521.249 166.921ZM390.511 125.298C390.338 125.232 390.172 125.148 390.011 125.047C388.729 124.224 388.349 122.515 389.172 121.228C391.614 117.415 394.104 113.637 396.577 109.994C397.437 108.732 399.149 108.405 400.412 109.257C401.673 110.117 402.005 111.837 401.148 113.098C398.703 116.699 396.238 120.434 393.827 124.205C393.11 125.332 391.715 125.759 390.51 125.299L390.511 125.298ZM579.03 212.246C577.801 211.777 577.051 210.481 577.316 209.14C577.597 207.64 579.053 206.664 580.548 206.955C583.196 207.469 585.833 207.996 588.446 208.541C590.44 208.96 592.306 209.492 594.001 210.132C594.007 210.135 594.007 210.135 594.014 210.137C595.435 210.68 596.146 212.269 595.611 213.695C595.073 215.122 593.479 215.844 592.047 215.304C590.617 214.764 589.029 214.311 587.317 213.95C584.734 213.411 582.116 212.888 579.493 212.379C579.338 212.348 579.178 212.303 579.03 212.246ZM516.668 191.438C516.174 191.252 515.736 190.92 515.406 190.453C512.336 186.103 511.645 181.005 513.343 175.312C513.785 173.853 515.326 173.022 516.782 173.457C518.257 173.899 519.076 175.432 518.635 176.896C517.431 180.939 517.846 184.33 519.915 187.263C520.796 188.511 520.498 190.236 519.257 191.115C518.471 191.663 517.507 191.76 516.669 191.438H516.668ZM552.777 207.123C551.528 206.646 550.777 205.313 551.063 203.961C551.394 202.472 552.858 201.523 554.35 201.842C558.827 202.804 563.456 203.704 567.399 204.455C568.905 204.736 569.876 206.186 569.591 207.684C569.308 209.181 567.862 210.168 566.364 209.881C562.388 209.123 557.722 208.219 553.188 207.243C553.046 207.214 552.911 207.173 552.777 207.123ZM531.581 201.252C529.944 200.628 528.416 199.978 527.028 199.323C525.656 198.672 525.063 197.025 525.715 195.641C526.372 194.266 528.016 193.673 529.396 194.327C532.633 195.858 536.645 197.317 541.537 198.706C542.995 199.133 543.85 200.654 543.44 202.123C543.018 203.587 541.492 204.44 540.023 204.021C536.871 203.124 534.11 202.219 531.58 201.252H531.581ZM606.262 235.844C605.295 235.475 604.578 234.582 604.496 233.487C604.112 228.776 602.999 225.072 601.089 222.162C600.25 220.886 600.606 219.175 601.879 218.333C603.155 217.502 604.872 217.854 605.708 219.13C608.141 222.834 609.546 227.386 610 233.042C610.12 234.561 608.984 235.891 607.466 236.015C607.046 236.054 606.635 235.986 606.262 235.845V235.844ZM376.654 148.186C376.518 148.136 376.386 148.073 376.257 148.002C374.935 147.243 374.483 145.552 375.238 144.231C377.493 140.307 379.796 136.414 382.07 132.651C382.856 131.341 384.554 130.929 385.861 131.718C387.164 132.505 387.581 134.208 386.792 135.51C384.536 139.24 382.263 143.099 380.031 146.98C379.347 148.177 377.901 148.663 376.654 148.186ZM603.901 262.43C602.692 261.969 601.943 260.706 602.167 259.384C602.807 255.682 603.598 250.85 604.094 246.31C604.261 244.793 605.63 243.701 607.145 243.865C608.659 244.032 609.756 245.396 609.589 246.912C609.078 251.601 608.265 256.541 607.612 260.321C607.356 261.825 605.928 262.834 604.424 262.575C604.243 262.542 604.07 262.494 603.902 262.43H603.901ZM599.58 288.844C598.421 288.402 597.666 287.215 597.828 285.927C598.315 282.008 598.936 277.891 599.845 272.568C600.103 271.064 601.535 270.054 603.037 270.312C604.542 270.577 605.551 272 605.295 273.506C604.397 278.738 603.788 282.778 603.316 286.609C603.121 288.119 601.745 289.196 600.233 289.008C600.006 288.983 599.785 288.923 599.58 288.844ZM598.948 315.55C598.017 315.194 597.304 314.336 597.188 313.278C596.7 308.97 596.548 304.467 596.708 299.516C596.758 297.993 598.032 296.794 599.56 296.843C601.082 296.897 602.283 298.173 602.23 299.698C602.08 304.382 602.222 308.618 602.676 312.659C602.85 314.173 601.761 315.543 600.241 315.714C599.788 315.761 599.347 315.703 598.948 315.551V315.55ZM606.449 341.085C605.806 340.839 605.255 340.356 604.94 339.691C602.965 335.55 601.3 331.221 599.996 326.824C599.559 325.361 600.389 323.822 601.853 323.388C603.314 322.955 604.854 323.786 605.291 325.247C606.516 329.372 608.076 333.429 609.932 337.316C610.585 338.694 609.998 340.342 608.622 340.995C607.91 341.335 607.126 341.343 606.449 341.084L606.449 341.085ZM621.397 363.127C621.008 362.983 620.65 362.744 620.347 362.415C617.221 359.002 614.35 355.376 611.804 351.638C610.943 350.377 611.276 348.658 612.529 347.799C613.795 346.944 615.512 347.267 616.371 348.53C618.765 352.048 621.479 355.466 624.426 358.686C625.453 359.813 625.376 361.557 624.253 362.59C623.452 363.316 622.346 363.492 621.397 363.126V363.127Z" fill="#F65216"/>
<path d="M79.595 391.446C78.5069 391.029 77.7582 389.944 77.8216 388.718C77.904 387.193 79.1976 386.023 80.7221 386.102C82.5001 386.193 84.5723 386.099 86.8591 385.813C88.3772 385.628 89.7515 386.713 89.9389 388.23C90.1199 389.742 89.0435 391.116 87.5263 391.304C84.9227 391.62 82.5372 391.727 80.4424 391.62C80.1446 391.608 79.8567 391.546 79.595 391.447V391.446Z" fill="#F65216"/>
<path d="M193.731 98.9285C192.472 98.4468 191.721 97.0917 192.025 95.7328C192.367 94.2418 193.848 93.3139 195.335 93.6525C199.549 94.6139 204.046 96.1538 208.5 98.1536C209.891 98.7791 210.513 100.411 209.892 101.804C209.267 103.196 207.624 103.839 206.235 103.192C202.11 101.339 197.963 99.9207 194.107 99.0425C193.981 99.0136 193.855 98.9746 193.731 98.9294V98.9285ZM229.15 117.243C228.907 117.15 228.665 117.014 228.448 116.844C224.875 114.081 221.259 111.556 217.697 109.343C216.411 108.538 216.013 106.835 216.813 105.538C217.62 104.242 219.327 103.838 220.617 104.648C224.341 106.963 228.111 109.595 231.83 112.48C233.035 113.411 233.25 115.144 232.316 116.354C231.556 117.338 230.254 117.665 229.149 117.243H229.15ZM167.784 101.826C167.218 101.608 166.723 101.213 166.389 100.649C165.619 99.3313 166.05 97.6375 167.373 96.8671C171.492 94.4337 176.145 92.9789 181.193 92.5344C182.709 92.3978 184.051 93.5221 184.185 95.0403C184.319 96.5621 183.194 97.9019 181.676 98.0368C177.452 98.4098 173.588 99.6192 170.173 101.627C169.422 102.072 168.542 102.117 167.783 101.827L167.784 101.826ZM248.824 135.368C248.445 135.224 248.088 134.984 247.79 134.665C244.797 131.425 241.661 128.29 238.471 125.348C237.349 124.314 237.281 122.565 238.316 121.445C239.353 120.321 241.101 120.253 242.219 121.286C245.516 124.329 248.753 127.568 251.844 130.913C252.881 132.035 252.81 133.782 251.688 134.817C250.891 135.552 249.776 135.732 248.824 135.368ZM265.301 156.449C264.766 156.245 264.298 155.879 263.967 155.37C261.662 151.812 259.093 148.213 256.325 144.684C255.379 143.484 255.596 141.747 256.794 140.807C257.993 139.864 259.729 140.073 260.674 141.277C263.543 144.939 266.215 148.669 268.604 152.37C269.436 153.648 269.068 155.361 267.786 156.189C267.015 156.686 266.09 156.753 265.299 156.449H265.301ZM150.609 121.972C150.488 121.924 150.362 121.866 150.246 121.802C148.906 121.058 148.431 119.374 149.174 118.043C151.427 114.009 154.001 110.146 156.835 106.55C157.78 105.354 159.516 105.143 160.718 106.091C161.914 107.035 162.117 108.773 161.175 109.97C158.525 113.332 156.112 116.954 154.005 120.736C153.326 121.951 151.868 122.452 150.609 121.972ZM141.088 146.892C139.814 146.407 139.06 145.038 139.39 143.674C140.475 139.11 141.815 134.691 143.382 130.549C143.928 129.121 145.524 128.402 146.947 128.942C146.953 128.943 146.953 128.943 146.957 128.945C148.381 129.488 149.092 131.079 148.555 132.502C147.071 136.429 145.798 140.616 144.768 144.953C144.415 146.438 142.923 147.356 141.436 147C141.317 146.973 141.204 146.938 141.089 146.893L141.088 146.892ZM137.572 173.391C136.491 172.977 135.749 171.906 135.804 170.689C136.011 165.995 136.397 161.429 136.953 157.121C137.146 155.608 138.531 154.541 140.045 154.733C141.563 154.931 142.625 156.315 142.431 157.829C141.9 161.985 141.524 166.392 141.32 170.932C141.254 172.456 139.962 173.634 138.441 173.572C138.135 173.556 137.843 173.492 137.572 173.391ZM138.082 200.158C137.103 199.785 136.389 198.878 136.309 197.772C135.971 193.083 135.753 188.539 135.662 184.255C135.629 182.726 136.841 181.469 138.368 181.438C139.893 181.403 141.155 182.613 141.183 184.136C141.279 188.33 141.487 192.782 141.819 197.375C141.929 198.9 140.783 200.222 139.264 200.329C138.846 200.36 138.443 200.296 138.082 200.158ZM140.947 226.794C140.034 226.444 139.331 225.624 139.192 224.581C138.537 219.789 137.998 215.416 137.537 211.216C137.374 209.694 138.469 208.33 139.983 208.17C141.497 208.004 142.867 209.093 143.029 210.618C143.487 214.765 144.02 219.094 144.663 223.845C144.874 225.351 143.811 226.744 142.302 226.95C141.831 227.013 141.368 226.954 140.947 226.794ZM144.948 253.286C144.052 252.944 143.36 252.151 143.201 251.142C142.499 246.747 141.796 242.33 141.118 237.886C140.894 236.373 141.925 234.966 143.432 234.735C144.944 234.511 146.355 235.546 146.58 237.05C147.255 241.479 147.961 245.889 148.654 250.274C148.895 251.782 147.868 253.195 146.362 253.438C145.868 253.515 145.386 253.452 144.948 253.286ZM149.003 279.776C148.092 279.427 147.392 278.607 147.252 277.573C146.71 273.704 146.085 269.511 145.285 264.362C145.058 262.858 146.089 261.447 147.594 261.212C149.107 260.974 150.517 262.013 150.751 263.516C151.55 268.691 152.176 272.909 152.72 276.809C152.933 278.319 151.876 279.716 150.366 279.926C149.891 279.995 149.42 279.934 149.003 279.776H149.003ZM151.832 306.411C150.856 306.037 150.132 305.115 150.064 303.999C149.815 299.884 149.437 295.563 148.908 290.785C148.749 289.263 149.844 287.905 151.358 287.743C152.871 287.576 154.238 288.664 154.405 290.177C154.942 295.048 155.322 299.46 155.58 303.665C155.673 305.181 154.514 306.492 152.989 306.59C152.581 306.612 152.192 306.55 151.833 306.412L151.832 306.411ZM151.246 333.137C150.073 332.691 149.317 331.489 149.495 330.193C150.029 326.209 150.333 321.828 150.401 317.17C150.422 315.646 151.676 314.419 153.207 314.452C154.731 314.471 155.947 315.727 155.924 317.253C155.854 322.131 155.528 326.725 154.972 330.916C154.772 332.436 153.38 333.494 151.87 333.294C151.643 333.267 151.438 333.211 151.246 333.137ZM142.366 358.119C142.177 358.046 141.994 357.949 141.816 357.836C140.549 356.983 140.203 355.267 141.055 353.999C143.16 350.839 144.893 347.505 146.196 344.091C146.372 343.63 146.542 343.161 146.704 342.696C147.205 341.25 148.781 340.488 150.216 340.982C151.687 341.521 152.424 343.06 151.927 344.497C151.748 345.024 151.556 345.548 151.36 346.062C149.908 349.864 147.984 353.567 145.648 357.063C144.922 358.156 143.54 358.566 142.367 358.119H142.366ZM123.331 376.702C122.823 376.51 122.356 376.161 122.032 375.669C121.174 374.399 121.511 372.688 122.779 371.835C126.46 369.351 129.849 366.636 132.824 363.766C133.922 362.7 135.678 362.739 136.731 363.832C137.799 364.932 137.762 366.678 136.662 367.741C133.447 370.839 129.814 373.755 125.863 376.419C125.09 376.94 124.146 377.016 123.33 376.703L123.331 376.702ZM99.2554 388.225C98.4977 387.936 97.8667 387.304 97.6051 386.47C97.1497 385.012 97.9563 383.464 99.4157 383.002C103.498 381.725 107.565 380.124 111.501 378.245C112.879 377.59 114.527 378.177 115.182 379.555C115.845 380.926 115.258 382.576 113.881 383.235C109.707 385.224 105.394 386.923 101.07 388.278C100.45 388.47 99.813 388.439 99.2554 388.226V388.225Z" fill="#F65216"/>
<path d="M274.7 174.136C274.008 173.871 273.425 173.335 273.125 172.599C272.348 170.692 271.457 168.72 270.476 166.741C269.798 165.372 270.361 163.717 271.727 163.04C273.091 162.361 274.757 162.923 275.426 164.289C276.468 166.39 277.417 168.484 278.237 170.509C278.811 171.926 278.138 173.536 276.723 174.117C276.048 174.39 275.328 174.377 274.699 174.136H274.7Z" fill="#F65216"/>
<path d="M61.5063 382.901C57.0822 381.21 52.1077 383.436 50.4157 387.869C48.7246 392.292 50.9534 397.264 55.3775 398.951C59.8035 400.642 64.7798 398.422 66.4673 393.998C68.1601 389.568 65.9322 384.591 61.5063 382.902V382.901ZM53.4058 404.117C46.1328 401.341 42.4827 393.167 45.2583 385.899C48.0338 378.626 56.2022 374.964 63.4771 377.742C70.7537 380.518 74.4111 388.695 71.6319 395.97C68.8581 403.237 60.6825 406.895 53.4058 404.117Z" fill="#F65216"/>
<path d="M594.054 681.105C569.25 648.409 545.771 626.878 513.026 602.346C486.363 582.358 437.137 560.262 418.573 551.554C402.543 544.04 368.376 530.639 344.68 522.104C336.335 519.095 329.288 516.711 324.771 515.421C307.35 510.472 292.45 499.677 268.222 475.377C243.998 451.077 232.049 445.953 224.39 438.487C216.741 431.022 218.186 416.813 218.186 416.813C203.086 408.777 196.026 410.906 194.755 380.039C194.161 365.543 195.724 354.623 197.551 347.113C199.624 338.62 202.036 334.484 202.036 334.484L202.028 334.472C201.768 333.812 193.63 312.894 193.859 299.85C194.086 286.915 205.261 275.78 205.791 275.258L205.806 275.237C205.806 275.237 173.832 259.346 179.91 237.48C180.175 236.534 180.49 235.658 180.858 234.85C188.872 217.198 219.837 234.034 219.837 234.034L443.255 287.256C443.255 287.256 441.209 282.392 438.213 274.636C427.903 247.861 406.405 186.535 419.631 171.774C421.904 169.23 424.015 167.234 425.982 165.716C438.732 155.866 445.379 166.27 452.642 180.115C461.021 196.093 477.04 204.339 494.698 241.743C512.357 279.147 521.545 277.697 535.204 297.026C548.11 315.286 550.526 331.622 568.65 362.954C572.731 370.02 575.453 376.496 577.312 382.496L577.309 382.504C583.699 403.13 579.909 418.026 586.373 431.048C587.363 433.048 599.454 462.398 616.23 474.813C624.891 481.217 630.973 486.991 636.773 493.117V681.106H594.051L594.054 681.105Z" fill="#B96B43"/>
<path d="M438.22 274.641C427.905 247.86 406.406 186.537 419.638 171.775C421.904 169.23 424.017 167.232 425.981 165.716C422.54 172.834 421.617 183.897 433.242 200.814C452.68 229.101 456.044 234.515 471.853 231.311C487.668 228.11 461.756 237.681 459.807 245.026C457.851 252.371 462.852 273.301 476.011 298.529C484.586 314.959 458.284 293.501 438.22 274.639V274.641Z" fill="#8C4A2A"/>
<path d="M589.141 436.87C584.302 438.693 577.066 440.356 567.686 446.91C555.885 455.176 550.034 449.772 553.932 448.331C557.831 446.901 566.484 440.773 574.512 427.942C582.528 415.099 574.765 396.813 577.317 382.505C583.708 403.133 579.917 418.028 586.38 431.051C587.363 433.047 588.27 434.978 589.14 436.87H589.141Z" fill="#8C4A2A"/>
<path d="M361.676 384.927L314.821 437.892L291.084 433.895L268.048 407.969L256.474 405.026L236.457 372.223L239.345 366.916L235.269 277.404L361.676 384.927Z" fill="#7A371C"/>
<path d="M594.013 681.104C591.59 677.923 588.816 674.307 585.682 670.434C576.898 659.569 568.65 650.811 561.286 643.327C547.448 629.275 535.213 618.972 513.025 602.346C486.212 582.253 456.478 568.471 434.426 558.651C434.183 558.535 433.947 558.432 433.713 558.333C431.542 557.356 429.45 556.432 427.433 555.544C424.25 554.125 421.281 552.806 418.572 551.559C402.488 544.174 368.376 530.638 344.68 522.103C343.071 514.119 334.115 497.777 325.419 494.38C321.696 492.92 318.995 499.312 317.14 501.929C315.284 504.554 315.314 496.836 317.77 490.404C320.23 483.965 318.559 473.064 312.075 457.711C309.366 451.284 303.061 446.083 298.644 446.055C292.116 446.005 283.456 455.446 282.138 459.342C279.928 465.882 277.759 473.05 275.432 472.448C273.116 471.842 276.378 458.275 279.582 446.157C282.786 434.039 271.914 425.343 268.854 428.15C265.797 430.959 253.01 438.625 240.144 441.098C227.277 443.564 238.697 437.362 245.335 435.279C254.524 432.403 261.96 421.171 258.079 421.299C254.202 421.41 242.787 421.32 234.051 417.983C225.374 414.671 247.513 408.421 256.472 405.025L265.863 408.838C265.863 408.838 277.273 412.06 283.4 419.794C289.534 427.533 291.51 430.337 293.412 431.494C295.315 432.647 299.269 431.885 303.842 432.068C308.498 432.248 314.422 433.34 314.422 433.34L361.673 384.925C361.673 384.925 549.491 440.902 551.404 467.18C552.484 481.861 533.963 489.991 518.405 497.306C507.404 502.49 481.079 518.466 476.487 527.501C471.902 536.536 482.135 555.419 499.19 565.492C519.015 577.202 545.959 593.909 569.636 611.401C588.235 625.142 606.659 640.933 615.165 649.523C621.541 655.961 629.301 662.628 636.773 670.524V681.104H594.011L594.013 681.104Z" fill="#8C4A2A"/>
<path d="M225.06 251.734C225.06 251.734 226.3 258.764 224.666 260.951C220.493 266.489 212.219 276.165 205.811 275.246C205.811 275.246 185.966 265.377 180.517 250.504C201.406 271.303 212.006 264.364 225.06 251.734Z" fill="#8C4A2A"/>
<path d="M538.153 479.83L374.599 518.773C361.767 521.832 345.29 513.978 339.746 502.151L186.617 176.156C181.01 164.703 187.196 152.71 197.846 147.245L360.796 127.133C370.105 125.425 379.405 129.917 383.74 138.213L554.138 457.46C551.899 464.484 551.936 467.053 549.596 471.265C547.255 475.486 543.059 478.66 538.152 479.83H538.153Z" fill="#4C4B4D"/>
<path d="M542.866 469.365L378.803 508.142C366.093 511.143 353.015 504.826 347.473 492.998L193.734 164.877C190.027 156.961 194.82 147.677 203.424 146.12L363.652 117.057C372.869 115.388 382.094 119.904 386.428 128.207L552.929 447.37C557.552 456.232 552.592 467.062 542.868 469.364L542.866 469.365Z" fill="#190B2B"/>
<path d="M361.776 496.222C356.406 494.171 352.101 490.176 349.661 484.97L198.787 161.222C197.749 159.014 197.796 156.502 198.914 154.337C200.031 152.167 202.051 150.68 204.451 150.244L364.689 121.183C367.529 120.664 370.462 120.936 373.164 121.969C376.789 123.355 379.778 126.009 381.566 129.45L545.212 444.243C546.621 446.946 546.699 450.077 545.437 452.847C544.173 455.615 541.747 457.605 538.782 458.3L374.719 497.076C370.393 498.101 365.925 497.804 361.775 496.22L361.776 496.222Z" fill="#373535"/>
<path d="M241.672 315.911L202.09 334.453L202.034 334.488L202.028 334.471C201.766 333.818 193.63 312.893 193.859 299.849C194.086 286.914 205.261 275.78 205.791 275.257L205.812 275.244L227.31 257.228C227.31 257.228 233.639 257.808 239.595 261.47C244.63 264.56 249.393 269.842 249.87 278.819C250.383 288.476 248.389 297.616 246.248 304.406C244.052 311.41 241.672 315.911 241.672 315.911Z" fill="#B96B43"/>
<path d="M241.672 315.91L220.767 327.137C220.767 327.137 204.732 334.177 204.789 332.709C207.537 327.093 212.68 320.741 219.63 318.363C226.587 315.981 237.423 313.233 246.247 304.406C244.051 311.409 241.671 315.91 241.671 315.91H241.672Z" fill="#8C4A2A"/>
<path d="M261.614 355.881C257.709 360.99 251.914 364.06 245.468 365.644L245.431 365.65C237.419 368.098 228.926 367.294 221.467 365.759C215.4 364.504 210.168 362.426 206.95 360.002C201.978 356.252 198.712 351.584 197.56 347.117C199.628 338.62 202.036 334.485 202.036 334.485L202.028 334.472C202.028 334.472 219.862 321.489 231.319 319.783C242.89 318.078 251.34 307.679 259.023 310.612C262.329 311.875 266.439 315.697 268.684 321.691C269.345 323.448 269.851 325.384 270.114 327.513C271.072 334.951 269.215 344.569 261.614 355.88V355.881Z" fill="#B96B43"/>
<path d="M225.126 403.846C215.389 407.793 210.729 402.897 213.718 401.764C216.709 400.632 228.961 381.721 222.632 379.9C216.302 378.074 207.792 369.711 212.35 371.148C221.653 374.075 238.537 367.048 239.345 366.916C243.48 366.224 234.873 399.902 225.126 403.846Z" fill="#8C4A2A"/>
<path d="M475.94 556.249C486.797 532.699 515.734 526.587 524.253 517.918C532.724 509.3 558.645 485.031 561.055 480.007C563.823 474.252 583.39 461.053 581.746 465.361C580.1 469.679 565.309 480.78 560.701 488.389C556.092 496.005 535.109 517.374 524.052 528.485C513 539.593 497.493 552.435 495.519 556.48C493.55 560.526 470.981 567.01 475.94 556.249V556.249Z" fill="#8C4A2A"/>
<path d="M231.32 319.781C231.32 319.781 218.074 331.596 228.599 335.826C239.123 340.056 249.67 330.882 249.67 330.882C249.67 330.882 261.216 315.793 257.842 309.479C254.457 303.172 231.32 319.782 231.32 319.782V319.781Z" fill="#FFCEC7"/>
<path d="M213.007 266.916C209.423 270.498 207.059 273.387 206.222 274.9C204.083 278.762 203.488 284.275 205.446 287.17C208.168 291.192 215.962 285.834 221.54 276.797C227.121 267.764 230.794 259.073 227.311 257.227C223.832 255.372 216.592 263.333 213.008 266.916H213.007Z" fill="#FFCEC7"/>
<path d="M218.193 416.816C218.193 416.816 220.507 398.111 225.128 388.23C229.752 378.359 235.678 373.237 253.018 370.205C270.358 367.172 294.814 360.762 291.409 383.44C287.17 411.64 264.5 412.681 254.686 416.267C242.542 420.717 220.474 408.598 218.192 416.816H218.193Z" fill="#B96B43"/>
<path d="M275.201 367.017C275.201 367.017 249.713 372.922 249.612 379.124C249.518 385.338 265.636 389.215 273.153 388.112C280.669 387.011 292.586 382.403 290.512 373.333C289.036 366.875 287.437 365.624 275.201 367.017Z" fill="#FFCEC7"/>
<path d="M388.827 319.32C387.671 320.4 386.161 320.899 384.301 320.819C382.44 320.737 380.809 320.122 379.406 318.972C377.947 317.777 377.111 316.369 376.895 314.75C376.466 311.52 379.054 309.026 382.798 309.233C384.637 309.335 386.286 309.984 387.744 311.179C389.146 312.329 389.965 313.702 390.204 315.301C390.442 316.9 389.983 318.239 388.826 319.32H388.827ZM384.628 299.984L384.497 300.109L374.3 291.857L370.81 289.034L364.659 284.057C364.055 283.567 363.557 283.018 363.17 282.438C362.668 281.682 362.355 280.87 362.241 280.067C362.038 278.628 362.471 277.214 363.596 276.174C365.797 274.135 369.837 274.356 372.617 276.606L378.688 281.517L381.885 284.103C381.885 284.103 381.886 284.102 381.885 284.102C381.887 284.102 381.885 284.101 381.885 284.1C382.973 280.35 381.918 276.004 378.908 272.381C378.225 271.556 377.438 270.77 376.555 270.036C360.724 256.897 341.266 274.89 357.389 287.935L362.933 292.42L364.684 293.838H364.685L374.248 301.577C380.341 306.514 373.7 312.427 368.06 309.33L367.993 309.294L367.926 309.257L367.86 309.219H367.859L367.794 309.18L367.729 309.141L367.663 309.1L367.598 309.059L367.534 309.018L367.469 308.976L367.404 308.933L367.341 308.888L367.277 308.845L367.214 308.799L367.152 308.753L367.09 308.706L367.028 308.659L366.967 308.611L366.905 308.562C351.559 296.145 334.425 283.905 340.956 267.825V267.825C342.28 264.56 344.554 261.752 347.566 259.615C351.983 256.475 357.643 255.034 363.538 255.255C377.26 255.771 392.292 265.499 394.331 279.939C394.583 281.723 394.606 283.5 394.391 285.23C393.499 292.487 389.727 295.435 384.798 300.121L384.629 299.986L384.628 299.984ZM351.445 289.924C351.448 289.926 351.446 289.924 351.445 289.924V289.924Z" fill="white"/>
<path fill-rule="evenodd" clip-rule="evenodd" d="M324.495 298.794C320.176 289.268 319.14 280.837 321.288 271.965C321.915 269.373 324.234 264.018 325.724 261.997C326.095 261.496 326.352 261.013 326.721 260.481C331.049 254.256 337.456 249.926 345.435 247.216C346.287 246.926 347.11 246.655 347.993 246.476C349.112 246.25 349.571 245.986 350.769 245.734C356.999 244.42 364.931 244.201 371.477 245.367C375.043 246.003 380.287 247.381 383.616 249.036C384.143 249.298 384.262 249.295 384.775 249.506C385.547 249.823 385.992 250.097 386.825 250.425L388.98 251.413C389.679 251.862 390.246 252.045 390.96 252.466C395.4 255.077 400.567 258.639 404.031 262.159C408.827 267.033 410.039 268.219 413.277 274.068C414.809 276.835 415.102 276.602 416.776 280.291C418.005 283 418.813 286.719 419.211 289.093C420.318 295.688 420.289 301.601 418.113 307.531C417.392 309.499 416.38 312.166 415.218 313.799C414.162 315.284 413.567 316.457 412.267 318.028C409.422 321.47 406.733 323.91 402.602 326.518C397.675 329.628 393.3 330.236 387.247 331.512C383.785 332.242 379.821 332.595 376.788 332.437C370.657 332.114 364.65 330.708 358.725 328.81C347.881 325.336 335.817 316.147 329.792 307.778C327.874 305.113 326.025 302.168 324.496 298.796L324.495 298.794ZM425.859 274.762L426.9 277.057C430.12 284.564 431.708 292.4 431.58 299.475L431.351 303.269C430.768 308.864 429.258 312.529 426.769 317.298L425.036 320.346C424.13 322.104 423.025 323.456 421.835 325.01C421.351 325.639 420.878 326.181 420.304 326.818C418.882 328.395 416.508 330.228 414.846 331.588L410.437 334.536C403.081 338.929 396.447 341.165 386.732 342.198C379.478 342.969 369.952 342.006 362.575 340.018C359.239 339.119 353.653 337.352 350.469 335.749L341.842 331.272C337.501 328.581 336.365 327.748 332.578 324.787C328.415 321.532 323.167 316.003 320.242 312.069C317.21 307.992 315.225 304.67 313.014 299.794C310.352 293.924 309.178 287.799 308.766 282.274C308.507 278.809 308.797 275.562 309.222 272.228C309.628 269.044 310.635 266.066 311.615 263.143C311.761 262.704 311.922 262.496 312.077 262.033C312.24 261.549 312.281 261.456 312.513 261.021C314.46 257.352 316.115 254.649 318.913 251.469L322.246 247.987C325.17 245.015 331.196 240.976 335.669 239.24C339.422 237.785 343.97 236.589 348.76 235.579C363.199 232.535 379.731 236.27 393.799 243.255L397.437 245.172C397.898 245.427 398.166 245.605 398.615 245.874C405.756 250.17 412.668 256.059 417.794 262.178C421.048 266.063 423.742 270.336 425.86 274.763L425.859 274.762Z" fill="white"/>
<path d="M297.321 93.704C280.722 93.704 267.265 80.247 267.265 63.6478C267.265 47.0476 280.722 33.5905 297.321 33.5905C313.922 33.5905 327.379 47.0476 327.379 63.6478C327.379 80.247 313.922 93.704 297.321 93.704ZM297.321 0C261.806 0 233.022 28.7898 233.022 64.3005C233.022 99.8102 297.321 178.764 297.321 178.764C297.321 178.764 361.622 99.8102 361.622 64.3005C361.622 28.7898 332.832 0 297.321 0Z" fill="#ED2790"/>
<path d="M42.7783 326.965C31.7356 326.965 22.7824 318.012 22.7824 306.969C22.7824 295.926 31.7356 286.973 42.7783 286.973C53.8218 286.973 62.7741 295.926 62.7741 306.969C62.7741 318.012 53.8218 326.965 42.7783 326.965ZM42.7783 264.625C19.1504 264.625 0 283.778 0 307.403C0 331.027 42.7783 383.554 42.7783 383.554C42.7783 383.554 85.5565 331.028 85.5565 307.403C85.5565 283.778 66.4025 264.625 42.7783 264.625Z" fill="#00A85A"/>
</svg>
