<svg width="32" height="33" viewBox="0 0 32 33" fill="none" xmlns="http://www.w3.org/2000/svg">
<path opacity="0.1" fill-rule="evenodd" clip-rule="evenodd" d="M0 16.3066C0 7.47009 7.16344 0.306641 16 0.306641C24.8366 0.306641 32 7.47009 32 16.3066C32 25.1432 24.8366 32.3066 16 32.3066C7.16344 32.3066 0 25.1432 0 16.3066Z" fill="white"/>
<path fill-rule="evenodd" clip-rule="evenodd" d="M15.5208 13.3117L15.5544 13.8654L14.9948 13.7976C12.9579 13.5377 11.1784 12.6564 9.66756 11.1763L8.92891 10.4419L8.73865 10.9842C8.33575 12.1932 8.59316 13.4699 9.43253 14.3286C9.8802 14.8032 9.77948 14.871 9.00725 14.5885C8.73865 14.4981 8.50363 14.4303 8.48124 14.4642C8.4029 14.5433 8.6715 15.5715 8.88414 15.9782C9.17513 16.5432 9.76828 17.0968 10.4174 17.4245L10.9658 17.6843L10.3167 17.6956C9.68994 17.6956 9.66756 17.7069 9.73471 17.9442C9.95854 18.6786 10.8427 19.4582 11.8276 19.7972L12.5214 20.0345L11.9171 20.396C11.0218 20.9158 9.96973 21.2095 8.91772 21.2321C8.41409 21.2434 8 21.2886 8 21.3225C8 21.4355 9.36538 22.0682 10.16 22.3168C12.5438 23.0512 15.3753 22.7349 17.5017 21.4807C19.0126 20.5881 20.5235 18.8142 21.2286 17.0968C21.6091 16.1816 21.9896 14.5094 21.9896 13.7072C21.9896 13.1875 22.0232 13.1197 22.6499 12.4982C23.0192 12.1367 23.3662 11.7412 23.4333 11.6282C23.5452 11.4136 23.534 11.4136 22.9633 11.6056C22.012 11.9446 21.8777 11.8994 22.3477 11.391C22.6947 11.0294 23.1088 10.3741 23.1088 10.182C23.1088 10.1481 22.9409 10.2046 22.7506 10.3063C22.5492 10.4193 22.1015 10.5888 21.7658 10.6904L21.1614 10.8825L20.613 10.5097C20.3108 10.3063 19.8856 10.0803 19.6617 10.0125C19.0909 9.85434 18.218 9.87694 17.7032 10.0577C16.3042 10.5662 15.4201 11.8768 15.5208 13.3117Z" fill="white"/>
</svg>
