<svg width="32" height="33" viewBox="0 0 32 33" fill="none" xmlns="http://www.w3.org/2000/svg">
<path opacity="0.1" fill-rule="evenodd" clip-rule="evenodd" d="M0 16.3066C0 7.47009 7.16344 0.306641 16 0.306641C24.8366 0.306641 32 7.47009 32 16.3066C32 25.1432 24.8366 32.3066 16 32.3066C7.16344 32.3066 0 25.1432 0 16.3066Z" fill="white"/>
<path fill-rule="evenodd" clip-rule="evenodd" d="M22.6679 10.8062C23.4022 11.0077 23.9805 11.6014 24.1768 12.3554C24.5335 13.722 24.5335 16.5733 24.5335 16.5733C24.5335 16.5733 24.5335 19.4245 24.1768 20.7911C23.9805 21.5451 23.4022 22.1389 22.6679 22.3405C21.3371 22.7066 16.0001 22.7066 16.0001 22.7066C16.0001 22.7066 10.6632 22.7066 9.3323 22.3405C8.59795 22.1389 8.01962 21.5451 7.82335 20.7911C7.4668 19.4245 7.4668 16.5733 7.4668 16.5733C7.4668 16.5733 7.4668 13.722 7.82335 12.3554C8.01962 11.6014 8.59795 11.0077 9.3323 10.8062C10.6632 10.4399 16.0001 10.4399 16.0001 10.4399C16.0001 10.4399 21.3371 10.4399 22.6679 10.8062ZM14.4001 14.1732V19.5066L18.6668 16.84L14.4001 14.1732Z" fill="white"/>
</svg>
